<?xml version="1.0" encoding="utf-8"?>
<svg viewBox="439.08 1152.12 1811.25 579.11" width="1811.25" height="579.11" xmlns="http://www.w3.org/2000/svg">
  <defs>
    <style type="text/css">
   
    .fil1 {fill:#58595B;fill-rule:nonzero}
    .fil4 {fill:#593408;fill-rule:nonzero}
    .fil9 {fill:#623506;fill-rule:nonzero}
    .fil5 {fill:#703704;fill-rule:nonzero}
    .fil8 {fill:#885418;fill-rule:nonzero}
    .fil7 {fill:#965914;fill-rule:nonzero}
    .fil10 {fill:#B2803B;fill-rule:nonzero}
    .fil6 {fill:#B97624;fill-rule:nonzero}
    .fil2 {fill:#CF852F;fill-rule:nonzero}
    .fil13 {fill:#CFD8F9;fill-rule:nonzero}
    .fil3 {fill:#E2A750;fill-rule:nonzero}
    .fil12 {fill:#E4E9FF;fill-rule:nonzero}
    .fil11 {fill:#F86762;fill-rule:nonzero}
    .fil0 {fill:white;fill-rule:nonzero}
   
  </style>
  </defs>
  <polygon class="fil2" points="680.79,1412.52 528.61,1412.52 514.17,1423.56 489.81,1423.56 489.81,1502.69 514.17,1502.69 528.61,1513.73 680.79,1513.73 680.79,1496.73 694.39,1496.73 694.39,1513.73 711.4,1513.73 711.4,1412.52 694.39,1412.52 694.39,1429.52 680.79,1429.52 "/>
  <path class="fil2" d="M440.31 1467.95c15.55,28.52 49.5,30.85 49.5,30.85l0 -71.34c0,0 -33.95,2.32 -49.5,30.84 -1.64,3.01 -1.64,6.64 0,9.65z"/>
  <path class="fil3" d="M451.66 1482.26l-0.07 0c-0.31,-0.28 -0.62,-0.57 -0.93,-0.86l-0.02 -0.02c-0.31,-0.3 -0.63,-0.61 -0.94,-0.92l-0.02 -0.01c-0.3,-0.31 -0.61,-0.62 -0.91,-0.93l-0.05 -0.05c-0.29,-0.31 -0.59,-0.63 -0.88,-0.94l-0.05 -0.07c-0.29,-0.32 -0.58,-0.64 -0.87,-0.97l-0.05 -0.05c-0.28,-0.34 -0.57,-0.68 -0.85,-1.02l-0.04 -0.05c-0.28,-0.34 -0.56,-0.69 -0.84,-1.05l-0.04 -0.05c-0.27,-0.35 -0.55,-0.71 -0.82,-1.08l-0.04 -0.06c-0.27,-0.36 -0.54,-0.74 -0.8,-1.12l-0.03 -0.04c-0.27,-0.38 -0.53,-0.77 -0.79,-1.17l-0.02 -0.03c-0.26,-0.4 -0.52,-0.8 -0.78,-1.21l-0.02 -0.03c-0.25,-0.41 -0.5,-0.83 -0.74,-1.25l-0.01 -0.01 -0.01 -0.02c-0.25,-0.43 -0.49,-0.86 -0.73,-1.3l-0.08 -0.14 -0.07 -0.15 -0.07 -0.14 -0.07 -0.14 -0.07 -0.15 -0.06 -0.14 -0.06 -0.15 -0.06 -0.15 -0.05 -0.13 -0.01 -0.02 0 0 0 -0.01 -0.05 -0.12 0 -0.01 0 0 -0.03 -0.08 -0.02 -0.07 0 0 -0.01 -0.02 -0.04 -0.13 -0.05 -0.14 0 -0.01 0 0 0 -0.02 -0.04 -0.13 -0.04 -0.14 -0.01 -0.01 0 0 0 -0.02 -0.03 -0.11 -0.01 -0.03 0 0 0 -0.02 -0.03 -0.12 0 -0.01 0 0 -0.01 -0.01 -0.03 -0.13 0 -0.01 0 0 -0.01 -0.08 -0.02 -0.07 0 0 -0.02 -0.08 -0.01 -0.08 0 0 -0.01 -0.07 -0.02 -0.08 0 0 0 -0.01 -0.02 -0.13 0 -0.01 0 0 -0.01 -0.02 -0.02 -0.12 0 -0.02 0 0 -0.01 -0.08 -0.01 -0.07 0 0 0 -0.02 -0.01 -0.13 -0.01 -0.01 0 0 0 -0.01 -0.01 -0.13 0 -0.01 0 0 0 -0.02 -0.01 -0.13 0 -0.01 0 0 0 -0.01 -0.01 -0.13 -0.01 -0.01 0 0 0 -0.01 0 -0.14 0 -0.01 0 0 0 -0.01 -0.01 -0.14 0 0 0 0 0 -0.01 0 -0.15 0 0 0 0 0 0 0 -0.15 0 -0.01 0 0 0 -0.15 0 0 0 -0.16 0 0 0.01 -0.15 0 0 0 -0.16 0 0 0.02 -0.15 0 0 0.01 -0.16 0 0 0.01 -0.15 0 0 0.02 -0.16 0 0 0.02 -0.15 0.03 -0.16 0.02 -0.15 0.03 -0.15 0.03 -0.16 0.03 -0.15 0.04 -0.15 0.03 -0.14 0 -0.01 0 0 0.01 -0.02 0.03 -0.12 0 -0.02 0 0 0.01 -0.01 0.04 -0.14 0.04 -0.13 0 -0.02 0 0 0 -0.01 0.05 -0.14 0.05 -0.15 0.05 -0.15 0.05 -0.13 0 -0.01 0 0 0.01 -0.02 0.05 -0.13 0.06 -0.15 0.06 -0.15 0.06 -0.14 0.07 -0.15 0.07 -0.14 0.07 -0.14 0.07 -0.15 0.08 -0.14c0.23,-0.43 0.47,-0.85 0.71,-1.27l0.07 -0.11c0.22,-0.39 0.46,-0.78 0.69,-1.16l0.07 -0.1c0.24,-0.4 0.49,-0.79 0.74,-1.17l0.03 -0.04c0.25,-0.39 0.52,-0.78 0.78,-1.16l0.06 -0.08c0.25,-0.36 0.51,-0.72 0.77,-1.07l0.07 -0.1c0.26,-0.36 0.54,-0.72 0.81,-1.08l0.02 -0.01c0.28,-0.37 0.57,-0.73 0.86,-1.08l0.03 -0.05c0.28,-0.33 0.56,-0.66 0.84,-0.99l0.07 -0.08c0.29,-0.33 0.58,-0.66 0.88,-0.99l0.01 -0.01c0.3,-0.33 0.61,-0.66 0.91,-0.98l0.03 -0.03c0.3,-0.31 0.6,-0.62 0.91,-0.92l0.05 -0.05c0.3,-0.31 0.61,-0.61 0.92,-0.9l0.01 -0.01c0.64,-0.61 1.29,-1.19 1.95,-1.76l0.01 -0.01c0.33,-0.28 0.66,-0.56 0.99,-0.83l0 0c0.67,-0.55 1.33,-1.08 2.01,-1.58l0.01 -0.01c0.33,-0.26 0.67,-0.5 1.01,-0.75l0 0c0.68,-0.49 1.36,-0.95 2.04,-1.4l0.02 -0.02c0.34,-0.22 0.67,-0.44 1.01,-0.65l0.02 -0.01c0.68,-0.43 1.36,-0.84 2.04,-1.24l0.03 -0.02c0.33,-0.19 0.66,-0.38 0.99,-0.56l0.04 -0.02c0.34,-0.19 0.68,-0.37 1.01,-0.55l0 0c0.34,-0.18 0.68,-0.36 1.02,-0.53l0.03 -0.02c0.32,-0.16 0.63,-0.32 0.94,-0.47l0.12 -0.06c0.19,-0.09 0.38,-0.18 0.57,-0.27 6.95,4.75 11.52,12.74 11.52,21.79 0,14.56 -11.81,26.37 -26.37,26.37z"/>
  <polygon class="fil4" points="680.79,1496.73 694.39,1496.73 694.39,1429.52 680.79,1429.52 "/>
  <polygon class="fil5" points="489.81,1502.69 513.74,1502.69 513.74,1423.56 489.81,1423.56 "/>
  <polygon class="fil6" points="680.79,1507.36 528.82,1507.36 513.74,1496.35 513.74,1482.26 528.82,1488.53 680.79,1488.53 "/>
  <polygon class="fil7" points="513.74,1496.35 489.81,1496.12 489.81,1482.26 513.74,1482.26 "/>
  <polygon class="fil8" points="513.74,1448.66 513.74,1434.57 528.82,1423.56 680.79,1423.56 680.79,1442.39 528.82,1442.39 "/>
  <polygon class="fil9" points="513.74,1448.66 489.81,1448.66 489.81,1434.79 513.74,1434.57 "/>
  <polygon class="fil3" points="513.74,1473.21 680.79,1473.21 680.79,1463.12 513.74,1463.12 "/>
  <polygon class="fil10" points="489.81,1473.21 513.74,1473.21 513.74,1463.12 489.81,1463.12 "/>
  <path class="fil11" d="M1075.88 1309.25c-0.77,7.44 -1.36,16.84 -1.78,28.2l-2.16 58.22 -61.45 -2.28 36.95 -51.63c8.7,-12.23 15.29,-22.15 19.8,-29.73 4.5,-7.59 8.36,-15.15 11.59,-22.69 -1.21,5.85 -2.19,12.49 -2.95,19.91zm178.65 93.18l-46.45 -1.72 8.6 -232.27 -169.95 -6.3 -170.31 226.29 -1.26 34.07 379.21 -15.81 0.16 -4.26z" style="fill: rgb(0, 0, 0);"/>
  <path class="fil11" d="M1449.28 1376.59c-1.29,-31.55 0.5,-54.49 5.41,-68.83 4.9,-14.34 13.44,-21.76 25.59,-22.26 11.94,-0.49 20.97,6.3 27.04,20.38 5.95,13.77 9.6,35.71 10.96,65.82l149.8 -18.05c-4.66,-63.07 -23.01,-112.35 -55.05,-147.83 -34.35,-38.04 -80.43,-55.87 -138.24,-53.49 -57.44,2.37 -101.83,24.08 -133.22,65.13 -31.39,41.05 -45.65,96.16 -42.8,165.34 0.22,5.17 0.53,10.24 0.92,15.24l149.75 -18.04c-0.06,-1.13 -0.11,-2.26 -0.16,-3.41z" style="fill: rgb(0, 0, 0);"/>
  <path class="fil11" d="M1872.85 1332.14c10.62,-10.6 18.79,-19.27 24.51,-25.99 5.71,-6.72 10.78,-13.53 15.23,-20.42 -2.17,5.56 -4.25,11.94 -6.26,19.14 -2,7.2 -4.15,16.36 -6.48,27.5l-2.41 11.58 135.54 17.29 35.78 -171.57 -166.47 -34.72 -176.82 167.05 139.64 17.82 7.74 -7.68z" style="fill: rgb(0, 0, 0);"/>
  <polygon class="fil11" points="1022.71,1602.46 1028.56,1687.87 1175.91,1677.8 1170.07,1592.38 1216.45,1589.2 1209.05,1481.04 833.6,1536.62 838.96,1615.03 " style="fill: rgb(0, 0, 0);"/>
  <path class="fil11" d="M1419.85 1706c57.25,8.39 104.95,-4.64 143.11,-39.1 38.16,-34.45 62.3,-86.22 72.42,-155.31 0.68,-4.66 1.27,-9.25 1.79,-13.79l-150.55 -10.08c-0.09,0.67 -0.19,1.35 -0.29,2.02 -4.55,31.06 -10.58,53.22 -18.07,66.5 -7.5,13.27 -17.17,19.03 -29,17.3 -11.84,-1.73 -19.48,-10.14 -22.92,-25.21 -3.31,-14.52 -2.95,-36.26 1.1,-65.24l-150.49 -10.07c-6.7,61.54 2.43,112.85 27.4,153.92 26.99,44.4 68.82,70.75 125.5,79.06z" style="fill: rgb(0, 0, 0);"/>
  <polygon class="fil11" points="1684.64,1589.6 1866.04,1621.4 1851.27,1705.74 1996.74,1731.23 2011.52,1646.9 2057.32,1654.93 2076.77,1543.93 2030.99,1535.91 2040.86,1479.6 1904.83,1466.66 1896.82,1512.39 1836.24,1501.77 1872.39,1463.57 1732.24,1450.25 1704.09,1478.61 " style="fill: rgb(0, 0, 0);"/>
  <path class="fil12" d="M702.25 1405.12c-1.87,9.4 2.41,19.27 9.26,25.97 -5.95,2.01 -10.58,7.52 -11.53,13.74 -0.95,6.21 1.82,12.85 6.9,16.55 -5.99,5.29 -6.56,15.6 -1.18,21.52 -13.05,6.86 -14.48,26.72 -5.55,38.45 8.93,11.73 24.56,16.37 39.3,16.89 7.09,0.25 14.42,-0.34 20.79,-3.47 13.91,-6.84 19.6,-26.48 11.49,-39.69 6.31,-6.07 8.47,-16.07 5.22,-24.21 -3.24,-8.13 -11.7,-13.9 -20.46,-13.95 6.57,-12.2 -3.08,-29.69 -16.9,-30.66 10.54,-3.6 15.31,-17.87 9.86,-27.59 -3.88,-6.94 -11.9,-10.73 -19.68,-10.71 -7.37,0.02 -14.74,0.41 -20.6,5.49 -3.47,3 -6.01,7.16 -6.92,11.67z"/>
  <path class="fil13" d="M698.04 1518.08c7.5,1.86 15.23,2.98 22.94,2.52 8.36,-0.51 16.73,-2.96 23.51,-7.88 2.68,-1.95 5.13,-4.31 6.74,-7.21 3.41,-6.16 2.61,-13.7 1.59,-20.67 3.67,-3.39 5.31,-8.75 4.59,-13.7 -0.72,-4.94 -4,-9.45 -8.49,-11.65 1.93,-4.79 2.93,-9.9 2.9,-15.07 -0.01,-2.03 -0.18,-4.1 -0.94,-5.98 -1.29,-3.19 -4.13,-5.54 -7.26,-6.96 -3.13,-1.42 -6.55,-2.02 -9.93,-2.61 3.31,-5.82 4.44,-12.85 4.15,-19.55 -0.29,-6.7 -1.86,-13.27 -3.53,-19.76 -0.11,-0.42 -0.22,-0.83 -0.33,-1.24 6.33,1.09 12.29,4.66 15.47,10.35 5.45,9.72 0.68,23.99 -9.86,27.59 13.82,0.97 23.47,18.46 16.9,30.66 8.76,0.05 17.22,5.82 20.46,13.95 3.25,8.14 1.09,18.14 -5.22,24.21 8.11,13.21 2.42,32.85 -11.49,39.69 -6.37,3.13 -13.7,3.72 -20.79,3.47 -14.74,-0.52 -30.37,-5.16 -39.3,-16.89 -0.79,-1.03 -1.49,-2.13 -2.11,-3.27z"/>
  <polygon class="fil4" points="1810.86,1428.74 2119.04,1428.74 2119.04,1425.16 1810.86,1425.16 " style="fill: rgb(181, 181, 181);"/>
  <polygon class="fil4" points="1389.35,1428.74 1718.73,1428.74 1718.73,1425.16 1389.35,1425.16 " style="fill: rgb(181, 181, 181);"/>
  <polygon class="fil4" points="1124.56,1428.74 1349.92,1428.74 1349.92,1425.16 1124.56,1425.16 " style="fill: rgb(181, 181, 181);"/>
  <polygon class="fil4" points="813.2,1428.74 1006.92,1428.74 1006.92,1425.16 813.2,1425.16 " style="fill: rgb(181, 181, 181);"/>
  <polygon class="fil4" points="1554.96,1456.82 2166.73,1456.82 2166.73,1453.24 1554.96,1453.24 " style="fill: rgb(181, 181, 181);"/>
  <polygon class="fil4" points="945.9,1456.82 1483.25,1456.82 1483.25,1453.24 945.9,1453.24 " style="fill: rgb(181, 181, 181);"/>
  <polygon class="fil4" points="788.57,1455.03 926.43,1455.03 926.43,1451.45 788.57,1451.45 " style="fill: rgb(181, 181, 181);"/>
  <polygon class="fil4" points="796.23,1484.91 2250.33,1484.91 2250.33,1481.33 796.23,1481.33 " style="fill: rgb(181, 181, 181);"/>
  <polygon class="fil4" points="1940.78,1512.99 2119.03,1512.99 2119.03,1509.41 1940.78,1509.41 "/>
  <polygon class="fil4" points="1342.72,1512.99 1725.47,1512.99 1725.47,1509.41 1342.72,1509.41 " style="fill: rgb(181, 181, 181);"/>
  <polygon class="fil4" points="951.46,1512.99 1302.25,1512.99 1302.25,1509.41 951.46,1509.41 " style="fill: rgb(181, 181, 181);"/>
  <polygon class="fil4" points="813.2,1512.99 875.16,1512.99 875.16,1509.41 813.2,1509.41 " style="fill: rgb(181, 181, 181);"/>
  <polygon class="fil11" points="1733.93,1374.1 1810.86,1346.06 1819.21,1381.32 " style="fill: rgb(0, 0, 0);"/>
  <polygon class="fil11" points="1983.53,1369.22 2022.14,1385.7 2002.84,1409.9 1972.73,1378.49 " style="fill: rgb(0, 0, 0);"/>
  <polygon class="fil11" points="1871.8,1369.22 1880.7,1406.81 1923.81,1385.18 1915.06,1376.43 " style="fill: rgb(0, 0, 0);"/>
  <polygon class="fil11" points="1224.74,1361.24 1254.53,1342.5 1264.82,1373.41 1224.74,1381.32 " style="fill: rgb(0, 0, 0);"/>
  <polygon class="fil11" points="1590.74,1394.42 1622.2,1378.69 1637.17,1402.28 1593.37,1413.43 " style="fill: rgb(0, 0, 0);"/>
  <polygon class="fil11" points="1502.92,1388.01 1538.97,1398.04 1516.69,1413.43 1493.1,1400.72 " style="fill: rgb(0, 0, 0);"/>
  <polygon class="fil11" points="1461.64,1392.45 1468.85,1406.81 1455.09,1413.43 1445.92,1402.94 " style="fill: rgb(0, 0, 0);"/>
  <polygon class="fil11" points="1955.43,1435.42 1983.94,1456.82 1946.2,1461.42 1946.2,1435.42 " style="fill: rgb(0, 0, 0);"/>
  <polygon class="fil11" points="2119.04,1384.89 2076.77,1413.43 2106.97,1450.25 2175.51,1417.57 " style="fill: rgb(0, 0, 0);"/>
</svg>