<svg width="236" height="166" viewBox="0 0 236 166" fill="none" xmlns="http://www.w3.org/2000/svg">
    <g clip-path="url(#clip0_17909_22)">
        <path fill-rule="evenodd" clip-rule="evenodd"
              d="M48.103 172.544C28.049 141.871 -9.27858 84.7753 31.0532 49.4524C41.1379 40.6283 55.3235 35.6001 71.0162 35.2909C83.4553 35.0403 96.8238 37.5658 113.084 43.2121C128.887 48.6957 145.334 56.2615 164.848 67.0153C180.074 75.4076 192.258 83.1592 202.186 93.7276C210.155 102.209 215.605 111.68 218.188 121.319C219.443 126.006 220.02 130.717 219.884 135.377C219.478 149.471 212.155 164.234 199.789 175.895C188.448 186.583 174.354 193.87 160.814 200.137C139.631 209.952 114.845 218.948 91.5939 211.35C70.9263 204.601 56.867 185.965 48.103 172.544ZM31.9604 50.4936C-7.45469 85.0286 29.4271 141.474 49.2578 171.793C57.9186 185.041 71.7663 203.42 92.0269 210.035C114.827 217.497 139.294 208.587 160.235 198.88C173.671 192.654 187.643 185.443 198.836 174.895C210.938 163.475 218.113 149.066 218.502 135.334C218.899 121.628 212.586 106.809 201.185 94.6808C191.377 84.2374 179.293 76.5443 164.172 68.2238C144.739 57.5053 128.36 49.9785 112.631 44.5038C96.5286 38.9149 83.3111 36.4203 71.0426 36.6681C55.674 36.9617 41.801 41.8776 31.9604 50.4936ZM66.5081 161.205C49.1263 136.509 28.4685 100.333 49.7245 71.4485C54.4831 64.9648 60.5302 60.7331 67.7498 58.7986C71.253 57.8599 75.0428 57.458 79.0926 57.6001C90.9807 58.0108 103.133 62.0181 113.45 65.8892C125.787 70.532 138.185 76.2571 151.35 83.4037C161.021 88.6466 171.046 94.6226 178.895 102.765C185.077 109.157 189.402 116.617 191.418 124.14C192.246 127.229 192.692 130.334 192.706 133.37C192.774 144.012 187.765 155.1 178.955 163.782C170.553 172.013 159.756 177.432 150.28 181.655C149.224 182.137 148.148 182.597 147.072 183.057C134.7 188.298 116.268 194.635 99.1725 189.07C87.5187 185.272 77.1385 176.423 66.5081 161.205ZM44.3618 115.425C48.7284 131.721 58.6277 147.62 67.6353 160.404C78.0843 175.37 88.2378 184.066 99.5921 187.759C116.264 193.181 134.366 186.946 146.532 181.788C147.609 181.329 148.671 180.873 149.731 180.404C159.077 176.23 169.748 170.873 177.979 162.803C186.542 154.372 191.406 143.65 191.325 133.383C191.264 123.296 186.38 112.476 177.911 103.728C170.184 95.7238 160.261 89.8064 150.688 84.6086C137.587 77.4877 125.239 71.7918 112.953 67.1783C102.747 63.3487 90.7326 59.3759 79.0452 58.9685C67.1135 58.5552 57.6183 63.0259 50.8286 72.2657C45.9095 78.9493 43.3022 86.0552 42.4272 93.3391C41.5485 100.61 42.3889 108.062 44.3618 115.425ZM84.9301 149.876C72.5318 134.562 59.174 105.063 67.3779 91.7766C72.3879 82.9281 76.829 78.67 87.1956 79.9022C96.0439 80.9561 105.74 85.122 113.53 88.4575L113.819 88.5797C121.514 91.8833 129.757 95.5255 137.866 99.7884C144.002 103.025 150.415 106.715 155.605 111.803C160.1 116.164 163.293 121.473 164.737 126.865C165.137 128.356 165.396 129.857 165.525 131.349C166.107 138.585 163.421 145.983 158.117 151.657C152.771 157.385 145.5 160.831 139.749 163.186C139.068 163.468 138.37 163.741 137.659 164.017C125.501 168.673 115.377 169.573 106.734 166.78C96.8602 163.604 89.5651 155.612 84.9301 149.876ZM68.0335 113.991C71.3192 126.253 78.697 139.988 85.9959 149.006C93.1926 157.908 99.9162 163.128 107.154 165.469C115.497 168.157 125.31 167.268 137.169 162.721C137.857 162.465 138.551 162.179 139.236 161.91C144.844 159.609 151.953 156.248 157.108 150.714C162.146 145.326 164.705 138.304 164.155 131.459C163.621 124.938 160.156 118.132 154.641 112.789C149.571 107.826 143.272 104.191 137.221 101.003C129.162 96.7693 120.95 93.1334 113.275 89.8528L112.986 89.7306C105.274 86.4172 95.6785 82.3098 87.0345 81.2725C78.3337 80.2361 74.0222 82.8469 68.5769 92.4685L68.5671 92.4854C65.437 97.5338 65.7325 105.403 68.0335 113.991ZM87.1609 115.844C84.7294 109.06 84.7381 104.777 87.1698 102.77C91.2541 99.3767 100.947 103.749 110.651 109.229L111.305 109.6C111.414 109.662 111.523 109.725 111.632 109.787L112.286 110.162C112.939 110.539 113.591 110.918 114.239 111.299C116.56 112.661 119.091 113.795 121.538 114.881C125.221 116.533 129.02 118.241 132.273 120.794C135.256 123.134 137.642 126.605 138.616 130.24C139.469 133.422 139.24 136.723 137.336 139.473C135.559 142.061 132.486 143.912 128.192 144.991C122.836 146.312 117.906 145.764 113.613 144.288C109.324 142.826 105.675 140.45 102.847 138.154C96.0618 132.652 90.1991 124.305 87.1609 115.844ZM88.0539 103.832C86.1697 105.378 86.31 109.365 88.4644 115.38C97.1058 139.479 116.709 146.413 127.862 143.653C131.81 142.666 134.618 141 136.199 138.693C139.804 133.446 136.52 125.878 131.422 121.879C128.31 119.43 124.58 117.761 120.977 116.144C118.496 115.039 115.932 113.885 113.543 112.485C111.36 111.199 107.799 109.106 103.978 107.208L103.373 106.91C103.171 106.811 102.968 106.713 102.765 106.616L102.154 106.327C96.4434 103.657 90.5517 101.756 88.0539 103.832Z"
              fill="#575445" fill-opacity="0.14"/>
    </g>
    <defs>
        <clipPath id="clip0_17909_22">
            <rect width="192.23" height="192.23" fill="white" transform="translate(49.7529 235.433) rotate(-105)"/>
        </clipPath>
    </defs>
</svg>
