<svg width="314" height="273" viewBox="0 0 314 273" fill="none" xmlns="http://www.w3.org/2000/svg">
    <g clip-path="url(#clip0_17909_19)">
        <path fill-rule="evenodd" clip-rule="evenodd"
              d="M99.9231 -17.0159C156.797 -35.6896 262.664 -70.4464 301.346 8.12254C311.005 27.7648 312.941 52.2725 306.795 77.1632C301.931 96.8956 292.295 116.921 276.511 140.19C261.178 162.805 242.288 185.556 217.071 211.798C197.392 232.274 180.01 248.222 159.139 259.417C142.387 268.405 125.14 273 108.839 273C100.914 273 93.2361 271.919 85.9411 269.734C63.876 263.134 43.6797 245.339 30.5082 220.898C18.4399 198.486 12.9011 173.167 8.73579 149.155C2.20633 111.582 -1.50871 68.6711 20.3087 35.1982C39.6945 5.442 75.0436 -8.86169 99.9231 -17.0159ZM299.319 9.11366C261.494 -67.6758 156.842 -33.3469 100.621 -14.876C76.0568 -6.81187 41.203 7.26657 22.2 36.4371C0.787858 69.2568 4.5029 111.627 10.9648 148.772C15.1076 172.604 20.5789 197.697 32.4895 219.817C45.3909 243.739 65.0918 261.152 86.594 267.571C108.051 273.991 134.101 270.297 158.058 257.435C178.682 246.375 195.929 230.562 215.45 210.221C240.577 184.092 259.377 161.431 274.665 138.928C290.291 115.885 299.815 96.0847 304.611 76.6226C310.645 52.25 308.753 28.2829 299.319 9.11366ZM110.033 16.8174C156.347 -0.166843 222.159 -17.4664 258.747 28.2829C266.965 38.532 271.085 49.8623 271.085 62.0711C271.085 67.9953 270.117 74.1448 268.181 80.4745C262.507 99.058 251.046 116.538 240.577 131.179C228.036 148.682 213.761 165.824 196.919 183.574C184.558 196.616 170.892 209.906 154.726 218.849C142.027 225.899 128.428 229.571 115.706 229.571C110.483 229.571 105.394 228.963 100.599 227.701C83.7796 223.309 68.4016 210.717 58.4273 193.147C48.9933 176.411 45.0081 157.084 42.3513 140.347C42.0361 138.478 41.7659 136.586 41.4957 134.693C38.4561 112.956 36.2496 81.1953 52.2581 56.5749C63.178 39.7934 81.5281 27.1566 110.033 16.8174ZM191.628 1.22974C164.07 1.22974 134.799 10.1273 110.821 18.9348C82.7889 29.0938 64.7766 41.4378 54.1493 57.7913C38.5462 81.8035 40.7302 113.001 43.7247 134.378C43.9949 136.27 44.2651 138.14 44.5578 140.009C47.1921 156.521 51.1323 175.622 60.3861 192.021C70.0677 209.095 84.9279 221.304 101.161 225.516C117.102 229.683 136.24 226.552 153.622 216.889C169.518 208.081 183.05 194.927 195.298 182.019C212.072 164.359 226.28 147.285 238.753 129.85C249.11 115.366 260.458 98.0894 266.042 79.8212C271.738 61.1701 268.699 44.2985 256.991 29.6795C248.525 19.0925 238.415 11.9744 227.293 7.51435C216.193 3.0543 204.079 1.22974 191.628 1.22974ZM120.119 50.6732C149.525 37.5859 201.715 28.9812 219.21 47.5422C231.053 59.1879 235.894 67.9953 229.567 83.8308C224.163 97.3461 213.491 110.884 204.935 121.764L204.62 122.169C196.154 132.914 186.923 144.379 176.768 155.372C169.068 163.684 160.535 172.243 150.313 178.28C141.532 183.529 131.805 186.322 122.686 186.322C120.164 186.322 117.688 186.097 115.279 185.669C103.616 183.529 93.0785 176.163 86.3689 165.396C79.5917 154.538 77.2276 141.609 75.9442 131.54C75.7866 130.346 75.6515 129.13 75.5165 127.891C73.3099 106.739 76.1694 90.3857 84.2299 77.9291C93.4162 63.693 109.109 55.5613 120.119 50.6732ZM183.883 39.1852C163.146 39.1852 138.357 45.0193 121.043 52.723C103.953 60.3141 92.8758 68.7162 86.1212 79.1455C78.3534 91.1741 75.6065 107.032 77.768 127.665C77.8806 128.859 78.0382 130.076 78.1733 131.27C79.4341 141.091 81.7307 153.727 88.2827 164.202C94.6545 174.428 104.651 181.434 115.684 183.461C126.199 185.376 138.402 182.785 149.164 176.343C159.139 170.441 167.537 162.039 175.125 153.84C185.211 142.915 194.42 131.495 202.841 120.773L203.156 120.367C211.645 109.6 222.182 96.1973 227.473 82.9973C232.786 69.7073 230.49 61.8008 217.611 49.1415L217.589 49.119C210.947 42.046 198.405 39.1852 183.883 39.1852ZM172.873 68.581C184.604 67.6124 191.358 69.437 193.497 74.1223C197.124 82.001 186.127 95.4466 173.378 108.441L172.516 109.316C172.372 109.462 172.228 109.607 172.083 109.753L171.215 110.625C170.345 111.497 169.47 112.364 168.595 113.227C165.465 116.313 162.606 119.827 159.859 123.228C155.694 128.341 151.393 133.612 145.99 137.667C141.036 141.383 134.552 143.681 128.405 143.681C123.024 143.681 117.913 141.924 114.378 137.757C111.046 133.86 109.425 128.229 109.537 120.998C109.717 111.988 112.667 104.442 116.81 98.2921C120.93 92.1427 126.221 87.3898 131.039 83.8984C142.59 75.5189 158.238 69.7974 172.873 68.581ZM191.448 75.0684C189.805 71.4417 183.455 69.9776 173.053 70.8336C131.377 74.28 112.149 102.279 111.789 121.043C111.676 127.688 113.117 132.824 116.089 136.293C122.844 144.199 136.173 142.217 144.639 135.865C149.817 131.99 154.028 126.809 158.103 121.809C160.895 118.362 163.799 114.803 167.019 111.627C169.971 108.726 174.779 103.993 179.389 98.7669L180.115 97.9379C180.356 97.6603 180.597 97.3816 180.836 97.1018L181.55 96.26C188.176 88.3789 193.667 79.887 191.448 75.0684Z"
              fill="#575445" fill-opacity="0.14"/>
    </g>
    <defs>
        <clipPath id="clip0_17909_19">
            <rect width="314" height="314" fill="white" transform="translate(0 -41)"/>
        </clipPath>
    </defs>
</svg>
