<svg width="1440" height="399" viewBox="0 0 1440 399" fill="none" xmlns="http://www.w3.org/2000/svg">
    <path fill-rule="evenodd" clip-rule="evenodd"
          d="M182.458 395.976C185.453 396.782 188.237 397.747 190.944 398.673L191.885 399H188.87C186.49 398.17 184.013 397.348 181.421 396.646C168.307 393.135 150.47 392.512 128.371 394.802C121.824 395.481 115.258 396.351 108.902 397.189C104.198 397.803 99.3984 398.441 94.56 399H86.9952C94.2336 398.29 101.357 397.348 108.326 396.43C114.701 395.585 121.306 394.715 127.91 394.028C150.528 391.682 168.883 392.337 182.458 395.976ZM245.414 353.354C248.563 355.341 249.946 357.672 251.29 359.93C251.693 360.616 252.096 361.294 252.538 361.965C258.566 370.95 274.138 378.084 293.184 380.598C297.85 381.213 302.784 381.572 307.546 381.915C311.213 382.178 315.014 382.449 318.701 382.84C329.165 383.95 336.787 385.993 340.723 388.754C345.427 392.057 344.525 395.76 341.779 399H339.763C342.528 395.88 343.565 392.305 339.072 389.161C334.426 385.905 325.171 384.349 318.221 383.615C314.611 383.232 310.848 382.96 307.219 382.697C302.381 382.354 297.389 381.995 292.608 381.364C272.947 378.771 256.877 371.421 250.694 362.18C250.234 361.502 249.83 360.816 249.427 360.121C248.122 357.935 246.778 355.661 243.821 353.793C236.736 349.34 222.067 348.199 210.682 349.053C200.335 349.829 190.778 351.939 181.57 354.091L179.366 354.607L176.122 355.357C134.304 365.061 71.5008 375.778 0 375.132V374.342C71.0976 374.988 133.574 364.319 175.2 354.663L178.406 353.905C188.448 351.559 198.835 349.125 210.336 348.271C222.355 347.369 237.85 348.598 245.414 353.354ZM338.918 222.187C364.742 224.924 393.562 231.939 396.998 243.422C398.726 249.223 393.562 254.817 389.011 259.757L361.459 289.634C352.032 299.856 341.357 311.435 345.869 322.943C350.784 335.447 374.976 346.14 404.678 348.949C413.53 349.787 423.072 350.003 432.307 350.218C448.896 350.593 466.042 350.984 480.192 354.934C502.406 361.135 506.726 373.169 507.322 379.792C508.032 387.908 504.307 394.036 495.898 398.537C495.61 398.689 495.322 398.848 494.995 399H487.392C488.813 398.346 490.138 397.707 491.347 397.069C498.893 393.031 502.234 387.405 501.562 379.88C501.005 373.711 497.088 362.531 476.986 356.921C464.16 353.338 448.531 352.987 431.981 352.604C422.515 352.389 412.723 352.165 403.411 351.288C371.462 348.263 345.466 336.772 340.186 323.326C335.424 311.188 346.867 298.763 356.083 288.772L383.635 258.903C387.936 254.227 392.832 248.928 391.277 243.717C388.205 233.431 361.478 227.047 337.498 224.509C283.457 218.78 226.729 223.458 172.45 229.596L168.875 230.003L165.307 230.414C164.713 230.482 164.12 230.551 163.526 230.62L159.97 231.035C158.786 231.174 157.604 231.313 156.422 231.452C126.835 234.939 100.397 238.315 76.5504 244.387C70.6368 245.888 64.8 247.587 59.1552 249.231C47.9424 252.503 36.3456 255.879 23.2512 258.001C16.224 259.143 8.1408 259.853 0 259.925V257.539C7.3728 257.467 14.7648 256.812 21.1584 255.775C33.6 253.756 44.9088 250.46 55.8528 247.276C61.5744 245.608 67.4688 243.885 73.536 242.345C97.9968 236.128 125.952 232.553 154.848 229.146C159.035 228.652 163.239 228.162 167.46 227.679L171.081 227.267C226.063 221.053 283.62 216.327 338.918 222.187ZM896.544 329.486C905.299 331.122 911.808 335.144 913.498 339.988C914.799 343.717 913.498 347.483 911.924 351.161L911.489 352.162C911.416 352.328 911.343 352.494 911.27 352.66L911.194 352.828C904.57 367.83 899.021 384.74 913.248 399H911.194C897.139 384.604 902.688 367.702 909.293 352.684L909.37 352.516C911.174 348.431 913.037 344.209 911.597 340.108C910.349 336.517 905.53 332.032 895.757 330.22C882.95 327.834 868.339 330.891 855.456 333.596L854.093 333.883C803.002 344.56 743.174 347.162 690.374 349.46C668.736 350.402 644.659 352.022 632.832 359.363C625.443 363.944 624.656 369.702 624.334 375.38L624.29 376.21C624.283 376.348 624.276 376.486 624.269 376.624L624.23 377.622C623.827 384.756 622.483 391.914 620.179 399H618.24C620.544 391.906 621.907 384.74 622.31 377.606L622.349 376.608C622.371 376.196 622.392 375.783 622.416 375.369L622.468 374.541C622.842 369.019 623.9 363.463 631.238 358.916C643.526 351.288 668.102 349.628 690.182 348.67C742.81 346.38 802.464 343.786 853.229 333.165L854.592 332.878C867.859 330.101 882.893 326.949 896.544 329.486ZM864.499 359.371C867.014 361.023 867.302 363.058 867.264 364.638C867.187 368.189 865.018 371.708 862.714 375.435L862.304 376.098C857.877 383.289 853.774 390.716 865.248 399H863.04C852.218 390.889 855.747 383.616 860.019 376.592L860.434 375.913C860.573 375.687 860.712 375.461 860.851 375.236C863.117 371.557 865.267 368.085 865.344 364.63C865.382 363.154 865.133 361.279 862.886 359.794C858.49 356.905 848.698 356.299 832.934 357.927C794.746 361.877 755.443 364.167 716.102 364.726C699.533 364.957 680.755 365.229 669.523 370.24C659.309 374.797 658.886 381.939 659.674 387.66L659.885 389.161C660.365 392.44 660.864 395.784 660.038 399H658.08C658.925 395.816 658.445 392.48 657.965 389.209L657.754 387.708C656.947 381.827 657.408 374.469 668.122 369.689C679.91 364.439 699.091 364.167 716.045 363.928C755.232 363.369 794.419 361.095 832.474 357.153C838.598 356.514 857.242 354.591 864.499 359.371ZM361.306 210.967C387.994 214.024 406.368 218.133 419.117 223.911C429.427 228.579 451.814 242.185 436.838 267.498C432.499 274.807 426.01 281.957 419.712 288.884C413.242 295.986 406.56 303.336 402.278 310.829C400.109 314.604 398.458 318.953 402.47 322.615C405.12 325.017 410.15 327.116 417.869 329.039C430.927 332.294 446.118 333.894 460.992 335.341L464.064 335.639C481.19 337.299 498.912 339.014 513.715 343.124C535.027 349.037 549.485 359.914 553.363 372.961C555.955 381.667 554.035 390.414 551.002 399H549.062C552.096 390.429 554.035 381.707 551.462 373.057C547.642 360.241 533.491 349.572 512.64 343.786C498.144 339.764 480.595 338.065 463.642 336.421C447.648 334.873 431.098 333.269 416.89 329.726C408.826 327.715 403.526 325.496 400.723 322.951C396.461 319.064 398.17 314.548 400.416 310.645C404.736 303.104 411.437 295.731 417.907 288.597C424.186 281.702 430.675 274.568 434.957 267.306C449.722 242.369 427.795 229.026 417.696 224.445C405.216 218.788 387.13 214.75 360.787 211.741C284.544 203.011 197.203 206.666 85.9392 223.233L79.2 224.246L77.6017 224.485L74.3983 224.965C50.3392 228.556 25.524 232.033 0 232.018V231.22C25.8152 231.243 50.9603 227.624 75.3678 223.972L78.5472 223.496L85.3056 222.482C196.954 205.86 284.659 202.197 361.306 210.967ZM1372.74 141.302C1381.82 141.876 1389.83 143.816 1397.57 145.691C1401.98 146.76 1406.53 147.861 1411.24 148.699C1420.22 150.295 1430.21 150.918 1440 150.591V151.389C1429.94 151.716 1419.71 151.077 1410.49 149.433C1405.67 148.58 1401.06 147.462 1396.61 146.377C1388.68 144.454 1381.17 142.642 1372.45 142.092C1350.53 140.703 1331.46 147.837 1317.29 154.206C1295.75 163.821 1275.53 174.283 1257.24 185.304C1248.69 190.443 1239.28 196.484 1235.54 203.163C1234.64 204.775 1233.98 206.538 1233.5 208.701C1233.2 210.073 1232.99 211.478 1232.77 212.843C1232.52 214.462 1232.28 216.138 1231.85 217.782C1227.28 235.865 1201.42 253.557 1162.66 265.112C1158.82 266.253 1154.84 267.338 1150.85 268.335C1148.87 268.822 1146.85 269.309 1144.82 269.804C1144.3 269.93 1143.77 270.056 1143.25 270.182L1141.67 270.562L1140.1 270.945L1138.53 271.331C1127.32 274.116 1116.76 277.253 1112.1 282.205C1106.65 287.974 1111.16 293.816 1115.96 300C1118.73 303.583 1121.61 307.294 1122.39 311.013C1123.2 314.835 1121.78 318.697 1120.11 322.304C1119.72 323.126 1119.32 323.956 1118.92 324.778C1117.96 326.773 1116.96 328.832 1116.25 330.859C1114.64 335.455 1114.5 340.219 1115.87 345.039C1120.4 360.999 1140.88 375.786 1170.68 384.596C1187.96 389.727 1206.87 394.467 1228.15 399H1223.96C1203.94 394.667 1186.02 390.134 1169.57 385.25C1139.33 376.313 1118.55 361.31 1113.96 345.127C1112.58 340.243 1112.72 335.407 1114.35 330.747C1115.06 328.696 1116.06 326.629 1117.04 324.618C1117.44 323.796 1117.84 322.975 1118.23 322.153C1120.13 318.051 1121.22 314.596 1120.47 311.084C1119.71 307.453 1116.86 303.783 1114.14 300.24C1109.45 294.199 1104.61 287.942 1110.3 281.909C1115.76 276.134 1128.61 272.79 1141.49 269.679L1143.07 269.299C1143.33 269.236 1143.6 269.173 1143.86 269.11C1145.88 268.623 1147.89 268.136 1149.87 267.649C1153.82 266.668 1157.74 265.59 1161.54 264.465C1199.85 253.038 1225.42 235.562 1229.95 217.702C1230.36 216.074 1230.62 214.407 1230.85 212.787C1231.07 211.422 1231.28 210.01 1231.6 208.621C1232.08 206.427 1232.76 204.631 1233.68 202.979C1237.48 196.172 1247.02 190.052 1255.66 184.849C1274.02 173.796 1294.27 163.311 1315.89 153.663C1330.37 147.151 1349.95 139.857 1372.74 141.302ZM275.405 330.635C279.475 333.732 279.706 337.307 279.936 340.77C280.07 343.028 280.224 345.358 281.434 347.529C284.813 353.586 296.006 358.805 316.704 363.968C329.894 367.264 343.891 370.057 358.33 372.291L362.131 372.865C378.106 375.299 396.23 378.06 403.488 384.604C407.77 388.482 407.405 393.414 402.509 397.795C402.048 398.202 401.568 398.601 401.03 399H398.822C399.552 398.489 400.186 397.979 400.762 397.46C405.427 393.286 405.792 388.602 401.741 384.939C394.829 378.691 377.875 376.113 361.459 373.616L357.658 373.033C343.123 370.791 329.011 367.974 315.706 364.654C294.547 359.371 283.066 353.985 279.571 347.713C278.304 345.462 278.15 343.084 278.016 340.794C277.786 337.267 277.574 333.939 273.715 331.01C265.92 325.065 246.144 323.789 231.494 325.608C218.842 327.172 207.84 330.524 197.203 333.763C194.746 334.506 192.288 335.256 189.811 335.974C161.856 344.177 128.371 350.601 84.4224 356.179C58.752 359.443 29.4144 362.436 0 361.494V360.688C29.1456 361.638 58.3104 358.653 83.8464 355.413C127.603 349.859 160.915 343.475 188.717 335.328C191.174 334.601 193.613 333.859 196.07 333.117C206.842 329.837 217.978 326.446 230.938 324.842C246.317 322.935 267.11 324.315 275.405 330.635ZM819.456 378.579C821.146 379.297 821.568 380.319 821.76 381.133C822.528 384.5 820.55 387.924 818.65 391.243C817.094 393.925 815.616 396.51 815.52 399H813.619C813.715 396.375 815.27 393.685 816.787 391.052C818.65 387.804 820.589 384.436 819.859 381.213C819.686 380.526 819.36 379.672 818.093 379.138C816 378.244 812.314 378.475 809.05 378.755C792.979 380.151 776.544 380.845 760.109 380.79C757.786 380.782 755.443 380.766 753.082 380.742C740.506 380.638 727.507 380.526 716.045 382.561C709.382 383.742 704.736 385.53 702.97 387.581C701.894 388.841 701.818 390.23 701.741 391.571L701.318 399H699.398L699.821 391.555C699.898 390.214 699.974 388.698 701.165 387.317C703.123 385.051 708.134 383.104 715.277 381.827C726.423 379.855 738.756 379.835 750.794 379.925L753.12 379.944C755.462 379.968 757.805 379.984 760.128 379.992C776.41 380.032 792.73 379.353 808.646 377.981C811.373 377.741 816.461 377.302 819.456 378.579ZM1388.43 156.224C1396.19 156.671 1403.06 158.211 1409.72 159.704C1413.52 160.55 1417.46 161.435 1421.49 162.09C1427.4 163.055 1433.68 163.566 1440 163.622V164.42C1433.45 164.364 1426.91 163.837 1420.78 162.832C1416.63 162.154 1412.66 161.268 1408.82 160.406C1402 158.882 1395.57 157.445 1388.16 157.014C1369.69 155.945 1353.12 161.723 1340.77 166.878C1321.48 174.938 1303.72 183.724 1288.01 192.972C1280.66 197.313 1272.5 202.421 1268.97 208.19C1268.14 209.571 1267.49 211.071 1266.97 212.906C1266.62 214.135 1266.36 215.388 1266.09 216.601C1265.82 217.934 1265.51 219.314 1265.11 220.663C1260.5 236.056 1239.21 251.45 1208.14 261.84C1205.05 262.877 1201.84 263.859 1198.64 264.768C1196.97 265.247 1195.22 265.726 1193.49 266.205L1192.75 266.408L1191.26 266.817L1189.77 267.228C1180.36 269.847 1171.28 272.721 1167.11 277.121C1162.74 281.709 1165.18 286.311 1168.22 291.146L1168.67 291.856C1168.75 291.974 1168.82 292.093 1168.9 292.212C1170.84 295.236 1172.81 298.372 1173.2 301.516C1173.58 304.82 1172.16 308.06 1170.7 311.108L1169.91 312.688C1168.99 314.556 1168.03 316.495 1167.36 318.402C1166.02 322.288 1165.9 326.358 1167.01 330.5C1170.76 344.497 1187.27 356.897 1212.35 364.526C1229.74 369.865 1249.65 374.597 1275.01 379.433C1318.73 387.756 1368.08 394.324 1422.12 399H1412.97C1362.2 394.372 1315.7 388.059 1274.21 380.159C1248.73 375.299 1228.7 370.543 1211.21 365.173C1185.72 357.408 1168.92 344.8 1165.11 330.587C1163.98 326.382 1164.1 322.24 1165.46 318.29C1166.13 316.359 1167.11 314.412 1168.03 312.521L1168.82 310.949C1170.26 307.956 1171.64 304.764 1171.28 301.556C1170.91 298.492 1168.95 295.404 1167.05 292.419C1166.83 292.07 1166.61 291.72 1166.39 291.369L1165.95 290.666C1163.13 286.093 1160.97 281.41 1165.32 276.826C1170.26 271.607 1181.53 268.527 1192.42 265.534C1194.16 265.064 1195.89 264.593 1197.56 264.114C1200.73 263.212 1203.88 262.239 1206.95 261.217C1237.61 250.955 1258.66 235.753 1263.21 220.567C1263.61 219.227 1263.9 217.854 1264.19 216.529C1264.44 215.316 1264.7 214.056 1265.07 212.819C1265.61 210.943 1266.24 209.411 1267.12 207.999C1270.73 202.093 1278.99 196.907 1286.44 192.518C1302.22 183.221 1320.04 174.411 1339.41 166.311C1352.08 161.028 1369.09 155.099 1388.43 156.224ZM768.346 394.156C771.898 395.465 774.067 397.212 775.622 399H773.568C772.128 397.412 770.131 395.888 767.059 394.755C764.064 393.645 759.514 393.119 755.52 393.406C753.466 393.558 750.682 393.989 749.107 395.194C747.706 396.255 747.706 397.548 747.898 398.681L747.955 399H746.035L745.978 398.737C745.786 397.492 745.786 396.047 747.418 394.81C748.934 393.653 751.699 392.871 755.194 392.624C759.763 392.289 764.909 392.895 768.346 394.156ZM1357.04 126.379C1367.46 127.074 1376.58 129.412 1385.41 131.678C1390.43 132.963 1395.63 134.295 1400.99 135.309C1413.14 137.599 1426.87 138.261 1440 137.384V138.198C1426.58 139.067 1412.58 138.373 1400.2 136.035C1394.73 134.998 1389.47 133.657 1384.4 132.356L1383.47 132.118L1381.6 131.643C1373.8 129.664 1365.7 127.768 1356.75 127.169C1344.54 126.347 1324.74 126.954 1293.79 141.541C1269.64 152.929 1246.98 165.074 1226.46 177.635C1216.3 183.851 1206.07 190.554 1202.11 198.127C1200.23 201.718 1199.83 205.469 1199.44 209.1C1199.23 210.999 1199.02 212.97 1198.6 214.909C1193.59 237.932 1156.97 259.765 1103.06 271.895C1100.79 272.405 1098.47 272.908 1096.15 273.419C1095.58 273.541 1095.02 273.664 1094.45 273.787L1092.76 274.157C1077.77 277.438 1062.99 281.01 1057.09 287.28C1050.85 293.903 1056.77 300.647 1063.01 307.789C1066.64 311.93 1070.38 316.215 1071.61 320.517C1073.15 325.983 1070.52 331.481 1067.96 336.796C1066.94 338.935 1065.89 341.145 1065.12 343.316C1057.96 363.617 1076.58 384.971 1112.29 399H1109.49C1074.32 384.78 1056.06 363.473 1063.22 343.204C1063.99 341.009 1065.06 338.791 1066.08 336.636C1068.61 331.385 1071.21 325.951 1069.69 320.612C1068.5 316.407 1064.79 312.162 1061.2 308.06C1055.12 301.093 1048.82 293.895 1055.29 286.993C1061.21 280.697 1075.45 277.076 1090.15 273.823L1091.85 273.449C1092.98 273.201 1094.11 272.955 1095.24 272.708C1097.57 272.206 1099.89 271.695 1102.16 271.192C1155.49 259.19 1191.72 237.597 1196.7 214.838C1197.1 212.922 1197.31 210.959 1197.52 209.06C1197.93 205.397 1198.33 201.615 1200.23 197.96C1204.26 190.243 1214.61 183.468 1224.86 177.188C1245.45 164.595 1268.16 152.426 1292.35 141.015C1323.94 126.124 1344.4 125.533 1357.04 126.379ZM949.958 301.604C950.746 303.312 949.939 305.02 949.152 306.671C948.634 307.749 948.115 308.858 948.038 309.935C947.866 313.191 951.61 316.056 955.584 319.088C958.157 321.051 960.826 323.078 962.323 325.241C965.954 330.409 962.783 335.683 958.602 340.849L957.984 341.604C957.672 341.981 957.356 342.357 957.039 342.733L956.402 343.484C956.296 343.609 956.189 343.733 956.083 343.858C955.181 344.928 954.298 345.981 953.453 347.034C940.032 363.784 941.549 382.545 956.986 399H954.912C939.59 382.441 938.15 363.601 951.629 346.779C952.474 345.726 953.376 344.664 954.278 343.595C959.366 337.594 964.646 331.393 960.48 325.464C959.04 323.389 956.429 321.394 953.894 319.463C949.978 316.479 945.926 313.383 946.118 309.919C946.195 308.77 946.733 307.621 947.27 306.52C948.058 304.868 948.806 303.312 948.077 301.756C946.118 297.59 933.696 295.46 923.789 296.17C914.074 296.856 905.722 299.41 897.638 301.867L896.045 302.354C844.358 318.043 783.571 328.417 720.25 332.335C713.242 332.774 706.061 333.133 699.11 333.492C678.662 334.53 657.523 335.599 637.997 338.599C625.882 340.467 604.435 344.856 597.062 353.283C593.317 357.553 593.708 362.225 594.587 366.82L594.775 367.769L594.97 368.716C595.162 369.705 595.373 370.695 595.526 371.668C597.082 380.798 595.296 390.054 590.342 399H588.365C593.357 390.078 595.162 380.83 593.626 371.724C593.453 370.751 593.261 369.769 593.05 368.788L592.855 367.825C591.857 362.844 591.109 357.734 595.258 353.011C602.899 344.281 624.902 339.764 637.344 337.857C657.062 334.817 678.317 333.74 698.88 332.694C705.811 332.343 712.973 331.984 719.962 331.545C782.976 327.643 843.475 317.325 894.912 301.708L896.506 301.221C904.762 298.707 913.306 296.106 923.482 295.38C934.464 294.606 947.75 296.912 949.958 301.604ZM470.918 0L440.986 27.7066C437.472 30.9385 433.517 34.6093 433.69 38.288C433.882 42.8606 440.006 46.8266 446.496 51.0161C449.107 52.6999 451.795 54.4396 454.061 56.2191C460.205 61.047 463.296 66.3218 465.312 70.3836C472.704 85.378 472.954 101.258 465.984 116.293C465.312 117.737 464.582 119.181 463.853 120.626C461.242 125.725 458.573 131 459.072 136.195C459.437 139.826 461.357 143.504 463.238 147.055C465.158 150.702 467.136 154.469 467.52 158.307C467.654 159.616 467.597 160.949 467.539 162.233C467.424 165.505 467.29 168.601 469.939 171.426C474.106 175.863 483.917 178.584 494.285 181.473C502.368 183.716 510.72 186.038 516.634 189.294C520.301 191.305 522.874 193.587 525.35 195.797C528.48 198.582 531.437 201.208 536.314 203.219C546.01 207.225 561.101 207.943 575.731 208.326C610.829 209.26 646.426 209.619 681.542 209.387C702.259 209.26 722.342 208.869 740.333 205.589C744.998 204.735 749.606 203.658 754.061 202.628C761.203 200.968 768.576 199.253 776.717 198.287C796.166 195.989 817.114 198.351 833.952 200.242C877.69 205.166 922.061 211.31 941.894 227.238C948.211 232.314 951.456 238.107 954.605 243.701C959.616 252.591 964.339 260.986 980.294 266.221C984.634 267.641 989.818 268.798 994.829 269.915C1004.2 272.006 1013.89 274.169 1019.19 278.199C1025.24 282.795 1023.32 287.99 1021.44 293.01C1020.63 295.212 1019.79 297.486 1019.65 299.633C1019.4 304.174 1022.32 308.531 1025.43 313.135C1027.53 316.263 1029.7 319.495 1030.77 322.791C1033.69 331.697 1028.47 340.546 1023.42 349.093C1019.52 355.724 1015.47 362.579 1015.32 369.37C1015.07 380.255 1025.22 390.972 1042.69 399H1035.11C1018.71 390.733 1009.31 380.111 1009.56 369.346C1009.71 362.284 1013.84 355.286 1017.83 348.526C1022.98 339.804 1027.83 331.569 1025.07 323.11C1024.05 319.982 1021.92 316.83 1019.88 313.782C1016.81 309.209 1013.63 304.477 1013.89 299.577C1014.03 297.271 1014.91 294.917 1015.76 292.643C1017.56 287.807 1019.25 283.234 1014.14 279.348C1009.65 275.94 1001.13 274.041 992.102 272.022C986.88 270.857 981.446 269.652 976.742 268.096C960.875 262.899 955.125 254.897 950.469 246.84L949.973 245.977C949.646 245.401 949.322 244.826 948.998 244.252C945.926 238.793 942.758 233.152 936.768 228.34C919.323 214.328 880.854 208.212 841.362 203.58L838.813 203.283C837.112 203.086 835.411 202.892 833.711 202.7L832.435 202.556C816.288 200.737 796.205 198.479 778.31 200.593C770.803 201.479 764.045 203.051 756.883 204.719C752.294 205.78 747.571 206.881 742.637 207.775C724.548 211.081 704.849 211.602 684.543 211.761L681.638 211.781C646.368 212.013 610.598 211.654 575.366 210.72C559.642 210.297 543.36 209.507 532.262 204.918C526.656 202.604 523.354 199.66 520.147 196.811C517.67 194.616 515.347 192.549 512.045 190.738C506.707 187.801 498.758 185.599 491.098 183.46C480.422 180.5 469.402 177.427 464.582 172.296C461.51 169.032 461.664 165.553 461.779 162.193C461.837 160.941 461.894 159.648 461.76 158.403C461.395 154.78 459.475 151.109 457.613 147.566C455.693 143.911 453.696 140.137 453.312 136.29C452.774 130.8 455.539 125.374 458.208 120.131C458.938 118.702 459.667 117.266 460.339 115.838C467.155 101.107 466.925 85.5536 459.667 70.8624C457.728 66.9602 454.771 61.9009 448.973 57.3363C446.803 55.6525 444.192 53.9528 441.658 52.3089C435.014 48.0236 428.16 43.5868 427.93 38.3359C427.738 34.1145 431.981 30.1883 435.725 26.725L464.602 0H470.918ZM208.378 372.81C213.006 374.382 215.586 376.626 217.936 378.863L218.573 379.473C220.243 381.077 221.971 382.729 224.371 384.133C229.604 387.179 237.914 389.009 246.164 390.706L247.93 391.068C249.274 391.339 250.598 391.611 251.904 391.89C256.032 392.752 260.678 393.829 263.309 395.624C264.864 396.678 265.574 397.875 265.978 399H264.038C263.654 397.995 263.002 396.941 261.677 396.039C259.296 394.427 254.938 393.414 251.04 392.6C249.734 392.329 248.41 392.057 247.085 391.786C238.042 389.935 228.691 388.027 222.816 384.596C220.282 383.12 218.515 381.428 216.806 379.784C214.253 377.334 211.853 375.02 207.168 373.432C201.677 371.573 193.152 370.982 184.378 371.86C177.619 372.53 171.283 373.911 165.158 375.244C164.064 375.483 162.989 375.714 161.914 375.946C111.072 386.799 53.3184 389.855 0 391.754V390.956C53.1072 389.057 110.554 386.009 161.03 375.236C162.106 375.004 163.181 374.773 164.256 374.533C170.496 373.185 176.947 371.78 183.936 371.086C193.421 370.136 202.33 370.767 208.378 372.81ZM298.176 238.323C324.691 240.094 340.109 247.436 343.642 253.932C347.251 260.563 340.992 267.162 334.944 273.546L334.003 274.544C314.554 295.18 308.736 312.696 316.224 328.082C327.187 350.593 365.798 363.513 399.206 366.338C402.355 366.609 405.638 366.809 408.826 367C416.41 367.471 424.243 367.958 431.309 369.362C447.533 372.61 457.709 380.822 456.038 389.336C455.405 392.536 453.254 395.776 449.683 399H447.571C450.95 396.039 453.427 392.768 454.118 389.272C455.731 381.077 446.016 373.185 430.464 370.08C423.686 368.724 415.987 368.253 408.538 367.79C405.331 367.599 402.029 367.391 398.822 367.12C378.067 365.364 358.944 360.512 343.488 353.083C329.146 346.18 318.797 337.362 314.342 328.241C306.778 312.696 312.614 295.037 332.218 274.249L333.158 273.251C333.53 272.859 333.903 272.466 334.274 272.073L335.013 271.285C340.282 265.63 344.875 259.833 341.779 254.107C338.381 247.875 323.501 240.82 297.869 239.105C283.699 238.163 269.184 239.24 255.149 240.294C250.387 240.645 245.491 241.012 240.672 241.291C220.224 242.488 199.776 244.356 179.885 246.861C139.757 251.913 102.125 259.438 68.0064 269.229C66.2784 269.716 64.5696 270.219 62.8416 270.721L60.6151 271.37C49.4543 274.615 37.842 277.841 24.576 279.3C16.5504 280.186 8.3712 280.377 0 280.449V279.651C8.2176 279.579 16.2624 279.388 24.096 278.534C37.92 277.01 50.0352 273.483 61.7472 270.067C63.4752 269.564 65.184 269.062 66.912 268.567C101.203 258.736 139.008 251.178 179.328 246.103C199.315 243.582 219.859 241.698 240.403 240.501C245.184 240.222 250.08 239.863 254.803 239.504C268.992 238.442 283.68 237.349 298.176 238.323ZM1404.12 171.147C1410.53 171.466 1416.29 172.607 1421.86 173.709C1425.04 174.347 1428.35 175.001 1431.71 175.48C1434.39 175.871 1437.18 176.151 1440 176.318V177.124C1436.97 176.949 1433.97 176.653 1431.09 176.238C1427.62 175.736 1424.28 175.073 1421.03 174.435C1415.35 173.31 1409.99 172.248 1403.88 171.937C1388.62 171.163 1374.7 175.6 1364.26 179.55C1347.48 185.886 1332.17 192.988 1318.79 200.641C1312.17 204.432 1305.6 208.581 1302.41 213.226C1301.63 214.383 1300.99 215.62 1300.42 217.12C1300.01 218.213 1299.69 219.306 1299.36 220.408C1299.05 221.453 1298.75 222.498 1298.36 223.544C1293.64 236.447 1277.34 249.207 1253.64 258.552C1251.26 259.494 1248.84 260.387 1246.46 261.201C1245.04 261.68 1243.6 262.159 1242.14 262.638C1234.21 265.247 1226.02 267.952 1222.12 272.038C1218.22 276.116 1219.99 280.162 1221.85 284.439C1222.92 286.905 1224.04 289.459 1223.98 292.028C1223.92 294.574 1222.73 297.103 1221.29 299.912L1221.04 300.391C1220.1 302.211 1219.12 304.094 1218.49 305.945C1217.41 309.113 1217.3 312.481 1218.16 315.968C1221.04 327.723 1234.12 338.105 1254.01 344.465C1267.8 348.862 1284.58 352.772 1306.81 356.762C1346.5 363.864 1391.19 369.354 1440 373.097V373.911C1390.92 370.152 1345.96 364.638 1306.06 357.488C1283.65 353.474 1266.74 349.54 1252.84 345.095C1232.52 338.607 1219.18 328.018 1216.24 316.048C1215.38 312.505 1215.49 309.065 1216.59 305.833C1217.24 303.95 1218.22 302.059 1219.16 300.224L1219.41 299.745C1220.83 296.984 1222 294.494 1222.06 292.02C1222.12 289.522 1221.02 287.009 1219.95 284.583L1219.63 283.839C1217.92 279.867 1216.47 275.784 1220.33 271.743C1224.42 267.458 1232.83 264.689 1240.95 262.015C1242.41 261.537 1243.83 261.066 1245.24 260.587C1247.6 259.781 1249.98 258.903 1252.34 257.977C1275.72 248.753 1291.8 236.16 1296.46 223.424C1296.84 222.387 1297.15 221.349 1297.46 220.312C1297.79 219.203 1298.11 218.101 1298.53 217C1299.11 215.46 1299.74 214.191 1300.57 213.01C1303.83 208.246 1310.52 204.025 1317.24 200.178C1330.69 192.47 1346.09 185.335 1362.95 178.959C1373.7 174.898 1388.12 170.333 1404.12 171.147ZM133.69 273.562C172.109 266.851 252.058 252.894 281.549 259.629C287.674 261.026 291.398 263.252 292.608 266.245C298.406 280.489 256.262 298.053 243.206 303.096C216.902 313.255 185.376 320.884 152.659 328.441C113.107 337.586 68.2752 347.944 19.4496 348.63C18.0288 348.654 16.608 348.662 15.2256 348.662C9.7344 348.662 4.6656 348.503 0 348.175V347.369C5.7984 347.784 12.2496 347.936 19.392 347.832C67.7568 347.154 112.378 336.844 151.738 327.747C184.339 320.213 215.75 312.616 241.901 302.514C254.784 297.534 296.352 280.234 290.707 266.38C289.594 263.643 286.195 261.608 280.627 260.332C251.962 253.78 172.57 267.641 134.438 274.297C126.336 275.709 119.962 276.826 116.198 277.377C77.6064 283.003 34.2336 289.323 0 300.638V299.617C34.2912 288.469 77.2608 282.197 115.565 276.619C119.27 276.084 125.626 274.967 133.69 273.562ZM1419.8 186.062C1424.85 186.261 1429.46 187.003 1433.91 187.714C1435.91 188.033 1437.95 188.36 1440 188.631V189.469C1437.7 189.174 1435.43 188.807 1433.22 188.464C1428.88 187.761 1424.39 187.051 1419.61 186.86C1407.59 186.389 1396.74 189.31 1387.7 192.23C1373.53 196.803 1360.7 202.221 1349.55 208.318C1344.79 210.935 1338.91 214.431 1335.84 218.269C1335.09 219.187 1334.48 220.16 1333.88 221.349C1333.38 222.331 1332.96 223.312 1332.54 224.302C1332.25 225.012 1331.94 225.722 1331.62 226.432C1326.85 236.655 1315.03 247.157 1299.19 255.256C1297.56 256.094 1295.9 256.884 1294.31 257.61C1293.16 258.129 1291.99 258.648 1290.8 259.166C1285.57 261.433 1280.18 263.787 1277.13 266.955C1273.98 270.203 1274.36 273.355 1274.76 276.683C1275 278.59 1275.24 280.561 1274.76 282.548C1274.32 284.367 1273.32 286.147 1272.25 288.03L1271.87 288.716C1271.02 290.233 1270.16 291.861 1269.62 293.488C1268.81 295.93 1268.7 298.604 1269.31 301.436C1271.37 311.148 1280.72 319.304 1295.67 324.395C1309 328.936 1324.86 331.84 1338.62 334.083C1369.42 339.102 1403.42 343.028 1440 345.781V346.595C1403.17 343.826 1368.92 339.876 1337.91 334.825C1324.01 332.559 1307.98 329.622 1294.46 325.009C1279.1 319.783 1269.5 311.435 1267.39 301.508C1266.78 298.62 1266.89 295.882 1267.72 293.377C1268.28 291.717 1269.14 290.073 1270 288.533L1270.39 287.847C1271.44 285.987 1272.44 284.232 1272.86 282.468C1273.31 280.537 1273.08 278.598 1272.84 276.722C1272.46 273.451 1272.04 270.067 1275.34 266.66C1278.53 263.348 1284.06 260.938 1289.41 258.616C1290.59 258.097 1291.76 257.586 1292.89 257.076C1294.46 256.357 1296.08 255.575 1297.69 254.754C1313.34 246.75 1325.03 236.376 1329.72 226.281C1330.06 225.579 1330.35 224.868 1330.66 224.166C1331.08 223.169 1331.5 222.171 1332 221.182C1332.61 219.969 1333.25 218.963 1334.02 218.022C1337.16 214.063 1343.16 210.496 1348.03 207.831C1359.26 201.679 1372.22 196.22 1386.53 191.6C1395.86 188.583 1407.09 185.559 1419.8 186.062ZM89.3184 294.51C99.8208 292.93 116.064 292.651 126.95 295.779C133.613 297.694 137.203 300.623 137.299 304.245C137.434 308.674 131.194 313.063 118.234 317.652C100.339 323.996 79.008 328.888 54.7968 332.207C41.7216 334.003 30.4512 334.881 20.3136 334.881C15.6864 334.881 11.2704 334.697 7.0464 334.33C4.9152 334.155 2.208 333.851 0 333.221V332.191C2.016 333.005 5.1072 333.349 7.4304 333.556C20.6208 334.681 35.4816 334.011 54.2016 331.449C78.1632 328.162 99.2832 323.318 116.986 317.045C129.485 312.616 135.494 308.435 135.379 304.253C135.283 300.854 132.077 298.221 125.856 296.433C117.005 293.887 102.259 293.409 89.9904 295.26L84.96 296.018C84.4749 296.091 83.9894 296.164 83.5036 296.237L80.5856 296.676C60.14 299.762 39.36 303.104 22.6944 309.025C11.5392 312.992 3.6864 317.803 0 322.791V320.429C4.2624 316.064 11.5968 311.914 21.4464 308.419C30.5088 305.203 40.7232 302.737 51.4176 300.67C62.1312 298.596 73.3056 296.92 84.3072 295.268L89.3184 294.51ZM787.411 220.894C795.13 220.168 803.059 220.328 810.739 220.479C825.062 220.767 839.866 221.054 853.517 223.368C888.25 229.233 902.822 246.422 901.69 259.901C901.248 265.072 899.098 269.357 895.104 272.996C890.534 277.177 882.97 281.096 871.277 285.317C831.341 299.769 777.523 306.384 730.195 311.451C673.133 317.556 613.478 322.791 553.901 322.791C525.178 322.791 496.454 321.578 468.077 318.649C461.184 317.939 453.37 317.005 447.61 314.875C440.64 312.281 436.973 307.892 437.818 303.136C438.586 298.875 442.406 294.893 446.112 291.039L470.803 265.327C477.658 258.185 484.762 250.795 496.55 244.619C509.299 237.948 528.019 232.617 550.733 229.194C582.835 224.358 610.79 224.206 647.174 228.667C686.573 233.495 727.584 232.282 762.643 225.267C764.352 224.924 766.061 224.565 767.789 224.206C774.01 222.897 780.461 221.549 787.411 220.894ZM810.643 221.277C803.098 221.126 795.283 220.974 787.834 221.676C781.114 222.307 774.778 223.632 768.653 224.916C766.925 225.283 765.197 225.642 763.469 225.986C727.987 233.088 686.496 234.309 646.618 229.433C629.299 227.31 613.92 226.241 599.078 226.241C583.123 226.241 567.802 227.47 551.386 229.944C529.018 233.311 510.566 238.562 498.048 245.114C486.432 251.194 479.386 258.528 472.57 265.622L447.898 291.334C444.25 295.132 440.486 299.058 439.738 303.192C438.931 307.709 442.349 311.85 448.896 314.276C454.31 316.287 461.568 317.157 468.538 317.875C555.379 326.821 645.389 319.703 729.715 310.677C776.832 305.634 830.4 299.058 870.029 284.718C881.491 280.569 888.902 276.738 893.357 272.669C897.235 269.125 899.347 264.936 899.77 259.877C900.883 246.662 886.675 229.832 852.806 224.102C839.443 221.844 824.813 221.557 810.643 221.277ZM1435.45 200.984C1437 201.016 1438.52 201.096 1440 201.2V202.014C1438.48 201.902 1436.93 201.814 1435.35 201.782C1426.06 201.615 1417.52 203.362 1411.1 204.918C1399.64 207.695 1389.27 211.43 1380.33 215.995C1375.08 218.668 1371.55 220.998 1369.25 223.32C1368.56 224.007 1367.94 224.749 1367.33 225.579C1366.6 226.56 1365.96 227.566 1365.35 228.539L1364.85 229.329C1359.82 237.229 1352.68 245.257 1344.75 251.921C1343.9 252.623 1343.06 253.309 1342.2 253.987C1341.2 254.754 1340.14 255.512 1339.07 256.286C1336.65 258.025 1334.13 259.821 1332.13 261.872C1329.73 264.306 1328.72 266.572 1327.64 268.966C1327.03 270.307 1326.41 271.695 1325.53 273.1C1325.07 273.834 1324.53 274.568 1323.99 275.318C1323.48 276.044 1322.94 276.778 1322.46 277.528C1321.65 278.773 1321.09 279.922 1320.75 281.032C1320.19 282.755 1320.1 284.687 1320.44 286.913C1321.65 294.685 1327.35 300.543 1337.36 304.333C1346.53 307.813 1358.67 309.784 1370.4 311.404C1392.19 314.404 1415.5 316.806 1440 318.57V319.368C1415.29 317.604 1391.77 315.186 1369.79 312.162C1357.86 310.518 1345.52 308.499 1336.07 304.924C1325.66 300.99 1319.77 294.949 1318.54 286.961C1318.18 284.679 1318.27 282.707 1318.85 280.928C1319.21 279.779 1319.79 278.598 1320.6 277.321C1321.09 276.563 1321.61 275.821 1322.15 275.095C1322.69 274.352 1323.21 273.618 1323.67 272.9C1324.53 271.52 1325.15 270.147 1325.76 268.822C1326.8 266.492 1327.89 264.082 1330.35 261.568C1332.4 259.47 1334.96 257.65 1337.4 255.887C1338.47 255.121 1339.53 254.362 1340.51 253.604C1341.37 252.942 1342.2 252.264 1343.02 251.569C1350.91 244.946 1358 236.982 1362.99 229.13L1363.49 228.34C1364.1 227.358 1364.76 226.337 1365.48 225.347C1366.12 224.485 1366.77 223.727 1367.48 223.017C1369.86 220.615 1373.47 218.229 1378.83 215.492C1387.93 210.848 1398.47 207.057 1410.12 204.224C1416.77 202.612 1425.64 200.785 1435.45 200.984ZM767.654 234.851C773.414 234.389 779.405 234.54 784.704 234.676C796.627 234.987 806.477 235.346 815.904 236.966C842.419 241.547 852.288 253.74 850.291 263.795C849.542 267.577 847.642 270.674 844.493 273.259C840.672 276.403 834.605 279.316 825.446 282.428C795.091 292.746 754.714 297.263 715.968 301.014C676.07 304.932 629.971 308.794 583.68 308.794C576.749 308.794 569.837 308.706 562.925 308.523C547.642 308.108 534.086 307.262 521.472 305.921C516.442 305.387 510.701 304.684 506.285 303.08C501.043 301.173 498.182 298.077 498.413 294.582C498.605 291.621 500.755 288.828 503.347 285.732C509.568 278.334 515.059 272.349 520.589 266.907C527.251 260.347 535.046 255.256 544.397 251.33C549.926 249.008 556.531 246.917 563.981 245.13C571.43 243.334 579.744 241.826 588.691 240.669C614.266 237.357 637.114 237.19 665.107 240.11C693.984 243.127 723.917 242.273 749.395 237.716C750.624 237.501 751.853 237.269 753.062 237.038C757.709 236.176 762.509 235.274 767.654 234.851ZM784.589 235.474C779.405 235.338 773.549 235.187 768.019 235.641C763.104 236.04 758.4 236.918 753.85 237.772L750.163 238.45C724.301 243.079 693.926 243.941 664.646 240.884C651.629 239.528 639.744 238.849 628.166 238.849C615.187 238.849 602.592 239.703 589.267 241.435C571.661 243.717 556.627 247.332 545.76 251.897C541.171 253.82 536.966 256.03 533.069 258.576C529.19 261.122 525.638 263.986 522.355 267.218C516.845 272.645 511.373 278.614 505.152 285.995C502.618 289.02 500.506 291.757 500.333 294.598C500.122 297.861 502.752 300.734 507.533 302.482C511.642 303.966 517.133 304.636 521.952 305.147C534.451 306.472 547.891 307.318 563.04 307.725C615.936 309.137 669.811 304.732 715.526 300.232C754.061 296.513 794.189 292.02 824.218 281.814C833.184 278.773 839.078 275.94 842.784 272.9C845.818 270.41 847.642 267.41 848.371 263.731C850.31 253.963 840.787 242.129 815.174 237.7C806.016 236.128 796.32 235.777 784.589 235.474ZM224.947 274.033C235.853 273.778 243.974 275.103 247.238 277.648C250.406 280.106 248.698 283.378 242.419 286.857C230.419 293.52 210.413 297.638 190.598 297.638C189.312 297.638 188.006 297.622 186.72 297.582C184.474 297.518 182.112 297.407 179.962 296.968C174.182 295.787 172.493 292.818 172.781 290.64C173.357 286.394 179.923 282.109 190.31 279.18C195.59 277.696 201.466 276.475 207.418 275.589C213.35 274.704 219.379 274.161 224.947 274.033ZM227.52 274.799C226.714 274.799 225.888 274.815 225.043 274.831C214.253 275.079 201.677 276.946 191.405 279.843C186.451 281.231 182.419 282.947 179.539 284.806C176.678 286.674 174.989 288.684 174.701 290.687C174.432 292.619 175.872 295.244 180.806 296.25C182.65 296.625 184.8 296.728 186.854 296.784C207.264 297.351 228.48 293.265 240.883 286.378C246.682 283.162 248.352 280.194 245.549 278.023C242.88 275.948 236.39 274.799 227.52 274.799ZM747.936 248.816C751.45 248.625 755.04 248.737 758.688 248.872C765.504 249.136 772.147 249.463 778.291 250.564C794.227 253.405 802.31 260.14 798.893 267.713C797.818 270.099 796.224 271.95 793.862 273.538C790.733 275.653 786.202 277.56 779.578 279.547C757.536 286.187 728.314 288.485 702.547 290.504L701.722 290.568C673.306 292.81 643.104 294.829 613.133 294.829C609.389 294.829 605.664 294.797 601.939 294.733C591.072 294.534 582.47 294.047 574.867 293.193C571.603 292.826 567.878 292.315 564.941 291.286C561.523 290.089 559.411 288.23 558.989 286.051C558.605 284.072 559.603 282.125 560.563 280.457C563.194 275.972 566.496 271.95 570.374 268.487C575.002 264.377 582.586 260.762 592.301 258.025C597.005 256.701 602.266 255.552 608.006 254.57C613.747 253.588 619.987 252.774 626.688 252.144C645.466 250.38 663.36 250.197 683.021 251.554C701.203 252.814 720.096 252.32 736.224 250.157C736.934 250.061 737.645 249.965 738.355 249.862C741.427 249.439 744.595 248.992 747.936 248.816ZM758.515 249.67C754.963 249.535 751.507 249.423 748.186 249.606C745.018 249.774 742.08 250.189 738.97 250.62C738.24 250.724 737.53 250.819 736.8 250.915C720.403 253.118 701.184 253.62 682.694 252.344C674.208 251.753 666.048 251.458 658.003 251.458C647.674 251.458 637.517 251.945 627.11 252.926C613.958 254.163 602.611 256.094 593.376 258.688C588.653 260.012 584.448 261.552 580.877 263.252C577.306 264.96 574.349 266.835 572.122 268.822C568.282 272.238 565.018 276.22 562.445 280.641C561.504 282.253 560.544 284.12 560.909 285.987C561.12 287.12 562.099 289.243 566.17 290.679C568.838 291.605 572.314 292.084 575.366 292.427C582.816 293.265 591.302 293.744 602.016 293.935C635.443 294.526 669.523 292.291 701.376 289.786L702.202 289.722C727.757 287.711 756.749 285.437 778.445 278.901C784.858 276.978 789.235 275.142 792.23 273.123C794.458 271.615 795.974 269.852 796.992 267.569C800.237 260.371 792.595 253.987 777.523 251.298C771.629 250.245 765.178 249.926 758.515 249.67ZM1440 216.322V217.128C1438.1 217.248 1436.22 217.407 1434.37 217.615C1420.61 219.171 1408.34 223.632 1400.72 229.848C1394.65 234.796 1391.33 240.725 1390.29 248.505L1390.18 249.295C1389.87 251.817 1389.54 254.426 1387.12 256.796C1385.43 258.456 1382.8 259.925 1380.25 261.337C1377.29 262.973 1374.51 264.513 1373.03 266.348C1371.44 268.32 1371.51 270.482 1371.59 272.397C1371.76 276.73 1372.47 281.223 1379.08 284.295C1384.74 286.929 1393.57 287.926 1402.14 288.724C1414.62 289.889 1427.27 290.855 1440 291.629V292.435C1427.14 291.653 1414.35 290.672 1401.72 289.498C1392.84 288.677 1383.69 287.639 1377.64 284.822C1370.61 281.55 1369.84 276.898 1369.67 272.405C1369.59 270.53 1369.52 268.192 1371.21 266.093C1372.8 264.138 1375.8 262.47 1378.71 260.858C1381.19 259.478 1383.76 258.057 1385.36 256.485C1387.64 254.243 1387.95 251.705 1388.26 249.255L1388.37 248.465C1389.43 240.565 1392.81 234.532 1399.01 229.481C1406.88 223.065 1419.59 218.46 1433.88 216.849C1435.89 216.617 1437.95 216.45 1440 216.322ZM701.357 262.981C713.222 262.534 729.485 261.928 740.698 264.162C745.978 265.215 748.973 266.556 749.606 268.136C750.317 269.876 748.128 271.799 743.117 273.858C730.138 279.204 708.288 279.683 690.739 280.066L687.398 280.138C672.019 280.489 656.41 280.76 640.992 280.944C639.955 280.952 638.918 280.96 637.901 280.96C632.621 280.96 627.648 280.728 623.635 279.507C616.57 277.353 616.147 272.876 620.198 270.035C625.325 266.444 635.078 265.159 640.435 264.713C652.339 263.715 665.338 263.579 677.914 263.444C685.517 263.364 693.37 263.276 700.742 263.005L701.357 262.981ZM718.886 263.356C712.8 263.356 706.733 263.579 701.53 263.779L700.915 263.795C693.485 264.074 685.594 264.162 677.971 264.242C665.472 264.377 652.55 264.513 640.8 265.495C636.518 265.854 632.64 266.484 629.414 267.33C626.189 268.176 623.578 269.229 621.85 270.442C618.24 272.98 618.547 276.97 624.768 278.861C629.069 280.17 634.867 280.21 640.934 280.146C656.333 279.962 671.923 279.691 687.283 279.34L690.643 279.268C707.866 278.893 729.312 278.43 741.773 273.291C746.304 271.424 748.32 269.732 747.725 268.264C747.187 266.955 744.538 265.822 739.853 264.888C733.92 263.699 726.394 263.356 718.886 263.356ZM947.136 171.738C969.408 171.738 990.259 178.09 1008.65 184.984C1028.08 192.262 1054.71 195.155 1081.4 197.513L1084.17 197.756C1086.47 197.956 1088.77 198.154 1091.06 198.351C1099.66 199.093 1107.78 199.787 1115.69 200.617C1129.84 202.093 1147.45 203.929 1158.72 209.084C1164.86 211.893 1168.92 215.596 1170.43 219.785C1174.16 230.063 1161.33 241.315 1137.77 248.449C1119.26 254.043 1094.78 257.347 1062.89 258.552C1058.09 258.736 1052.72 258.879 1047.09 258.879C1031.17 258.879 1013.11 257.714 999.494 252.91C985.237 247.872 979.608 240.271 974.867 232.663L974.323 231.785C974.053 231.346 973.785 230.908 973.517 230.47C972.307 228.499 971.059 226.464 969.696 224.525C964.032 216.434 952.435 205.333 929.338 198.423C927.648 197.92 925.862 197.417 924.077 196.906L922.892 196.572C921.905 196.292 920.918 196.011 919.941 195.727L918.773 195.383C910.641 192.969 903.446 190.267 902.592 186.245C901.843 182.662 907.085 178.848 916.627 176.031C927.014 172.998 937.21 171.738 947.136 171.738ZM1007.37 185.575C981.35 175.831 950.342 167.165 917.722 176.685C908.755 179.335 903.821 182.886 904.512 186.173C905.453 190.682 915.475 193.507 925.152 196.244C926.957 196.755 928.742 197.266 930.451 197.776C954.01 204.823 965.798 216.09 971.539 224.302C972.902 226.257 974.17 228.3 975.36 230.271C975.448 230.415 975.537 230.559 975.625 230.703L976.425 232.001C981.167 239.648 986.639 247.325 1000.74 252.304C1014.34 257.108 1034.02 258.839 1062.72 257.754C1094.25 256.565 1118.44 253.309 1136.64 247.803C1159.62 240.844 1172.14 229.896 1168.53 219.905C1167.07 215.867 1163.17 212.316 1157.3 209.619C1146.41 204.647 1129.11 202.844 1115.23 201.391C1107.34 200.569 1099.24 199.867 1090.66 199.133L1087.88 198.894C1058.7 196.378 1028.84 193.619 1007.37 185.575ZM1014.59 208.047C1018.08 207.6 1021.65 207.711 1025.61 207.887C1036.26 208.35 1046.92 209.156 1057.23 209.93C1066.25 210.608 1075.56 211.31 1084.82 211.781C1087.56 211.917 1090.52 211.989 1093.67 212.068C1102.56 212.276 1112.62 212.523 1119.84 214.51C1130.09 217.343 1134.47 220.783 1132.8 224.733C1129.57 232.37 1103.88 239.647 1087.62 241.299C1080.33 242.041 1072.09 242.728 1063.6 242.728C1060.47 242.728 1057.32 242.64 1054.16 242.416C1041.18 241.499 1028.41 238.347 1018.21 233.543C1008.52 228.962 1002.68 223.584 1001.78 218.397C1001.05 214.287 1004.76 209.299 1014.59 208.047ZM1020.17 208.533C1018.43 208.533 1016.76 208.605 1015.14 208.813C1006.33 209.938 1003.03 214.534 1003.68 218.333C1004.56 223.352 1010.25 228.571 1019.65 233.016C1029.56 237.684 1041.93 240.741 1054.48 241.626C1065.81 242.424 1077.37 241.515 1087.16 240.525C1102.94 238.921 1127.83 231.923 1130.9 224.597C1132.44 220.982 1128.35 217.822 1118.78 215.181C1111.99 213.305 1102.2 213.066 1093.56 212.859C1090.39 212.787 1087.39 212.715 1084.59 212.571C1075.28 212.1 1065.93 211.39 1056.88 210.712C1046.61 209.938 1035.99 209.14 1025.41 208.677C1023.57 208.597 1021.84 208.533 1020.17 208.533ZM415.757 185.184C437.472 181.824 476.909 187.091 492.749 193.587C507.974 199.835 510.605 218.109 497.203 224.629C493.363 226.504 487.219 227.518 480.672 227.518C477.542 227.518 474.317 227.286 471.206 226.8C461.683 225.331 454.598 222.004 450.086 219.634C448.358 218.724 446.669 217.774 445.037 216.864C441.389 214.814 437.626 212.699 433.21 210.911C429.773 209.523 425.856 208.294 422.074 207.113C418.003 205.836 413.798 204.519 410.112 202.979C403.43 200.186 397.402 195.67 400.57 191.384C402.605 188.655 408.269 186.333 415.757 185.184ZM491.405 194.153C475.93 187.809 437.53 182.67 416.429 185.926C409.498 186.995 404.256 189.126 402.413 191.624C399.475 195.566 405.178 199.787 411.475 202.421C415.066 203.913 419.213 205.214 423.226 206.475C427.066 207.679 431.021 208.916 434.554 210.345C439.085 212.172 442.886 214.319 446.573 216.386C448.205 217.295 449.875 218.237 451.584 219.139C455.962 221.437 462.816 224.653 471.878 226.057C480.749 227.43 490.579 226.632 495.744 224.11C508.666 217.822 506.093 200.186 491.405 194.153ZM434.746 0C430.848 5.00346 425.587 9.88722 420.422 14.6832C408.768 25.4881 397.766 35.6945 401.184 46.8665C402.854 52.3328 408.096 57.5597 413.146 62.6111C415.162 64.63 417.254 66.7128 419.098 68.7876C431.29 82.5292 433.978 97.9944 426.662 112.326C425.03 115.518 422.88 118.726 420.806 121.823C417.235 127.169 413.549 132.699 412.416 138.301C411.802 141.43 411.955 144.685 412.109 147.829C412.416 154.309 412.723 161.004 406.291 166.989C396.73 175.863 373.862 182.04 338.362 185.335C318.778 187.155 298.541 188.152 278.957 189.118C266.266 189.748 253.133 190.395 240.326 191.257C208.224 193.427 176.16 197.082 145.152 200.617C99.168 205.86 51.6096 211.286 3.2064 211.917C2.4768 211.925 1.7088 211.933 0.9024 211.933C0.5952 211.933 0.3072 211.933 0 211.925V211.127C1.0944 211.135 2.1504 211.135 3.1488 211.119C51.3216 210.496 98.7648 205.078 144.653 199.851C175.718 196.308 207.821 192.645 240.019 190.467C252.864 189.605 266.016 188.95 278.726 188.328C298.253 187.362 318.451 186.365 337.939 184.561C372.826 181.322 395.232 175.297 404.525 166.662C410.803 160.845 410.477 154.237 410.189 147.845C410.035 144.677 409.882 141.406 410.515 138.23C411.648 132.564 415.373 126.994 418.963 121.607C421.037 118.519 423.168 115.335 424.781 112.159C432.019 97.9784 429.37 82.6728 417.293 69.0589C415.469 67.0001 413.395 64.9253 411.379 62.9223C406.272 57.8151 400.973 52.5403 399.283 46.9703C395.955 36.1175 406.35 25.8148 417.067 15.8485L418.139 14.853C418.318 14.6872 418.497 14.5216 418.675 14.356C423.725 9.66378 428.87 4.88376 432.73 0H434.746ZM396.326 0C393.158 5.4663 389.03 10.8448 382.886 15.9121C379.949 18.3221 376.55 20.6602 373.248 22.9265C369.658 25.4083 365.933 27.9619 362.842 30.6033C347.482 43.7703 347.789 60.0655 363.667 73.1287C365.798 74.8763 368.237 76.616 370.598 78.2998C375.974 82.1302 381.523 86.0882 383.866 90.5012C386.611 95.7041 384.672 101.091 382.771 106.302C382.253 107.746 381.715 109.238 381.293 110.691C379.91 115.391 379.584 120.227 379.296 124.895C378.97 129.874 378.624 135.03 376.992 140.057C374.342 148.268 366.662 159.393 345.158 165.769C329.088 170.525 308.851 171.602 289.267 172.631L287.635 172.719C222.854 176.158 158.285 181.864 95.712 189.685L90.9888 190.275L87.4138 190.724C62.9602 193.79 38.0133 196.779 13.5552 196.779C9.024 196.779 4.4928 196.675 0 196.452V195.646C25.0285 196.913 50.9067 194.347 76.4188 191.254L79.5409 190.873C83.1809 190.426 86.8125 189.971 90.432 189.517L95.1744 188.919C157.824 181.09 222.49 175.368 287.386 171.929L289.018 171.841C290.597 171.758 292.182 171.674 293.768 171.588L296.147 171.458C313.206 170.506 330.296 169.19 344.045 165.114C364.992 158.906 372.48 148.005 375.091 139.953C376.704 134.966 377.05 129.835 377.376 124.871C377.664 120.187 377.99 115.335 379.373 110.595C379.814 109.126 380.352 107.634 380.87 106.182C382.733 101.043 384.672 95.7361 381.984 90.6688C379.718 86.3835 374.227 82.4813 368.928 78.6988C366.566 77.007 364.109 75.2594 361.958 73.4878C345.811 60.2091 345.485 43.6426 361.114 30.2522C364.243 27.5869 367.987 25.0093 371.616 22.5116C374.88 20.2612 378.278 17.9311 381.158 15.553C387.168 10.6134 391.219 5.35458 394.349 0H396.326ZM523.2 0C501.062 10.1905 483.072 21.2747 483.994 34.1305C484.416 39.8441 488.774 45.4381 492.979 50.8406C494.285 52.5084 495.629 54.2321 496.838 55.9318C506.765 69.9048 509.165 84.8992 503.77 99.2872C502.387 103.022 500.448 106.78 498.566 110.411C495.802 115.782 492.941 121.328 491.789 126.874C490.214 134.487 491.654 145.22 507.36 153.16C511.757 155.379 517.229 157.342 522.509 159.233C531.302 162.385 540.403 165.641 544.762 170.189C546.374 171.857 547.315 173.685 548.218 175.44C549.888 178.664 551.462 181.705 556.762 183.859C560.794 185.503 566.342 186.309 572.621 187.123C612.346 192.23 654.067 196.045 690.259 189.365C700.07 187.546 709.286 184.96 718.195 182.463L719.262 182.163L721.401 181.562C733.911 178.062 746.934 174.646 761.894 173.485C775.584 172.424 789.581 173.373 803.098 174.291C811.238 174.842 819.648 175.416 827.923 175.544C868.531 176.151 908.506 165.17 923.021 149.402C931.622 140.041 931.642 129.643 931.661 120.474C931.718 98.9041 931.795 72.0514 968.832 53.466C975.763 49.9867 983.904 46.8745 991.776 43.8661C999.206 41.0252 1006.91 38.0885 1013.53 34.8487C1033.27 25.2008 1043.56 12.5685 1043.04 0H1044.96C1045.48 12.752 1035.01 25.5759 1014.99 35.3594C1008.29 38.6392 1000.55 41.5997 993.062 44.4566C985.248 47.4411 977.165 50.5373 970.31 53.9767C933.715 72.3387 933.638 99.0318 933.581 120.474C933.562 129.715 933.542 140.185 924.806 149.681C910.022 165.769 869.28 176.996 827.846 176.342C819.456 176.214 810.989 175.64 802.79 175.081C789.427 174.171 775.622 173.238 762.259 174.275C746.4 175.496 732.595 179.374 719.27 183.117C710.285 185.639 700.992 188.248 691.027 190.092C676.915 192.701 662.016 193.738 646.733 193.738C622.214 193.738 596.736 191.057 572.064 187.881C566.746 187.195 560.122 186.341 555.418 184.434C550.285 182.344 548.388 179.459 546.856 176.57L546.521 175.928C546.465 175.821 546.41 175.715 546.355 175.608C545.453 173.884 544.531 172.089 542.976 170.485C538.79 166.12 530.266 163.071 521.261 159.839C515.923 157.924 510.394 155.937 505.882 153.663C489.754 145.523 488.275 134.567 489.869 126.81C491.021 121.216 493.901 115.638 496.685 110.244C498.566 106.629 500.486 102.878 501.888 99.1675C507.226 84.8912 504.845 70.0165 494.995 56.1553C493.786 54.4635 492.461 52.7478 491.155 51.088C486.912 45.6296 482.496 39.9798 482.074 34.1544C481.133 21.2507 498.739 10.1665 520.608 0H523.2ZM1393.48 50.3618C1410.55 51.886 1426.94 53.0191 1440 50.8406V53.3702C1424.22 55.5488 1405.57 53.8889 1392.27 52.6999C1263.46 41.2087 1156.93 42.4696 1066.58 56.5702C1019.65 63.8879 990.893 74.0943 981.062 86.9102C976.646 92.6717 976.243 98.8882 975.859 104.897C975.794 105.925 975.729 106.955 975.668 107.987L975.58 109.537C974.944 121.432 975.204 133.565 983.578 145.036C989.011 152.506 998.208 160.111 1011.69 168.282C1019.23 172.855 1028.68 177.906 1041.47 180.691C1052.64 183.133 1065.56 183.74 1078.92 184.194C1095.92 184.769 1113.14 185.136 1130.17 185.288C1139.62 185.367 1148.04 185.328 1155.61 183.979C1165.06 182.279 1172.03 178.64 1178.17 175.432L1253.24 136.219C1266.37 129.356 1281.27 121.575 1300.86 116.636C1318.21 112.247 1344.67 109.414 1366.85 114.601C1371.19 115.622 1375.1 116.891 1378.89 118.12C1382.4 119.269 1385.72 120.354 1389.37 121.248C1404.35 124.927 1422.05 124.839 1440 123.052V125.462C1412.52 128.111 1397.53 126.028 1386.45 123.307C1382.46 122.333 1378.83 121.152 1375.33 120.011C1371.55 118.782 1367.98 117.617 1364.03 116.692C1347.53 112.829 1323.92 113.611 1303.83 118.679C1285.15 123.395 1271.21 130.673 1257.73 137.711L1182.68 176.925C1176.42 180.188 1168.67 184.242 1157.89 186.173C1150.75 187.45 1143.01 187.706 1135.03 187.706C1133.38 187.706 1131.71 187.698 1130.04 187.682C1112.91 187.53 1095.55 187.155 1078.46 186.58C1064.49 186.102 1050.93 185.463 1038.8 182.814C1024.88 179.781 1014.89 174.451 1006.94 169.639C993.12 161.26 983.674 153.439 978.048 145.731C968.333 132.388 969.235 118.383 970.099 104.833C970.502 98.6567 970.906 92.2727 975.571 86.184C985.958 72.634 1015.91 61.9168 1064.56 54.3278C1155.97 40.0596 1263.57 38.7668 1393.48 50.3618ZM350.323 0C347.021 8.19546 338.285 16.0159 329.741 23.6527C328.032 25.1929 326.323 26.717 324.672 28.2332C311.194 40.6661 305.03 51.7184 305.818 62.0285C306.317 68.3248 311.674 74.3018 316.858 80.0873C321.139 84.8753 325.574 89.8309 327.322 94.9939C331.738 108.097 330.739 120.586 324.461 131.111C315.648 145.866 289.747 154.62 245.299 157.876C192.173 161.763 142.426 167.995 105.005 172.982C77.3952 176.669 53.4528 178.505 32.16 178.505C20.7168 178.505 10.0608 177.978 0 176.925V176.095C28.5312 179.135 62.112 177.874 104.429 172.224C141.888 167.221 191.712 160.981 244.954 157.086C288.576 153.894 313.978 145.332 322.598 130.92C328.819 120.498 329.798 108.105 325.421 95.0977C323.712 90.0304 319.315 85.1147 315.053 80.3666L314.038 79.232C309.133 73.7362 304.365 68.0619 303.898 62.0525C303.091 51.6226 309.312 40.4506 322.925 27.9061C324.576 26.3819 326.285 24.8577 327.994 23.3176C328.52 22.8462 329.048 22.3742 329.575 21.9014L331.153 20.4808C338.495 13.8402 345.458 7.04534 348.365 0H350.323ZM573.754 0C553.344 9.32064 542.131 18.8168 540.365 28.2652C539.328 33.8831 541.67 39.5808 543.936 45.095C544.397 46.2202 544.858 47.3453 545.299 48.4625C553.997 70.9023 551.674 94.4194 538.56 116.484C542.669 122.844 546.95 129.412 555.59 135.061C557.933 136.602 560.64 138.094 563.27 139.53C568.147 142.212 573.178 144.981 576.154 148.181C578.246 150.431 579.283 152.865 580.282 155.219C581.76 158.73 583.181 162.042 587.75 164.835C593.53 168.362 603.898 170.716 619.43 172.025C646.291 174.299 673.325 173.054 695.597 168.53C719.789 163.614 738.086 154.684 744.499 144.645C749.779 136.386 747.302 127.632 744.902 119.165C743.942 115.798 742.963 112.311 742.483 108.895C739.968 91.3949 750.72 73.5197 772.742 58.5652C777.926 55.0301 783.878 51.5508 789.638 48.1753L791.218 47.2501C791.745 46.9413 792.272 46.6321 792.798 46.3225L794.376 45.392L795.947 44.4583C808.744 36.8199 820.6 28.8333 823.488 19.7026C825.504 13.3266 822.95 6.55158 816.269 0H818.323C824.928 6.59148 827.405 13.3904 825.389 19.8064C821.971 30.6272 806.323 39.7803 791.213 48.6381C785.472 51.9977 779.539 55.477 774.374 58.9802C752.563 73.799 741.907 91.5067 744.384 108.847C744.883 112.239 745.862 115.718 746.803 119.078C749.222 127.616 751.718 136.442 746.342 144.845C739.795 155.107 721.133 164.228 696.442 169.248C681.178 172.344 663.725 173.932 645.619 173.932C636.864 173.932 627.955 173.565 619.066 172.807C602.995 171.45 592.243 168.992 586.176 165.282C581.357 162.345 579.84 158.794 578.381 155.363C577.402 153.04 576.384 150.646 574.349 148.468C571.488 145.372 566.534 142.65 561.734 140.017C559.085 138.557 556.358 137.056 553.958 135.492C545.126 129.707 540.806 123.044 536.64 116.588L536.563 116.492L536.621 116.388C549.734 94.4034 552.077 70.9582 543.398 48.5902C542.976 47.473 542.515 46.3558 542.054 45.2306C539.75 39.6686 537.389 33.915 538.445 28.2013C540.211 18.761 551.194 9.28872 571.162 0H573.754ZM1085.89 65.3642C1134.39 58.7488 1224.67 46.4356 1257.66 74.2699C1265.89 81.2284 1267.55 89.9107 1262.3 98.7286C1258.16 105.719 1249.94 112.813 1236.48 121.057C1223.4 129.069 1207.3 137.128 1185.79 146.425C1169.01 153.679 1154.19 159.329 1136.39 163.295C1122.11 166.479 1107.4 168.107 1093.5 168.107C1086.74 168.107 1080.19 167.724 1073.97 166.95C1055.16 164.611 1037.93 158.307 1026.7 149.649C1016.41 141.709 1011.69 132.739 1008.13 124.233C1002.57 110.922 999.398 95.7201 1018 83.8618C1034.53 73.3202 1064.68 68.2529 1085.89 65.3642ZM1255.93 74.621C1223.67 47.4172 1134.43 59.5787 1086.49 66.1223C1065.54 68.9791 1035.82 73.9666 1019.62 84.3007C1001.36 95.9276 1004.52 110.938 1010.04 124.097C1013.57 132.54 1018.23 141.43 1028.39 149.266C1039.39 157.741 1056.19 163.909 1074.53 166.184C1092.83 168.458 1115.04 167.149 1135.47 162.592C1153.06 158.674 1167.76 153.072 1184.41 145.866C1205.84 136.61 1221.87 128.582 1234.91 120.61C1248.23 112.446 1256.35 105.432 1260.44 98.537C1265.59 89.9027 1263.97 81.412 1255.93 74.621ZM53.3376 71.1337C92.8128 63.4809 139.238 61.7971 184.09 66.4016C222.701 70.3676 260.774 75.9217 277.766 89.5915C293.395 102.168 296.525 115.495 286.157 125.254C277.555 133.346 258.624 139.921 228.269 145.356C199.814 150.455 168.173 154.15 131.501 156.647C101.99 158.658 70.1376 159.847 31.296 160.398C28.3008 160.438 25.248 160.47 22.1376 160.47C14.8416 160.47 7.3152 160.318 0 159.871V159.065C10.3872 159.712 21.2544 159.744 31.2192 159.6C70.0032 159.049 101.76 157.86 131.194 155.857C167.693 153.376 199.2 149.697 227.52 144.63C257.395 139.267 276.019 132.827 284.41 124.935C294.547 115.391 291.418 102.32 276.058 89.9585C259.911 76.9698 224.036 71.4294 187.062 67.5326L184.774 67.2937L183.629 67.1756C139.219 62.6191 93.216 64.2789 54.144 71.8599C33.9264 75.7861 15.5328 81.3561 0 88.2269V87.0698C15.4176 80.4065 33.4848 74.9881 53.3376 71.1337ZM829.44 62.7866C843.418 60.664 857.818 61.3502 871.104 64.7657C907.718 74.1901 905.05 95.9276 903.091 111.8C902.918 113.26 902.726 114.681 902.592 116.053C901.786 123.905 900.154 132.947 890.765 140.855C880.704 149.338 862.003 155.012 843.13 155.315C842.573 155.331 842.035 155.331 841.478 155.331C823.046 155.331 804.384 150.367 793.555 142.523C782.63 134.631 780.538 125.358 779.942 118.168C779.77 116.053 779.674 113.994 779.674 111.991C779.674 99.7739 782.957 89.6234 789.658 81.1007C796.397 72.5063 811.642 65.4919 829.44 62.7866ZM870.106 65.444C857.338 62.1562 843.494 61.4939 830.093 63.5368C812.832 66.1622 798.048 72.9851 791.482 81.3481C783.763 91.1795 780.614 103.213 781.862 118.136C782.458 125.238 784.512 134.383 795.206 142.132C806.016 149.952 824.774 154.82 843.053 154.525C861.235 154.229 879.283 148.723 889.037 140.504C898.253 132.739 899.885 123.794 900.672 116.013C900.806 114.649 900.998 113.22 901.171 111.752C903.11 96.0792 905.76 74.621 870.106 65.444ZM1094.52 77.3501C1134.01 71.3332 1190.13 65.2046 1221.33 81.412C1228.34 85.0429 1231.85 89.0568 1231.85 93.382C1231.85 95.4807 1231.03 97.6592 1229.38 99.9016C1224.54 106.485 1214.76 112.678 1205.84 117.865C1195.14 124.065 1182.97 130.138 1168.61 136.426C1158.07 141.047 1146.41 145.755 1132.63 148.923C1121.8 151.42 1110.2 152.721 1099.35 152.721C1094.9 152.721 1090.56 152.506 1086.47 152.059C1072.13 150.503 1059.01 146.042 1050.51 139.818C1042.46 133.888 1039.07 127.042 1036.8 121.112C1036.53 120.45 1036.3 119.78 1036.07 119.109C1033.48 111.409 1031.6 100.157 1045.25 91.4348C1054.56 85.4897 1070.21 81.013 1094.52 77.3501ZM1164.1 71.828C1140.6 71.828 1115.64 74.9801 1095.19 78.1003C1071.28 81.6992 1055.92 86.0723 1046.86 91.8658C1033.56 100.372 1035.42 111.425 1037.97 118.998C1038.2 119.668 1038.43 120.33 1038.68 120.993C1040.93 126.842 1044.29 133.609 1052.18 139.419C1060.44 145.467 1073.11 149.793 1086.95 151.285C1100.54 152.761 1116.86 151.652 1131.69 148.229C1145.24 145.108 1156.78 140.448 1167.23 135.875C1181.53 129.619 1193.64 123.57 1204.28 117.394C1213.11 112.263 1222.79 106.142 1227.55 99.6702C1232.41 93.0628 1229.82 87.0857 1219.83 81.9067C1212.61 78.1561 1203.99 75.6344 1194.51 74.0544C1185.04 72.4744 1174.71 71.828 1164.1 71.828ZM77.0688 78.4514C106.464 73.7911 140.218 72.9611 172.109 76.1212C174.086 76.3207 176.064 76.5202 178.061 76.7277C204.48 79.4808 233.299 83.7341 246.682 94.3635C259.142 104.203 261.35 114.736 252.595 122.533C245.338 128.949 229.69 134.192 204.787 138.549C182.381 142.475 156.806 145.42 128.755 147.303C114.24 148.284 99.0528 149.003 82.368 149.505C72.1344 149.809 61.5744 150.024 50.0928 150.168C48.0768 150.192 46.0224 150.208 43.9296 150.208C28.5696 150.208 11.6352 149.418 0 145.579V144.534C12.672 149.138 33.0432 149.569 50.0352 149.37C61.4976 149.226 72.0192 149.011 82.2144 148.707C98.8608 148.205 113.99 147.494 128.448 146.521C156.346 144.638 181.786 141.717 204.038 137.815C228.499 133.537 243.802 128.422 250.848 122.198C259.354 114.625 257.165 104.354 244.973 94.7306C238.464 89.5516 228.115 85.9286 216.154 83.2553C204.173 80.582 190.598 78.8584 177.6 77.5018C175.603 77.2943 173.626 77.0948 171.667 76.8953C159.072 75.6504 146.189 75.0359 133.402 75.0359C114.182 75.0359 95.1936 76.4324 77.7408 79.2015C74.8224 79.6643 71.9232 80.1671 69.1008 80.7097C46.5792 84.995 26.8992 91.754 12.2112 100.245C10.1568 101.426 8.1792 102.655 6.3552 103.884C4.032 105.448 1.92 107.036 0 108.656V106.908C1.4592 105.751 3.0336 104.602 4.7232 103.469C6.5664 102.216 8.5632 100.971 10.656 99.7739C25.536 91.1715 45.4656 84.3247 68.3136 79.9835C71.1552 79.4329 74.112 78.9222 77.0688 78.4514ZM598.061 0C582.586 7.89222 574.003 15.7445 572.486 23.3814C571.584 27.93 573.197 32.5584 574.733 37.0272C575.059 37.9768 575.386 38.9185 575.693 39.8601C581.53 57.9747 579.091 77.1666 568.646 95.353C570.24 98.1939 572.064 101.402 574.56 104.434C576.48 106.78 578.611 108.791 581.088 110.579C582.931 111.92 585.101 113.228 587.194 114.489C590.784 116.668 594.509 118.91 596.832 121.448C598.426 123.179 599.366 125.015 600.269 126.794C601.747 129.723 603.149 132.484 607.238 134.774C612.058 137.495 620.621 139.323 632.659 140.217C654.106 141.813 675.398 140.552 692.602 136.665C711.168 132.468 725.338 124.927 730.483 116.492C734.573 109.885 732.96 102.91 731.386 96.159C730.752 93.4219 730.099 90.5969 729.83 87.8199C728.448 73.9267 737.011 59.5388 753.946 47.3214C757.786 44.5523 762.106 41.8072 766.31 39.1499L767.007 38.7081L768.4 37.8226C779.313 30.8746 790.05 23.6537 792.288 15.4174C793.651 10.4299 791.731 5.13912 786.816 0H788.87C793.709 5.17104 795.571 10.4857 794.208 15.5131C792.111 23.2063 782.843 29.9729 772.827 36.4473L771.425 37.3489C770.957 37.6488 770.487 37.9482 770.018 38.2471L768.608 39.1422C768.373 39.2912 768.139 39.44 767.904 39.5888C763.738 42.2302 759.418 44.9673 755.616 47.7204C738.854 59.8101 730.387 74.0464 731.75 87.788C732.019 90.5411 732.672 93.358 733.286 96.0792C734.88 102.902 736.512 109.948 732.346 116.692C727.066 125.334 712.55 133.067 693.523 137.368C680.89 140.217 666.125 141.685 650.707 141.685C644.64 141.685 638.496 141.461 632.314 140.999C619.776 140.073 610.829 138.142 605.683 135.253C601.363 132.819 599.846 129.843 598.387 126.962C597.504 125.214 596.582 123.403 595.046 121.727C592.8 119.285 589.152 117.075 585.6 114.944C583.488 113.667 581.299 112.342 579.418 110.978C576.883 109.142 574.694 107.084 572.736 104.698C570.202 101.593 568.358 98.3296 566.726 95.4488L566.669 95.353L566.726 95.2652C577.152 77.1347 579.59 58.0146 573.792 39.9638C573.485 39.0222 573.158 38.0885 572.832 37.1469C571.277 32.6302 569.664 27.9619 570.566 23.3176C572.083 15.6807 580.493 7.85232 595.603 0H598.061ZM89.7792 87.7241C111.706 84.3326 136.685 83.6623 160.128 85.8409C161.568 85.9765 163.046 86.1202 164.506 86.2638C182.88 88.0753 205.286 91.1715 215.597 99.1276C224.89 106.31 226.176 114.042 219.014 119.828C213.158 124.56 200.813 128.454 181.306 131.742C164.621 134.551 146.016 136.65 126.01 137.966C115.526 138.66 104.179 139.179 92.3136 139.514C84.8832 139.722 76.992 139.865 68.9088 139.937C67.8912 139.945 66.8736 139.945 65.8368 139.945C52.0704 139.945 36.1728 139.187 27.6288 134.623C23.52 132.428 21.216 129.627 20.7552 126.299C20.6784 125.685 20.64 125.039 20.6592 124.392C20.9088 118.088 25.9968 111.624 35.3472 105.719C36.7872 104.809 38.3232 103.908 39.8976 103.054C51.2256 96.8852 66.2208 91.9695 83.2896 88.8254C85.4016 88.4344 87.5904 88.0593 89.7792 87.7241ZM132.576 85.386C118.099 85.386 103.699 86.4234 90.4512 88.4743C88.3008 88.8014 86.1504 89.1685 84.0576 89.5516C67.296 92.6398 52.5504 97.4757 41.4144 103.533C39.8784 104.378 38.3616 105.264 36.96 106.158C27.8016 111.943 22.8288 118.248 22.5792 124.4C22.56 125.039 22.5984 125.653 22.6752 126.252C23.0976 129.42 25.2864 132.069 29.1456 134.128C37.8048 138.756 54.912 139.235 68.8704 139.139C76.9344 139.067 84.7872 138.924 92.1984 138.716C103.987 138.389 115.277 137.87 125.722 137.176C145.574 135.867 164.026 133.793 180.576 131.008C199.642 127.792 211.661 124.017 217.306 119.461C224.179 113.914 222.912 106.453 213.907 99.5106C208.934 95.6722 200.966 92.9989 192 91.0598C183.014 89.1206 173.05 87.9236 164.064 87.0379C162.605 86.8942 161.146 86.7506 159.706 86.6229C150.797 85.793 141.677 85.386 132.576 85.386ZM1103.12 89.3441C1128.19 84.7077 1172.7 81.6593 1187.62 88.2349C1197.72 92.3605 1201.84 95.4807 1196.45 101.091C1191.84 105.879 1182.74 110.675 1175.44 114.529L1175.17 114.673C1167.96 118.479 1160.08 122.541 1151.42 126.435C1144.86 129.38 1137.58 132.412 1128.86 134.551C1121.38 136.41 1113.08 137.4 1105.31 137.4C1103.16 137.4 1101.04 137.32 1098.99 137.168C1089.04 136.41 1080.06 133.801 1074.34 129.986C1068.56 126.14 1066.54 121.559 1065.45 117.992C1065.31 117.569 1065.2 117.138 1065.08 116.7C1063.2 109.206 1065.64 103.413 1072.51 98.9999C1080.35 93.9565 1093.73 91.0757 1103.12 89.3441ZM1157.49 85.2743C1139.81 85.2743 1118.67 87.3411 1103.9 90.0703C1089.33 92.7595 1079.88 95.7361 1074.12 99.4308C1067.5 103.692 1065.16 109.31 1067 116.62C1067.1 117.043 1067.23 117.474 1067.35 117.897C1068.42 121.376 1070.38 125.853 1075.97 129.563C1081.4 133.186 1089.93 135.668 1099.33 136.386C1108.3 137.064 1118.71 136.147 1127.88 133.865C1136.39 131.774 1143.55 128.797 1150.02 125.892C1158.62 122.022 1166.48 117.976 1173.66 114.178L1173.93 114.034C1181.16 110.22 1190.15 105.472 1194.66 100.795C1199.19 96.0872 1197.24 93.2862 1186.25 88.8014L1186.23 88.7935C1180.57 86.2877 1169.88 85.2743 1157.49 85.2743ZM825.024 90.4214C831.955 86.2638 842.016 84.3007 854.938 84.6119C863.827 84.8194 870.278 86.5271 874.118 89.6792C887.232 100.452 865.92 124.552 856.474 130.577C854.246 131.997 851.674 133.41 847.91 134.096C846.336 134.383 844.608 134.519 842.822 134.519C839.213 134.519 835.392 133.944 832.205 132.851C827.808 131.351 825.158 129.212 823.162 127.329C820.762 125.071 818.765 122.222 817.306 119.109C815.846 115.997 814.944 112.63 814.733 109.342C814.406 103.732 815.904 95.8957 825.024 90.4214ZM852.384 85.378C841.363 85.378 832.685 87.2214 826.598 90.8762C811.661 99.8298 815.635 118.256 824.909 127.002C826.829 128.805 829.325 130.84 833.414 132.237C837.619 133.673 843.014 134.12 847.123 133.362C850.445 132.763 852.806 131.463 854.861 130.146C865.632 123.275 884.333 99.8298 872.41 90.0383C868.896 87.1576 862.982 85.6015 854.822 85.4099C853.997 85.386 853.19 85.378 852.384 85.378ZM102.509 96.9889C116.966 94.8742 133.171 94.3715 148.128 95.5605C149.05 95.6323 149.99 95.7121 150.931 95.7919C168.326 97.2922 179.002 99.8697 184.493 103.892C187.795 106.31 189.446 108.791 189.446 111.153C189.446 113.276 188.122 115.311 185.434 117.122C180.864 120.195 171.84 122.748 157.805 124.935C146.976 126.627 135.36 127.864 123.264 128.63C116.582 129.045 109.517 129.348 102.278 129.523C97.728 129.635 92.9472 129.691 87.6864 129.707H87.2448C74.5152 129.707 66.3744 128.654 61.6512 126.411C58.5984 124.959 56.6784 123.155 56.1216 121.184C56.0064 120.785 55.9296 120.37 55.9104 119.947C55.584 115.933 59.0784 111.792 65.9904 107.961C67.008 107.395 68.0832 106.836 69.1584 106.318C76.8576 102.607 86.9184 99.6143 98.2656 97.6672C99.6672 97.4278 101.069 97.2044 102.509 96.9889ZM131.904 95.7281C122.131 95.7281 112.282 96.4064 103.142 97.747C101.741 97.9465 100.358 98.17 98.9952 98.4094C87.9168 100.309 78.1056 103.221 70.6176 106.836C69.5616 107.347 68.5248 107.882 67.5264 108.44C60.8832 112.119 57.5232 116.093 57.8304 119.923C57.8496 120.314 57.9264 120.698 58.0416 121.089C58.5408 122.9 60.3072 124.56 63.0912 125.884C67.488 127.967 75.36 128.949 87.6864 128.909C92.9088 128.893 97.6512 128.837 102.163 128.725C109.363 128.558 116.352 128.255 122.976 127.84C134.938 127.089 146.438 125.861 157.133 124.193C170.746 122.07 179.462 119.62 183.782 116.707C189.082 113.14 188.736 108.608 182.842 104.291C180.23 102.383 176.371 100.819 171.034 99.5425C165.734 98.2737 158.957 97.3001 150.547 96.574C149.606 96.4942 148.685 96.4144 147.763 96.3425C142.579 95.9276 137.261 95.7281 131.904 95.7281ZM1148.1 95.6882C1158.11 95.345 1163.87 95.9914 1165.69 97.6513C1169.16 100.787 1156.9 106.413 1144.45 111.505C1141.79 112.598 1139.35 113.843 1137 115.048C1133.45 116.859 1129.79 118.726 1125.18 120.163C1120.95 121.48 1115.42 122.293 1110.18 122.293C1105.59 122.293 1101.24 121.671 1098.22 120.195C1095.38 118.814 1094 116.819 1094.09 114.258C1094.25 111.066 1096.76 108.392 1100.29 106.214C1103.81 104.035 1108.32 102.351 1112.43 101.115C1122.28 98.146 1135.62 96.1191 1148.1 95.6882ZM1163.94 97.9864C1162.54 96.7016 1157.13 96.1829 1148.26 96.4862C1112.72 97.7071 1096.32 107.626 1096.01 114.274C1095.92 116.628 1097.15 118.447 1099.68 119.676C1105.44 122.477 1116.81 121.775 1124.03 119.524C1128.44 118.152 1132.03 116.316 1135.51 114.545C1137.89 113.324 1140.36 112.063 1143.11 110.938C1149.73 108.233 1167.32 101.035 1163.94 97.9864ZM115.277 106.254C122.861 105.352 130.675 105.025 137.299 105.32C144.864 105.671 150.432 106.812 153.389 108.648C156.672 110.675 156.096 112.694 151.718 114.473C147.206 116.316 139.738 117.482 134.266 118.136C127.277 118.974 119.232 119.485 112.205 119.54H110.995C104.083 119.54 98.7264 119.086 95.8272 118.248C93.5808 117.609 92.1792 116.915 91.5456 116.133C89.856 114.106 91.6608 112.039 96.7296 110.156C101.088 108.544 107.674 107.163 115.277 106.254ZM132.307 106.014C127.104 106.014 121.382 106.357 115.795 107.02C108.461 107.898 102.144 109.222 97.9968 110.754C94.9056 111.904 91.584 113.723 93.3504 115.878C93.8496 116.484 95.0208 117.051 96.9216 117.593C99.6672 118.383 105.082 118.79 112.166 118.742C119.04 118.687 126.912 118.192 133.728 117.37C141.274 116.468 147.034 115.271 150.374 113.907C154.118 112.382 154.579 110.81 151.795 109.087C148.474 107.036 141.965 106.341 137.088 106.118C135.552 106.046 133.958 106.014 132.307 106.014ZM1320.69 59.459C1334.67 59.5787 1348.72 60.3926 1362.32 61.1906C1370.48 61.6615 1378.92 62.1562 1387.24 62.4834C1408.34 63.3293 1425.48 62.9063 1440 61.1348V61.9647C1425.35 63.7123 1408.17 64.1273 1387.07 63.2814C1378.69 62.9462 1370.23 62.4515 1362.05 61.9807C1348.51 61.1906 1334.52 60.3767 1320.65 60.257C1314.36 60.2091 1307.29 60.4086 1303.07 62.3158C1297.77 64.6859 1299.74 68.4365 1300.84 69.9367C1301.57 70.9502 1302.53 71.9557 1303.47 72.9372C1305.02 74.5571 1306.62 76.2329 1307.27 78.0045C1308.02 80.0394 1307.48 82.1062 1306.96 84.1012C1306.71 85.0508 1306.46 86.0404 1306.35 87.0059C1306.12 89.0648 1306.64 92.8234 1312.74 94.8184C1318.2 96.5899 1325.3 96.2867 1332.84 95.9595C1336.95 95.7839 1341.22 95.5924 1345.27 95.768C1355.12 96.1909 1363.24 98.7126 1371.09 101.146C1373.66 101.937 1376.31 102.766 1378.96 103.493C1396.74 108.368 1419.36 109.853 1440 107.85V108.672C1434.05 109.23 1427.96 109.51 1421.86 109.51C1406.36 109.51 1390.89 107.714 1377.91 104.155C1375.22 103.413 1372.53 102.591 1369.96 101.785C1362.3 99.4148 1354.39 96.965 1345.08 96.566C1341.22 96.3984 1337.07 96.5819 1333.04 96.7495C1325.45 97.0847 1317.62 97.4198 1311.55 95.4408C1304.77 93.2303 1304.18 89.1845 1304.43 86.966C1304.54 85.9765 1304.81 84.979 1305.06 84.0134C1305.56 82.0663 1306.1 80.0554 1305.37 78.1242C1304.76 76.4404 1303.2 74.8125 1301.68 73.2325C1300.74 72.235 1299.76 71.2135 1299 70.1681C1297.8 68.5322 1295.69 64.4545 1301.64 61.7732C1306.41 59.6425 1313.93 59.4111 1320.69 59.459ZM622.349 0C611.674 6.5436 605.875 12.6164 604.608 18.5056C603.859 21.9849 604.723 25.52 605.53 28.9435C605.722 29.7175 605.914 30.4836 606.067 31.2577C609.101 45.1828 606.643 59.6425 598.733 74.23C599.846 76.7596 600.883 79.0419 602.362 81.2843C603.571 83.1117 604.954 84.6917 606.586 86.1042C607.949 87.2852 609.581 88.4423 611.174 89.5595C613.478 91.1954 615.878 92.8792 617.53 94.7146C618.586 95.8797 619.334 97.0847 620.083 98.2498C621.6 100.644 623.021 102.902 626.688 104.706C630.662 106.669 637.114 107.906 645.85 108.4C661.632 109.31 677.568 108.001 689.587 104.801C702.662 101.322 712.474 95.3211 716.486 88.3386C719.328 83.383 718.579 78.1801 717.85 73.1447C717.542 71.0459 717.216 68.8754 717.158 66.7447C716.909 56.3228 723.11 45.7174 735.149 36.0776C737.606 34.1145 740.314 32.1514 742.925 30.2522L743.529 29.8145L744.739 28.9366C752.39 23.366 759.808 17.5821 761.107 11.1401C761.837 7.52514 760.493 3.71868 757.286 0H759.322C762.451 3.74262 763.738 7.56504 763.027 11.2039C761.587 18.3301 752.947 24.5944 744.595 30.6512C741.984 32.5424 739.296 34.4975 736.858 36.4447C724.973 45.9728 718.829 56.4425 719.078 66.7367C719.136 68.8435 719.462 71.006 719.75 73.0968C720.499 78.188 721.267 83.4548 718.349 88.5221C714.221 95.7121 704.122 101.889 690.624 105.48C680.794 108.089 668.448 109.486 655.661 109.486C652.32 109.486 648.96 109.39 645.6 109.19C636.365 108.672 629.51 107.339 625.229 105.224C621.274 103.277 619.718 100.827 618.221 98.4493C617.491 97.3081 616.742 96.1191 615.725 94.9939C614.131 93.2224 611.789 91.5705 609.523 89.9665C607.91 88.8334 606.259 87.6603 604.858 86.4473C603.168 84.995 601.747 83.375 600.499 81.4997C598.982 79.2015 597.926 76.8713 596.813 74.2938L596.774 74.214L596.813 74.1342C604.704 59.6026 607.181 45.1987 604.166 31.3295L603.629 29.0233C602.803 25.5599 601.939 21.9849 602.688 18.4338C603.955 12.5366 609.638 6.48774 620.045 0H622.349ZM1440 71.5247V72.3547C1417.86 74.9242 1394.04 74.1182 1372.7 73.3921C1363.99 73.0968 1351.85 73.0968 1347.23 76.5122C1343.75 79.0898 1346.76 82.4573 1351.37 84.3167C1356.42 86.3596 1363.55 87.365 1370.5 88.1551C1394.76 90.9002 1418.4 91.5625 1440 90.158V90.964C1432.67 91.4428 1425.14 91.6742 1417.42 91.6742C1402.16 91.6742 1386.2 90.7565 1370 88.9211C1362.8 88.1072 1355.4 87.0618 1350.03 84.8912C1344.79 82.7686 1341.56 79.0738 1345.56 76.1212C1350.72 72.3068 1363.6 72.2828 1372.86 72.602C1394.21 73.3282 1418.05 74.1342 1440 71.5247ZM646.502 0C642.355 3.8304 637.958 8.6184 636.73 13.6298C636.154 16.0079 636.269 18.4258 636.384 20.764L636.461 22.6712C636.71 31.9918 634.214 41.9509 628.819 53.1149C629.146 54.7508 629.53 56.4904 630.163 58.1582C630.662 59.451 631.296 60.5921 632.122 61.6615C633.024 62.8425 634.253 64.0156 635.424 65.1487C636.384 66.0664 637.382 67.016 638.227 67.9816C638.611 68.4285 638.957 68.8674 639.322 69.3063C640.954 71.3252 642.509 73.2404 646.099 74.621C649.939 76.1053 655.238 76.5122 659.021 76.592C669.178 76.8314 679.45 75.4669 686.515 72.9611C694.234 70.232 699.61 65.9308 702.49 60.1931C704.122 56.9293 704.198 53.5298 704.256 50.2421C704.294 48.7418 704.333 47.1857 704.506 45.6536C705.312 38.9983 709.402 31.8003 716.333 24.8577C717.35 23.8442 718.406 22.8308 719.443 21.8253C724.416 17.0692 729.542 12.1535 729.907 6.87078C730.061 4.59648 729.312 2.28228 727.68 0H729.658C731.251 2.29026 731.981 4.61244 731.827 6.89472C731.462 12.3291 726.24 17.3246 721.21 22.1445C720.173 23.15 719.117 24.1555 718.118 25.1609C711.264 32.0237 707.213 39.1259 706.426 45.6935C706.253 47.2097 706.214 48.7578 706.176 50.2501C706.118 53.5777 706.042 57.0091 704.352 60.3527C701.395 66.2739 695.808 70.7188 687.763 73.5676C680.794 76.0414 671.309 77.414 661.402 77.414C660.576 77.414 659.75 77.406 658.925 77.39C654.835 77.3023 649.056 76.8474 644.794 75.2115C640.838 73.6873 639.226 71.6843 637.498 69.5617C637.152 69.1307 636.787 68.6918 636.422 68.2529C635.597 67.3113 634.618 66.3697 633.677 65.4599C632.467 64.3108 631.219 63.1218 630.278 61.9009C629.434 60.7996 628.781 59.6186 628.262 58.2859C627.61 56.5702 627.226 54.7907 626.899 53.1229L626.88 53.067L626.918 53.0111C632.294 41.879 634.79 31.9599 634.541 22.6792C634.522 22.0487 634.483 21.4183 634.464 20.7799C634.349 18.4178 634.234 15.976 634.829 13.5421C636.038 8.57052 640.282 3.8304 644.371 0H646.502ZM313.613 0C314.573 2.38602 314.342 5.00346 312.883 7.69272C310.579 11.962 305.683 15.9201 300.941 19.7505L299.27 21.1151C291.149 27.7305 283.814 34.6013 277.459 41.5359L277.19 41.8232C273.619 45.7414 269.914 49.7872 261.907 52.3328C253.67 54.9503 242.842 55.3493 232.378 55.3972C213.504 55.469 194.419 54.7029 175.949 53.9608C154.118 53.083 131.539 52.1732 109.325 52.66C70.9056 53.5059 32.6016 58.7807 0 67.4869V66.5293C32.64 57.9188 70.8672 52.7079 109.21 51.862C131.578 51.3752 154.234 52.285 176.141 53.1628C194.554 53.9049 213.6 54.671 232.358 54.5992C242.496 54.5593 252.96 54.1762 260.736 51.7024C268.301 49.2925 271.91 45.3503 275.405 41.5439L275.674 41.2486C282.048 34.2901 289.402 27.3953 297.562 20.748L299.232 19.3834C303.917 15.6009 308.755 11.6907 311.021 7.51716C312.442 4.87578 312.634 2.3142 311.654 0H313.613ZM860.064 0C863.731 10.5256 857.818 22.344 842.88 33.524L841.843 34.2901C839.366 36.1255 836.813 38.0087 835.757 40.0516C834.432 42.5813 836.026 45.071 839.77 46.3877C844.416 48.0157 850.714 47.7364 857.376 47.4411C861.293 47.2735 865.325 47.09 869.146 47.3054C874.618 47.6167 879.514 48.7498 884.275 49.8511C889.248 51.0082 893.952 52.0934 899.27 52.3249C911.962 52.8755 922.08 48.2072 925.843 46.1803C928.339 44.8237 930.624 43.3474 932.832 41.9189C936.461 39.5648 940.205 37.1389 945.101 35.128C949.421 33.3644 954.547 31.9599 959.501 30.6113C963.494 29.518 967.622 28.3928 971.27 27.0841C989.126 20.6762 994.982 10.4857 998.112 0H1000.03C996.864 10.6852 990.931 21.0911 972.518 27.6906C968.774 29.0312 964.608 30.1724 960.557 31.2736C955.68 32.6063 950.63 33.9868 946.445 35.7025C941.702 37.6417 938.016 40.0357 934.445 42.3499C932.218 43.7942 929.914 45.2785 927.36 46.667C923.635 48.686 913.939 53.1628 901.363 53.1628C900.614 53.1628 899.846 53.1468 899.078 53.1149C893.357 52.8675 888.25 51.6865 883.334 50.5453C878.746 49.484 874.003 48.3907 868.877 48.0955C865.286 47.896 861.37 48.0715 857.587 48.2391C850.81 48.5344 843.821 48.8456 838.541 46.9942C833.338 45.1668 832.723 42.1264 833.875 39.884C834.989 37.7294 837.619 35.7823 840.173 33.899L841.19 33.133C855.974 22.0647 861.811 10.382 858.125 0H860.064ZM275.136 0C277.306 3.13614 277.978 6.64734 277.037 10.3102C275.52 16.1276 270.221 21.6896 265.248 26.3659C260.736 30.5873 255.149 35.3753 245.626 38.7349C237.005 41.7753 224.89 43.6506 210.586 44.1533C199.968 44.5204 189.197 44.1613 178.771 43.8182C176.89 43.7543 174.989 43.6905 173.107 43.6267C139.066 42.5653 104.621 42.8845 70.752 44.5603C49.056 45.6376 22.8096 47.5448 0 52.5962V51.7024C22.8672 46.7229 48.9216 44.8396 70.5216 43.7703C104.525 42.0865 139.085 41.7673 173.242 42.8366C175.142 42.8925 177.024 42.9563 178.925 43.0202C189.274 43.3633 199.968 43.7224 210.432 43.3553C224.314 42.8686 236.064 41.0571 244.378 38.1284C253.594 34.8726 259.066 30.1804 263.482 26.0387C268.416 21.4263 273.638 15.9361 275.136 10.2224C276.077 6.57552 275.366 3.09624 273.12 0H275.136ZM670.406 0C670.291 7.08624 666.95 14.1326 663.686 20.9714C661.478 25.5919 659.213 30.3639 657.946 35.096C657.197 37.9369 657.158 42.9484 665.338 44.5045C671.981 45.7733 679.872 43.7783 683.347 41.1928C686.458 38.9025 687.245 36.1733 688.032 33.532C688.166 33.0452 688.32 32.5504 688.474 32.0636C689.587 28.6163 691.507 25.1769 693.37 21.8492C694.848 19.1839 696.403 16.4228 697.498 13.6857C699.629 8.42688 699.725 3.90222 697.728 0H699.686C701.645 3.96606 701.549 8.53062 699.398 13.8214C698.285 16.5824 696.73 19.3515 695.232 22.0328C693.389 25.3445 691.469 28.7599 690.374 32.1674C690.221 32.6542 690.067 33.1409 689.933 33.6277C689.126 36.3489 688.32 39.1579 685.018 41.5838C681.965 43.8421 675.84 45.6935 669.658 45.6935C667.93 45.6935 666.202 45.5498 664.55 45.2306C655.258 43.4591 655.238 38.0646 656.045 35.0083C657.312 30.2442 659.597 25.4482 661.786 20.8198C665.05 14.0209 668.371 7.00644 668.486 0H670.406ZM1083.71 0C1082.8 8.46678 1079.25 16.8218 1073.11 24.9614C1070.63 28.2253 1068.44 31.8961 1073.55 34.1464C1077.62 35.9339 1084.51 35.902 1090.04 35.6786C1102.14 35.1838 1114.21 33.9868 1125.87 32.8377C1130.8 32.3509 1135.91 31.8402 1140.96 31.3933C1211.37 25.1769 1283.1 28.8158 1356.52 33.4362C1382.11 35.0482 1412.14 36.9394 1440 34.9524V35.7664C1431.48 36.3728 1422.74 36.6122 1414 36.6122C1394.05 36.6122 1374.09 35.3514 1356.23 34.2262C1282.98 29.6138 1211.44 25.9829 1141.36 32.1754C1136.33 32.6222 1131.24 33.125 1126.31 33.6118C1114.58 34.7689 1102.46 35.9659 1090.23 36.4686C1084.72 36.692 1076.85 36.7559 1072.15 34.6891C1066.33 32.1275 1068.65 28.2013 1071.28 24.722C1077.35 16.6702 1080.86 8.379 1081.77 0H1083.71ZM895.373 0C898.368 9.34458 895.392 19.0882 886.79 27.8023C885.965 28.6322 885.197 29.4302 885.408 30.1963C885.792 31.6327 889.632 32.5504 893.107 32.6143C898.714 32.702 903.821 31.2417 908.966 29.6058L925.517 24.3151C929.894 22.9106 934.848 21.3305 937.824 19.2398C940.339 17.4682 941.395 15.3934 942.413 13.3825L949.19 0H951.149L944.294 13.55C943.238 15.6169 942.163 17.7635 939.475 19.6468C936.326 21.8652 931.2 23.5011 926.688 24.9455L910.118 30.2362C904.877 31.912 899.654 33.4123 893.645 33.4123H893.03C888.749 33.3404 884.006 32.1514 883.488 30.2841C883.219 29.3105 884.141 28.3849 884.966 27.5629C893.51 18.8966 896.448 9.24084 893.453 0H895.373ZM234.163 0C236.544 4.19748 236.026 9.2967 232.474 14.348C230.784 16.758 228.538 18.9764 225.85 20.9076C223.162 22.8467 220.032 24.4986 216.614 25.7754C204.346 30.3639 187.661 30.8587 171.533 31.3375C168.691 31.4252 165.869 31.505 163.104 31.6088C140.102 32.5025 117.658 32.9973 96.4032 33.0931C92.4096 33.117 88.2624 33.1649 84.0192 33.2128C78.2016 33.2766 72.2112 33.3484 66.1632 33.3484C47.5968 33.3484 28.5696 32.702 13.1712 29.3584C8.2176 28.2891 3.7824 26.8607 0 25.1769V23.9799C3.9168 25.8871 8.6784 27.4911 14.0544 28.6562C34.0224 32.9813 60.5568 32.6781 83.9616 32.4148C88.224 32.3669 92.3904 32.319 96.384 32.2951C117.6 32.1993 139.987 31.7045 162.931 30.8188C165.696 30.707 168.538 30.6272 171.398 30.5395C172.638 30.5032 173.88 30.4667 175.124 30.4282L176.989 30.3688C190.982 29.9079 204.926 29.0716 215.328 25.1849C221.914 22.7191 227.347 18.7929 230.63 14.1246C234.144 9.12912 234.624 4.09374 232.205 0H234.163ZM73.6512 0C71.4327 0.144134 69.1781 0.299015 66.9327 0.477032L65.8111 0.568027C65.2508 0.614545 64.6916 0.662639 64.1342 0.712501L63.0219 0.814641C48.5982 2.17461 35.6873 4.81745 36.768 12.1456C37.2864 15.6967 41.76 18.9365 48.6912 20.7959C52.0512 21.6976 56.1792 22.3679 60.96 22.7909C71.9232 23.7485 84.1344 23.525 94.9248 23.3255C96.48 23.3016 98.016 23.2697 99.5136 23.2457C111.302 23.0702 123.283 22.6632 134.861 22.2642L141.062 22.0567C141.83 22.0328 142.598 22.0088 143.366 21.9929L145.805 21.929C155.654 21.6817 165.85 21.4183 174.086 19.3276C179.885 17.8513 184.512 15.577 187.104 12.9276C191.29 8.62638 189.178 4.21344 181.555 1.40448C180.154 0.89376 178.598 0.42294 176.87 0H180.346C181.229 0.25536 182.054 0.52668 182.822 0.81396C191.078 3.84636 193.382 8.60244 188.87 13.2229C186.125 16.0318 181.229 18.4418 175.085 20.0059C166.445 22.2083 156.019 22.4717 145.92 22.727L143.501 22.7829L141.216 22.8547L135.034 23.0622C123.418 23.4612 111.418 23.8682 99.5904 24.0437C98.0928 24.0677 96.5568 24.0996 95.0208 24.1235C90.3936 24.2113 85.4976 24.2991 80.5632 24.2991C73.8432 24.2991 67.008 24.1315 60.5568 23.5649C55.5456 23.126 51.2064 22.4238 47.6544 21.4662C40.2048 19.4712 35.4048 15.9999 34.848 12.1934C33.6576 4.2294 48 1.40448 63.0336 0H73.6512ZM1120.86 0C1121.28 4.6284 1118.96 9.2967 1114.08 13.4543L1113.79 13.7017C1112.87 14.4757 1111.93 15.2737 1111.87 16.0877C1111.72 17.8832 1115.9 19.3116 1120.05 19.6547C1124.41 20.0218 1129.02 19.535 1133.45 19.0642L1133.66 19.0403C1179.67 14.1645 1227.01 12.2573 1274.42 13.3825C1288.59 13.7176 1302.95 14.3321 1316.83 14.9306C1335.28 15.7206 1354.37 16.5425 1373.2 16.7021C1398.68 16.9336 1420.78 15.8722 1440 13.4862V14.3161C1420.72 16.6782 1398.6 17.7316 1373.16 17.5001C1354.25 17.3326 1335.13 16.5186 1316.64 15.7206C1302.78 15.1301 1288.44 14.5076 1274.3 14.1725C1227.11 13.0633 1179.96 14.9545 1134.14 19.8143L1133.93 19.8383C1130.46 20.2054 1126.89 20.5804 1123.3 20.5804C1122.09 20.5804 1120.88 20.5405 1119.67 20.4368C1114.75 20.0298 1109.76 18.2822 1109.95 16.0558C1110.03 15.0742 1111.07 14.1964 1112.06 13.3505L1112.37 13.1032C1117.11 9.04932 1119.38 4.50072 1118.96 0H1120.86ZM124.186 6.39996C128.141 6.39996 132.134 6.49572 136.09 6.67926C144.403 7.0623 147.264 8.73012 147.168 10.1665C147.053 11.986 142.138 14.0368 133.267 14.2523C130.752 14.3161 128.237 14.2443 125.798 14.1805C123.955 14.1326 122.074 14.0847 120.211 14.0927C116.083 14.1007 111.859 14.3959 107.77 14.6752C103.526 14.9625 99.2064 15.2578 94.9056 15.2578C92.256 15.2578 89.6064 15.146 86.976 14.8428C84.4224 14.5555 82.752 14.1007 81.9072 13.4543C80.736 12.5765 81.2544 11.3635 83.136 10.5017C84.7488 9.75156 87.0336 9.34458 89.0304 9.0174C99.6288 7.3017 111.782 6.39996 124.186 6.39996ZM135.878 7.46928C119.808 6.71916 103.411 7.53312 89.7216 9.75954C87.936 10.0548 85.9008 10.4139 84.5568 11.0363C83.424 11.555 82.7136 12.4249 83.5776 13.0712C84.1728 13.5181 85.4592 13.8453 87.4944 14.0767C93.9264 14.8109 100.493 14.364 107.462 13.8852C111.61 13.5979 115.93 13.3027 120.192 13.2947C122.112 13.2867 124.051 13.3346 125.914 13.3825C128.294 13.4463 130.771 13.5101 133.152 13.4543C140.602 13.2787 145.152 11.6348 145.248 10.1426C145.344 8.77002 141.754 7.7406 135.878 7.46928Z"
          fill="white" fill-opacity="0.1"/>
</svg>
