<svg width="534" height="413" viewBox="0 0 534 413" fill="none" xmlns="http://www.w3.org/2000/svg">
    <path fill-rule="evenodd" clip-rule="evenodd"
          d="M317.918 35.722C343.742 41.896 372.562 57.718 375.998 83.62C377.726 96.706 372.562 109.324 368.011 120.466L340.459 187.858C331.032 210.916 320.357 237.034 324.869 262.99C329.784 291.196 353.976 315.316 383.678 321.652C392.53 323.542 402.072 324.028 411.307 324.514C427.896 325.36 445.042 326.242 459.192 335.152C481.406 349.138 485.726 376.282 486.322 391.222C487.032 409.528 483.307 423.352 474.898 433.504C474.61 433.846 474.322 434.206 473.995 434.548H466.392C467.813 433.072 469.138 431.632 470.347 430.192C477.893 421.084 481.234 408.394 480.562 391.42C480.005 377.506 476.088 352.288 455.986 339.634C443.73 331.911 428.915 330.845 413.182 330.011L410.981 329.896C401.515 329.41 391.723 328.906 382.411 326.926C350.462 320.104 324.466 294.184 319.186 263.854C314.424 236.476 325.867 208.45 335.083 185.914L362.635 118.54C366.936 107.992 371.832 96.04 370.277 84.286C367.205 61.084 340.478 46.684 316.498 40.96C257.112 26.758 194.482 40.906 135.422 56.62C105.835 64.486 79.3968 72.1 55.5504 85.798C49.6368 89.182 43.8 93.016 38.1552 96.724C26.9424 104.104 15.3456 111.718 2.2512 116.506C-4.776 119.08 -12.8592 120.682 -21 120.844V115.462C-13.6272 115.3 -6.2352 113.824 0.158399 111.484C12.6 106.93 23.9088 99.496 34.8528 92.314C40.5744 88.552 46.4688 84.664 52.536 81.19C76.9968 67.168 104.952 59.104 133.848 51.418C193.656 35.506 257.15 21.196 317.918 35.722ZM340.306 10.414C366.994 17.308 385.368 26.578 398.117 39.61C408.427 50.14 430.814 80.83 415.838 137.926C411.499 154.414 405.01 170.542 398.712 186.166C392.242 202.186 385.56 218.764 381.278 235.666C379.109 244.18 377.458 253.99 381.47 262.252C384.12 267.67 389.15 272.404 396.869 276.742C410.827 284.59 427.224 288.172 443.064 291.628L445.923 292.254C462.15 295.819 478.734 299.757 492.715 308.512C514.027 321.85 528.485 346.384 532.363 375.814C534.955 395.452 533.035 415.18 530.002 434.548H528.062C531.096 415.216 533.035 395.542 530.462 376.03C526.642 347.122 512.491 323.056 491.64 310.006C478.352 301.69 462.499 297.775 446.89 294.325L444.056 293.701C443.584 293.598 443.112 293.495 442.642 293.392C426.648 289.9 410.098 286.282 395.89 278.29C387.826 273.754 382.526 268.75 379.723 263.008C375.461 254.242 377.17 244.054 379.416 235.252C383.736 218.242 390.437 201.61 396.907 185.518C403.186 169.966 409.675 153.874 413.957 137.494C428.722 81.244 406.795 51.148 396.696 40.816C384.216 28.054 366.13 18.946 339.787 12.16C263.544 -7.532 176.203 0.71199 64.9392 38.08L58.2 40.366C32.6448 49.006 6.2256 57.934 -21 57.898V56.098C2.5704 56.1453 25.5822 49.3432 47.9839 41.89L51.18 40.8215C53.308 40.1071 55.4304 39.3895 57.5472 38.674L64.3056 36.388C175.954 -1.10601 263.659 -9.368 340.306 10.414ZM277.176 72.118C303.691 76.114 319.109 92.674 322.642 107.326C326.03 121.368 320.721 135.347 315.055 148.92L314.314 150.688C314.191 150.982 314.067 151.276 313.944 151.57L313.003 153.82C293.554 200.368 287.736 239.878 295.224 274.582C306.187 325.36 344.798 354.502 378.206 360.874C381.355 361.486 384.638 361.936 387.826 362.368C395.41 363.43 403.243 364.528 410.309 367.696C426.533 375.022 436.709 393.544 435.038 412.75C434.405 419.968 432.254 427.276 428.683 434.548H426.571C429.95 427.87 432.427 420.49 433.118 412.606C434.731 394.12 425.016 376.318 409.464 369.316C402.686 366.256 394.987 365.194 387.538 364.15C384.331 363.718 381.029 363.25 377.822 362.638C357.067 358.678 337.944 347.734 322.488 330.976C308.146 315.406 297.797 295.516 293.342 274.942C285.778 239.878 291.614 200.044 311.218 153.154L312.158 150.904C318.11 136.756 324.235 122.14 320.779 107.722C317.381 93.664 302.501 77.752 276.869 73.882C262.699 71.758 248.184 74.188 234.149 76.564C229.387 77.356 224.491 78.184 219.672 78.814C199.224 81.514 178.776 85.726 158.885 91.378C118.757 102.772 81.1248 119.746 47.0064 141.832C45.2784 142.93 43.5696 144.064 41.8416 145.198C29.9952 152.992 17.7264 161.038 3.576 164.548C-4.4496 166.546 -12.6288 166.978 -21 167.14V165.34C-12.7824 165.178 -4.7376 164.746 3.096 162.82C16.92 159.382 29.0352 151.426 40.7472 143.722C42.4752 142.588 44.184 141.454 45.912 140.338C80.2032 118.162 118.008 101.116 158.328 89.668C178.315 83.98 198.859 79.732 219.403 77.032C224.184 76.402 229.08 75.592 233.803 74.782C247.992 72.388 262.68 69.922 277.176 72.118ZM254.405 280.342C258.475 287.326 258.706 295.39 258.936 303.202C259.07 308.296 259.224 313.552 260.434 318.448C263.813 332.11 275.006 343.882 295.704 355.528C308.894 362.962 322.891 369.262 337.33 374.302L341.131 375.598C357.106 381.088 375.23 387.316 382.488 402.076C386.77 410.824 386.405 421.948 381.509 431.83C381.048 432.748 380.568 433.648 380.03 434.548H377.822C378.552 433.396 379.186 432.244 379.762 431.074C384.427 421.66 384.792 411.094 380.741 402.832C374.532 390.171 360.22 384.192 345.473 379.023L343.802 378.441C342.688 378.055 341.572 377.672 340.459 377.29L336.658 375.976C322.123 370.918 308.011 364.564 294.706 357.076C273.547 345.16 262.066 333.01 258.571 318.862C257.304 313.786 257.15 308.422 257.016 303.256C256.786 295.3 256.574 287.794 252.715 281.188C244.92 267.778 225.144 264.898 210.494 269.002C197.842 272.53 186.84 280.09 176.203 287.398C173.746 289.072 171.288 290.764 168.811 292.384C140.856 310.888 107.371 325.378 63.4224 337.96C37.752 345.322 8.4144 352.072 -21 349.948V348.13C8.1456 350.272 37.3104 343.54 62.8464 336.232C106.603 323.704 139.915 309.304 167.717 290.926C170.174 289.288 172.613 287.614 175.07 285.94C185.842 278.542 196.978 270.892 209.938 267.274C225.317 262.972 246.11 266.086 254.405 280.342ZM224.414 331.588C227.563 336.07 228.946 341.326 230.29 346.42C230.693 347.968 231.096 349.498 231.538 351.01C237.566 371.278 253.138 387.37 272.184 393.04C276.85 394.426 281.784 395.236 286.546 396.01C290.213 396.604 294.014 397.216 297.701 398.098C308.165 400.6 315.787 405.208 319.723 411.436C324.427 418.888 323.525 427.24 320.779 434.548H318.763C321.528 427.51 322.565 419.446 318.072 412.354C313.426 405.01 304.171 401.5 297.221 399.844C293.611 398.98 289.848 398.368 286.219 397.774C281.381 397 276.389 396.19 271.608 394.768C251.947 388.918 235.877 372.34 229.694 351.496C229.234 349.966 228.83 348.418 228.427 346.852C227.122 341.92 225.778 336.79 222.821 332.578C215.736 322.534 201.067 319.96 189.682 321.886C178.507 323.776 168.254 329.176 158.366 334.414L155.122 336.106C113.304 357.994 50.5008 382.168 -21 380.71V378.928C50.0976 380.386 112.574 356.32 154.2 334.54L157.406 332.83C167.448 327.538 177.835 322.048 189.336 320.122C201.355 318.088 216.85 320.86 224.414 331.588ZM187.378 375.472C192.006 379.019 194.586 384.079 196.936 389.127L197.573 390.502C199.243 394.12 200.971 397.846 203.371 401.014C208.978 408.376 218.117 412.588 226.93 416.656C228.274 417.268 229.598 417.88 230.904 418.51C235.032 420.454 239.678 422.884 242.309 426.934C243.864 429.31 244.574 432.01 244.978 434.548H243.038C242.654 432.28 242.002 429.904 240.677 427.87C238.296 424.234 233.938 421.948 230.04 420.112C228.734 419.5 227.41 418.888 226.085 418.276L224.332 417.465C215.85 413.531 207.312 409.299 201.816 402.058C199.282 398.728 197.515 394.912 195.806 391.204C193.253 385.678 190.853 380.458 186.168 376.876C180.677 372.682 172.152 371.35 163.378 373.33C156.619 374.842 150.283 377.956 144.158 380.962C143.064 381.502 141.989 382.024 140.914 382.546C90.072 407.026 32.3184 413.92 -21 418.204V416.404C32.1072 412.12 89.5536 405.244 140.03 380.944C141.106 380.422 142.181 379.9 143.256 379.36C149.496 376.318 155.947 373.15 162.936 371.584C172.421 369.442 181.33 370.864 187.378 375.472ZM161.458 427.726C164.453 429.544 167.237 431.722 169.944 433.81L170.885 434.548H167.87C165.49 432.676 163.013 430.822 160.421 429.238C147.307 421.318 129.47 419.914 107.371 425.08C100.824 426.61 94.2576 428.572 87.9024 430.462C83.1984 431.848 78.3984 433.288 73.56 434.548H65.9952C73.2336 432.946 80.3568 430.822 87.3264 428.752C93.7008 426.844 100.306 424.882 106.91 423.334C129.528 418.042 147.883 419.518 161.458 427.726ZM112.69 151.606C151.109 136.468 231.058 104.986 260.549 120.178C266.674 123.328 270.398 128.35 271.608 135.1C276.595 162.732 246.123 195.902 229.189 211.883L228.03 212.97C225.759 215.087 223.773 216.859 222.206 218.224C195.902 241.138 164.376 258.346 131.659 275.392C92.1072 296.02 47.2752 319.384 -1.5504 320.932C-2.9712 320.986 -4.392 321.004 -5.7744 321.004C-11.2656 321.004 -16.3344 320.644 -21 319.906V318.088C-15.2016 319.024 -8.7504 319.366 -1.608 319.132C46.7568 317.602 91.3776 294.346 130.738 273.826C163.339 256.834 194.75 239.698 220.901 216.91C233.784 205.678 275.352 166.654 269.707 135.406C268.594 129.232 265.195 124.642 259.627 121.762C230.962 106.984 151.57 138.25 113.438 153.262C105.336 156.448 98.9616 158.968 95.1984 160.21C56.6064 172.9 13.2336 187.156 -21 212.68V210.376C13.2912 185.23 56.2608 171.082 94.5648 158.5C98.2704 157.294 104.626 154.774 112.69 151.606ZM68.3184 198.856C78.8208 195.292 95.064 194.662 105.95 201.718C112.613 206.038 116.203 212.644 116.299 220.816C116.434 230.806 110.194 240.706 97.2336 251.056C79.3392 265.366 58.008 276.4 33.7968 283.888C20.7216 287.938 9.4512 289.918 -0.686402 289.918C-5.3136 289.918 -9.7296 289.504 -13.9536 288.676C-16.0848 288.28 -18.792 287.596 -21 286.174V283.852C-18.984 285.688 -15.8928 286.462 -13.5696 286.93C-0.379202 289.468 14.4816 287.956 33.2016 282.178C57.1632 274.762 78.2832 263.836 95.9856 249.688C108.485 239.698 114.494 230.266 114.379 220.834C114.283 213.166 111.077 207.226 104.856 203.194C96.0048 197.452 81.2592 196.372 68.9904 200.548L63.96 202.258C42.1296 209.656 19.5504 217.288 1.6944 231.598C-9.4608 240.544 -17.3136 251.398 -21 262.648V257.32C-16.7376 247.474 -9.4032 238.114 0.446398 230.23C9.5088 222.976 19.7232 217.414 30.4176 212.752C41.1312 208.072 52.3056 204.292 63.3072 200.566L68.3184 198.856ZM203.947 152.668C214.853 152.092 222.974 155.08 226.238 160.822C229.406 166.366 227.698 173.746 221.419 181.594C209.419 196.624 189.413 205.912 169.598 205.912C168.312 205.912 167.006 205.876 165.72 205.786C163.474 205.642 161.112 205.39 158.962 204.4C153.182 201.736 151.493 195.04 151.781 190.126C152.357 180.55 158.923 170.884 169.31 164.278C174.59 160.93 180.466 158.176 186.418 156.178C192.35 154.18 198.379 152.956 203.947 152.668ZM206.52 154.396C205.714 154.396 204.888 154.432 204.043 154.468C193.253 155.026 180.677 159.238 170.405 165.772C165.451 168.904 161.419 172.774 158.539 176.968C155.678 181.18 153.989 185.716 153.701 190.234C153.432 194.59 154.872 200.512 159.806 202.78C161.65 203.626 163.8 203.86 165.854 203.986C186.264 205.264 207.48 196.048 219.883 180.514C225.682 173.26 227.352 166.564 224.549 161.668C221.88 156.988 215.39 154.396 206.52 154.396Z"
          fill="#575445" fill-opacity="0.09"/>
</svg>
