<svg width="470" height="411" viewBox="0 0 470 411" fill="none" xmlns="http://www.w3.org/2000/svg">
    <path fill-rule="evenodd" clip-rule="evenodd"
          d="M423.881 100.598C440.95 104.036 457.346 106.592 470.402 101.678V107.384C454.62 112.298 435.977 108.554 422.671 105.872C293.858 79.952 187.337 82.796 96.9815 114.602C50.0567 131.108 21.2951 154.13 11.4647 183.038C7.04869 196.034 6.64551 210.056 6.26151 223.61C5.41671 253.742 4.51435 284.9 13.9799 314.15C19.4135 330.998 28.6103 348.152 42.0887 366.584C49.6343 376.898 59.0807 388.292 71.8679 394.574C83.0423 400.082 95.9639 401.45 109.327 402.476C126.319 403.772 143.541 404.6 160.572 404.942C170.018 405.122 178.447 405.032 186.012 401.99C195.458 398.156 202.428 389.948 208.572 382.712L283.644 294.26C296.777 278.78 311.676 261.23 331.26 250.088C348.617 240.188 375.074 233.798 397.25 245.498C401.59 247.802 405.506 250.664 409.289 253.436C412.802 256.028 416.124 258.476 419.772 260.492C434.748 268.79 452.45 268.592 470.402 264.56V269.996C442.927 275.972 427.932 271.274 416.853 265.136C412.86 262.94 409.231 260.276 405.737 257.702C401.954 254.93 398.383 252.302 394.428 250.214C377.935 241.502 354.319 243.266 334.236 254.696C315.554 265.334 301.615 281.75 288.137 297.626L213.084 386.078C206.825 393.44 199.068 402.584 188.297 406.94C181.154 409.82 173.417 410.396 165.429 410.396C163.778 410.396 162.108 410.378 160.437 410.342C143.311 410 125.954 409.154 108.866 407.858C94.8887 406.778 81.3334 405.338 69.199 399.362C55.279 392.522 45.2951 380.498 37.3463 369.644C23.5223 350.744 14.0759 333.104 8.45028 315.716C0.0428943 289.671 -0.413044 262.508 0.17649 235.859L0.260689 232.309C0.275552 231.718 0.290759 231.127 0.306275 230.536L0.402251 226.997C0.434989 225.819 0.468278 224.642 0.501509 223.466C0.904709 209.534 1.30786 195.134 5.97346 181.4C16.3607 150.836 46.3127 126.662 94.9655 109.544C186.377 77.36 293.974 74.444 423.881 100.598ZM116.297 134.438C164.796 119.516 255.074 91.742 288.06 154.526C296.297 170.222 297.948 189.806 292.706 209.696C288.559 225.464 280.341 241.466 266.882 260.06C253.807 278.132 237.698 296.312 216.194 317.282C199.413 333.644 184.591 346.388 166.793 355.334C152.508 362.516 137.801 366.188 123.9 366.188C117.142 366.188 110.594 365.324 104.373 363.578C85.5575 358.304 68.3351 344.084 57.1031 324.554C46.8119 306.644 42.0887 286.412 38.5367 267.224C32.9687 237.2 29.8007 202.91 48.4055 176.162C64.9367 152.384 95.0807 140.954 116.297 134.438ZM286.332 155.318C254.076 93.956 164.834 121.388 116.892 136.148C95.9447 142.592 66.2231 153.842 50.0183 177.152C31.7591 203.378 34.9271 237.236 40.4375 266.918C43.9703 285.962 48.6359 306.014 58.7927 323.69C69.7943 342.806 86.5943 356.72 104.93 361.85C123.228 366.98 145.442 364.028 165.871 353.75C183.458 344.912 198.165 332.276 214.812 316.022C236.239 295.142 252.271 277.034 265.308 259.052C278.633 240.638 286.754 224.816 290.844 209.264C295.989 189.788 294.377 170.636 286.332 155.318ZM124.917 161.474C164.412 147.902 220.533 134.078 251.733 170.636C258.741 178.826 262.255 187.88 262.255 197.636C262.255 202.37 261.429 207.284 259.778 212.342C254.94 227.192 245.167 241.16 236.239 252.86C225.545 266.846 213.372 280.544 199.01 294.728C188.47 305.15 176.815 315.77 163.029 322.916C152.201 328.55 140.604 331.484 129.756 331.484C125.302 331.484 120.962 330.998 116.873 329.99C102.53 326.48 89.4167 316.418 80.9111 302.378C72.8663 289.004 69.4679 273.56 67.2023 260.186C66.9335 258.692 66.7031 257.18 66.4727 255.668C63.8807 238.298 61.9991 212.918 75.6503 193.244C84.9623 179.834 100.61 169.736 124.917 161.474ZM194.498 149.018C170.997 149.018 146.037 156.128 125.589 163.166C101.685 171.284 86.3255 181.148 77.2631 194.216C63.9575 213.404 65.8199 238.334 68.3735 255.416C68.6039 256.928 68.8343 258.422 69.0839 259.916C71.3303 273.11 74.6903 288.374 82.5815 301.478C90.8375 315.122 103.509 324.878 117.353 328.244C130.946 331.574 147.266 329.072 162.089 321.35C175.644 314.312 187.183 303.8 197.628 293.486C211.932 279.374 224.047 265.73 234.684 251.798C243.516 240.224 253.193 226.418 257.954 211.82C262.812 196.916 260.22 183.434 250.236 171.752C243.017 163.292 234.396 157.604 224.911 154.04C215.446 150.476 205.116 149.018 194.498 149.018ZM133.519 188.528C158.594 178.07 203.1 171.194 218.018 186.026C228.117 195.332 232.246 202.37 226.85 215.024C222.242 225.824 213.142 236.642 205.846 245.336L205.577 245.66C198.357 254.246 190.486 263.408 181.826 272.192C175.26 278.834 167.983 285.674 159.266 290.498C151.778 294.692 143.484 296.924 135.708 296.924C133.557 296.924 131.446 296.744 129.391 296.402C119.446 294.692 110.46 288.806 104.738 280.202C98.9591 271.526 96.9431 261.194 95.8487 253.148C95.7143 252.194 95.5991 251.222 95.4839 250.232C93.6023 233.33 96.0406 220.262 102.914 210.308C110.748 198.932 124.13 192.434 133.519 188.528ZM187.893 179.348C170.21 179.348 149.071 184.01 134.306 190.166C119.734 196.232 110.287 202.946 104.527 211.28C97.9031 220.892 95.5607 233.564 97.4039 250.052C97.4999 251.006 97.6342 251.978 97.7494 252.932C98.8246 260.78 100.783 270.878 106.37 279.248C111.804 287.42 120.329 293.018 129.737 294.638C138.703 296.168 149.109 294.098 158.287 288.95C166.793 284.234 173.954 277.52 180.425 270.968C189.026 262.238 196.879 253.112 204.06 244.544L204.329 244.22C211.567 235.616 220.553 224.906 225.065 214.358C229.596 203.738 227.638 197.42 216.655 187.304L216.636 187.286C210.972 181.634 200.277 179.348 187.893 179.348ZM178.505 202.838C188.508 202.064 194.268 203.522 196.092 207.266C199.308 213.812 189.042 225.167 177.633 235.926L176.525 236.965C176.34 237.138 176.155 237.31 175.97 237.483L174.857 238.514C172.188 240.98 169.749 243.788 167.407 246.506C163.855 250.592 160.188 254.804 155.58 258.044C151.356 261.014 145.826 262.85 140.585 262.85C135.996 262.85 131.637 261.446 128.623 258.116C125.781 255.002 124.399 250.502 124.495 244.724C124.649 237.524 127.164 231.494 130.697 226.58C134.21 221.666 138.722 217.868 142.831 215.078C152.681 208.382 166.025 203.81 178.505 202.838ZM194.345 208.022C192.943 205.124 187.529 203.954 178.658 204.638C143.119 207.392 126.722 229.766 126.415 244.76C126.319 250.07 127.548 254.174 130.082 256.946C135.842 263.264 147.209 261.68 154.428 256.604C158.844 253.508 162.434 249.368 165.909 245.372C168.29 242.618 170.767 239.774 173.513 237.236C174.115 236.681 174.808 236.043 175.567 235.335L176.348 234.605C184.092 227.336 197.314 214.065 194.345 208.022ZM351.093 121.118C365.071 121.388 379.125 123.224 392.719 125.024C400.879 126.086 409.327 127.202 417.641 127.94C438.742 129.848 455.887 128.894 470.402 124.898V126.77C455.753 130.712 438.569 131.648 417.468 129.74C409.097 128.984 400.63 127.868 392.45 126.806C378.914 125.024 364.918 123.188 351.055 122.918C344.758 122.81 337.692 123.26 333.468 127.562C328.169 132.908 330.146 141.368 331.241 144.752C331.97 147.038 332.93 149.306 333.871 151.52C335.426 155.174 337.02 158.954 337.673 162.95C338.421 167.54 337.884 172.202 337.366 176.702C337.116 178.844 336.866 181.076 336.751 183.254C336.521 187.898 337.039 196.376 343.145 200.876C348.597 204.872 355.701 204.188 363.247 203.45C367.356 203.054 371.618 202.622 375.669 203.018C385.519 203.972 393.641 209.66 401.493 215.15C404.066 216.932 406.716 218.804 409.366 220.442C427.145 231.44 449.762 234.788 470.402 230.27V232.124C464.45 233.384 458.364 234.014 452.258 234.014C436.764 234.014 421.289 229.964 408.309 221.936C405.621 220.262 402.934 218.408 400.361 216.59L398.875 215.554C391.673 210.55 384.189 205.66 375.477 204.818C371.618 204.44 367.471 204.854 363.439 205.232C355.855 205.988 348.021 206.744 341.954 202.28C335.177 197.294 334.582 188.168 334.831 183.164C334.946 180.932 335.215 178.682 335.465 176.504C335.964 172.112 336.501 167.576 335.772 163.22C335.157 159.422 333.602 155.75 332.086 152.186C331.145 149.936 330.165 147.632 329.397 145.274C328.207 141.584 326.095 132.386 332.047 126.338C336.809 121.532 344.335 121.01 351.093 121.118ZM470.402 148.334V150.206C448.265 156.002 424.437 154.184 403.106 152.546C394.389 151.88 382.255 151.88 377.628 159.584C374.153 165.398 377.167 172.994 381.775 177.188C386.825 181.796 393.948 184.064 400.898 185.846C425.167 192.038 448.802 193.532 470.402 190.364V192.182C463.068 193.262 455.541 193.784 447.823 193.784C432.559 193.784 416.604 191.714 400.399 187.574C393.199 185.738 385.807 183.38 380.431 178.484C375.19 173.696 371.964 165.362 375.957 158.702C381.122 150.098 394.006 150.044 403.26 150.764C424.61 152.402 448.457 154.22 470.402 148.334ZM114.108 -13C113.205 6.098 109.653 24.944 103.509 43.304C101.033 50.666 98.8439 58.946 103.951 64.022C108.022 68.054 114.914 67.982 120.444 67.478C132.54 66.362 144.617 63.662 156.271 61.07C161.206 59.972 166.313 58.82 171.362 57.812C234.805 45.1768 299.324 50.5919 365.186 59.4121L370.007 60.0633C373.223 60.5013 376.442 60.9465 379.665 61.3972L384.501 62.0772C385.307 62.1912 386.114 62.3055 386.921 62.42C412.514 66.056 442.543 70.322 470.402 65.84V67.676C461.877 69.044 453.142 69.584 444.406 69.584C424.457 69.584 404.489 66.74 386.633 64.202C381.803 63.516 376.981 62.8397 372.166 62.1787L367.354 61.523C300.818 52.5292 235.685 46.836 171.766 59.576C166.735 60.584 161.647 61.718 156.713 62.816C144.981 65.426 132.866 68.126 120.636 69.26C115.126 69.764 107.253 69.908 102.549 65.246C96.7318 59.468 99.0551 50.612 101.686 42.764C107.753 24.602 111.266 5.9 112.169 -13H114.108ZM151.26 -13C151.682 -2.56 149.359 7.97 144.482 17.348L144.194 17.906C143.273 19.652 142.332 21.452 142.274 23.288C142.121 27.338 146.306 30.56 150.453 31.334C154.812 32.162 159.42 31.064 163.855 30.002L164.066 29.948C210.07 18.95 257.417 14.648 304.821 17.186C318.991 17.942 333.353 19.328 347.234 20.678C365.685 22.46 384.77 24.314 403.606 24.674C429.084 25.196 451.183 22.802 470.402 17.42V19.292C451.125 24.62 429.007 26.996 403.567 26.474C384.655 26.096 365.532 24.26 347.042 22.46C333.18 21.128 318.838 19.724 304.706 18.968C257.513 16.466 210.358 20.732 164.546 31.694L164.335 31.748C160.86 32.576 157.289 33.422 153.698 33.422C152.489 33.422 151.279 33.332 150.069 33.098C145.154 32.18 140.162 28.238 140.354 23.216C140.431 21.002 141.468 19.022 142.466 17.114L142.773 16.556C147.516 7.412 149.781 -2.848 149.359 -13H151.26Z"
          fill="#575445" fill-opacity="0.09"/>
</svg>
