<svg width="185" height="65" viewBox="0 0 185 65" fill="none" xmlns="http://www.w3.org/2000/svg">
    <path fill-rule="evenodd" clip-rule="evenodd"
          d="M135.233 -11.2257C158.674 9.74998 202.307 48.7958 176.715 87.042C170.314 96.5984 159.67 103.919 146.728 107.661C136.47 110.633 124.825 111.509 110.089 110.44C95.7687 109.404 80.4521 106.785 61.8843 102.204C47.396 98.6284 35.5715 94.9084 24.993 88.3516C16.5017 83.0898 9.87908 76.4485 5.59614 69.0302C3.51382 65.4236 1.98862 61.6455 1.06627 57.7517C-1.72759 45.9763 1.06423 32.1099 8.72572 19.6945C15.7545 8.31376 25.8212 -0.859016 35.6542 -9.06351C51.0371 -21.9067 69.5888 -34.8717 90.5539 -33.7378C109.189 -32.7338 124.986 -20.4054 135.233 -11.2257ZM175.731 86.3802C200.738 48.991 157.62 10.386 134.443 -10.3459C124.319 -19.4057 108.755 -31.568 90.487 -32.5516C69.9257 -33.6727 51.62 -20.8497 36.4141 -8.14974C26.6572 -0.00284147 16.6753 9.08001 9.73834 20.3121C2.24163 32.4684 -0.506066 46.0088 2.22191 57.4806C4.93805 68.932 13.4636 79.8163 25.6111 87.3389C36.063 93.8186 47.7905 97.5126 62.1759 101.052C80.6688 105.621 95.9207 108.223 110.178 109.268C124.77 110.324 136.283 109.456 146.4 106.525C159.077 102.868 169.487 95.7099 175.731 86.3802ZM122.492 2.26416C142.39 18.8783 167.554 44.2827 156.348 72.953C153.843 79.3857 149.769 84.2377 144.213 87.4454C141.517 89.002 138.465 90.1771 135.075 90.9589C125.128 93.2595 114.162 92.6368 104.748 91.7192C93.4881 90.6106 81.9367 88.6183 69.4341 85.6178C60.2511 83.4193 50.6123 80.6916 42.2953 75.6844C35.7503 71.758 30.5064 66.5339 27.164 60.7448C25.7916 58.3677 24.7314 55.8922 24.0455 53.3784C21.6254 44.5703 23.3152 34.2638 28.6902 25.1084C33.8279 16.4179 41.5761 9.52643 48.4944 3.92006C49.2624 3.28539 50.0525 2.6653 50.8425 2.04521C59.936 -5.04922 73.8099 -14.3982 89.2202 -13.5818C99.7261 -13.0216 110.298 -7.99107 122.492 2.26416ZM151.024 35.301C143.784 22.7597 132.044 11.7773 121.736 3.1791C109.748 -6.9083 99.3978 -11.8621 89.1635 -12.4016C74.1366 -13.1933 60.513 -4.00251 51.5717 2.97673C50.7816 3.59682 50.0018 4.211 49.2279 4.83542C42.4061 10.3724 34.7487 17.1842 29.7174 25.7039C24.491 34.5959 22.8394 44.5662 25.1877 53.0604C27.4796 61.4097 33.9327 69.2963 42.8973 74.6674C51.0818 79.5872 60.6236 82.2889 69.7155 84.4717C82.1593 87.4652 93.6622 89.4444 104.874 90.5401C114.186 91.4479 125.03 92.0726 134.811 89.8139C144.795 87.5058 151.674 81.6898 155.251 72.5207C157.844 65.8865 158.428 59.4158 157.535 53.1823C156.648 46.9591 154.296 40.9672 151.024 35.301ZM109.736 15.7497C123.417 25.6928 141.046 47.1827 137.195 60.0208C135.007 68.4701 132.271 72.9871 123.403 74.2685C115.832 75.3604 106.867 74.0606 99.6684 73.0255L99.401 72.9886C92.2871 71.9591 84.644 70.7705 76.9736 69.0376C71.1679 67.7173 65.0305 66.0829 59.5976 63.0172C54.902 60.4002 51.0754 56.7077 48.6795 52.558C48.017 51.4104 47.4687 50.2241 47.0305 49.0153C44.94 43.1455 45.5235 36.415 48.6606 30.5326C51.8209 24.5959 57.0837 20.1229 61.3286 16.8934C61.8305 16.508 62.3486 16.1269 62.8769 15.7399C71.9227 9.1785 80.1161 6.18306 87.9026 6.57839C96.7947 7.01847 104.619 12.0236 109.736 15.7497ZM131.717 41.7487C126.268 32.3119 117.1 22.5637 109.045 16.7084C101.101 10.926 94.3668 8.09235 87.846 7.75866C80.3311 7.38409 72.3928 10.3006 63.571 16.7054C63.0572 17.0703 62.5451 17.4616 62.0373 17.8367C57.8992 20.9909 52.7519 25.3562 49.7067 31.0899C46.7269 36.6765 46.1655 43.0664 48.1416 48.6197C50.0329 53.9078 54.418 58.7806 60.1775 61.9857C65.4838 64.9742 71.5139 66.5885 77.2388 67.8872C84.8607 69.6071 92.4774 70.7973 99.5692 71.8122L99.8366 71.8492C106.967 72.883 115.834 74.1569 123.232 73.0966C130.676 72.0229 133.67 68.9004 136.048 59.7135L136.052 59.6973C137.526 54.8163 135.532 48.3575 131.717 41.7487ZM115.447 44.4617C118.97 49.5455 119.914 53.0988 118.344 55.3032C115.711 59.0238 106.703 57.5519 97.4402 55.1643L96.8154 55.002C96.7113 54.9747 96.6071 54.9473 96.5029 54.9199L95.8777 54.7539C95.2526 54.5869 94.628 54.4169 94.0056 54.2451C91.7789 53.6316 89.4285 53.2536 87.1589 52.8973C83.7376 52.3452 80.209 51.773 76.9441 50.3792C73.9512 49.1016 71.2019 46.7543 69.5869 43.9571C68.1731 41.5083 67.6298 38.7207 68.5974 36.0172C69.4953 33.4769 71.6321 31.2596 74.9522 29.411C79.0999 27.1256 83.3089 26.4853 87.1958 26.7549C91.0769 27.0142 94.63 28.1733 97.4848 29.4487C104.333 32.5034 111.048 38.1213 115.447 44.4617ZM117.375 54.6194C118.593 52.9185 117.592 49.6444 114.469 45.1355C101.951 27.0752 84.1569 25.6814 75.5233 30.4475C72.4697 32.1421 70.5111 34.1473 69.7133 36.4112C67.89 41.5624 72.2942 47.1074 77.4092 49.291C80.5329 50.6297 83.9969 51.1845 87.3433 51.7252C89.6452 52.0902 92.028 52.4769 94.3193 53.1076C96.4153 53.6885 99.8325 54.6331 103.422 55.358L103.99 55.4706C104.18 55.5074 104.37 55.5436 104.56 55.579L105.13 55.6827C110.458 56.6275 115.765 56.8953 117.375 54.6194Z"
          fill="#57554D" fill-opacity="0.4"/>
</svg>
