<svg width="185" height="43" viewBox="0 0 185 43" fill="none" xmlns="http://www.w3.org/2000/svg">
    <path fill-rule="evenodd" clip-rule="evenodd"
          d="M135.267 18.706C158.708 35.7488 202.34 67.4735 176.748 98.5485C170.348 106.313 159.703 112.261 146.761 115.302C136.504 117.716 124.859 118.428 110.123 117.559C95.8024 116.718 80.4858 114.59 61.918 110.868C47.4297 107.962 35.6052 104.94 25.0267 99.6126C16.5354 95.3374 9.91278 89.9413 5.62984 83.914C3.54752 80.9836 2.02232 77.9139 1.09997 74.7501C-1.69389 65.1826 1.09793 53.9162 8.75943 43.8287C15.7882 34.5819 25.8549 27.129 35.6879 20.4628C51.0708 10.0278 69.6225 -0.506342 90.5876 0.415013C109.222 1.23069 125.019 11.2476 135.267 18.706ZM175.765 98.0109C200.772 67.6321 157.653 36.2655 134.476 19.4209C124.353 12.0598 108.788 2.17797 90.5207 1.37879C69.9594 0.467841 51.6537 10.8865 36.4478 21.2053C26.6909 27.8246 16.709 35.2044 9.77204 44.3305C2.27533 54.2075 -0.472368 65.209 2.25561 74.5299C4.97175 83.8342 13.4973 92.6777 25.6448 98.7898C36.0967 104.055 47.8242 107.056 62.2096 109.932C80.7025 113.644 95.9544 115.758 110.212 116.607C124.804 117.465 136.317 116.76 146.433 114.379C159.11 111.407 169.52 105.591 175.765 98.0109ZM122.526 29.6666C142.424 43.1655 167.588 63.8067 156.382 87.1012C153.877 92.3278 149.803 96.2701 144.247 98.8764C141.551 100.141 138.498 101.096 135.109 101.731C125.161 103.6 114.196 103.094 104.782 102.349C93.5218 101.448 81.9704 99.8293 69.4678 97.3914C60.2848 95.6051 50.646 93.3889 42.329 89.3205C35.784 86.1303 30.5401 81.8858 27.1977 77.1821C25.8253 75.2507 24.7651 73.2394 24.0791 71.1968C21.6591 64.0403 23.3489 55.6663 28.7239 48.2275C33.8616 41.1665 41.6097 35.5672 48.5281 31.012C49.2961 30.4963 50.0862 29.9925 50.8762 29.4887C59.9697 23.7244 73.8436 16.1284 89.2539 16.7917C99.7598 17.2469 110.332 21.3342 122.526 29.6666ZM151.058 56.509C143.817 46.3192 132.078 37.396 121.77 30.41C109.782 22.2139 99.4315 18.189 89.1972 17.7507C74.1703 17.1074 60.5467 24.5749 51.6054 30.2455C50.8153 30.7494 50.0355 31.2484 49.2616 31.7557C42.4398 36.2545 34.7824 41.7891 29.7511 48.7114C24.5247 55.9361 22.8731 64.0369 25.2214 70.9385C27.5133 77.7223 33.9664 84.1302 42.9309 88.4942C51.1155 92.4916 60.6573 94.6867 69.7492 96.4602C82.193 98.8924 93.6959 100.501 104.907 101.391C114.22 102.128 125.064 102.636 134.844 100.801C144.829 98.9254 151.708 94.1999 155.285 86.75C157.878 81.3597 158.461 76.1023 157.569 71.0376C156.682 65.9812 154.33 61.1128 151.058 56.509ZM109.769 40.6236C123.451 48.7023 141.079 66.1629 137.229 76.5938C135.041 83.4589 132.305 87.1289 123.436 88.1701C115.866 89.0572 106.901 88.0011 99.7021 87.1602L99.4347 87.1302C92.3208 86.2937 84.6777 85.328 77.0073 83.92C71.2016 82.8472 65.0642 81.5193 59.6313 79.0284C54.9357 76.9021 51.1091 73.9019 48.7132 70.5303C48.0507 69.5979 47.5024 68.634 47.0642 67.6519C44.9737 62.8827 45.5572 57.4141 48.6943 52.6347C51.8546 47.8111 57.1174 44.1768 61.3623 41.5528C61.8642 41.2397 62.3823 40.9301 62.9106 40.6156C71.9564 35.2845 80.1498 32.8507 87.9363 33.1719C96.8284 33.5294 104.652 37.5961 109.769 40.6236ZM131.75 61.7478C126.302 54.0804 117.134 46.1599 109.079 41.4025C101.135 36.7043 94.4005 34.402 87.8797 34.1308C80.3648 33.8265 72.4265 36.1961 63.6046 41.4001C63.0909 41.6965 62.5788 42.0145 62.071 42.3193C57.9329 44.8821 52.7856 48.4289 49.7404 53.0875C46.7606 57.6266 46.1992 62.8184 48.1753 67.3305C50.0666 71.627 54.4517 75.5862 60.2112 78.1903C65.5175 80.6185 71.5476 81.9301 77.2725 82.9853C84.8944 84.3827 92.5111 85.3497 99.6029 86.1744L99.8703 86.2044C107 87.0444 115.868 88.0794 123.265 87.2179C130.709 86.3455 133.704 83.8085 136.081 76.3441L136.086 76.331C137.559 72.3652 135.566 67.1175 131.75 61.7478ZM115.48 63.9521C119.003 68.0827 119.948 70.9697 118.377 72.7608C115.745 75.7838 106.737 74.5879 97.4739 72.6479L96.8491 72.516C96.7449 72.4939 96.6408 72.4716 96.5366 72.4493L95.9114 72.3145C95.2863 72.1788 94.6617 72.0407 94.0392 71.9011C91.8126 71.4026 89.4622 71.0955 87.1926 70.806C83.7713 70.3574 80.2427 69.8925 76.9777 68.7601C73.9849 67.722 71.2356 65.8148 69.6206 63.5421C68.2068 61.5524 67.6635 59.2875 68.6311 57.0909C69.529 55.0269 71.6658 53.2253 74.9859 51.7234C79.1336 49.8665 83.3426 49.3462 87.2295 49.5653C91.1106 49.776 94.6637 50.7178 97.5185 51.754C104.367 54.2359 111.082 58.8005 115.48 63.9521ZM117.409 72.2052C118.627 70.8232 117.625 68.163 114.503 64.4996C101.984 49.8256 84.1906 48.6931 75.557 52.5655C72.5034 53.9424 70.5448 55.5716 69.747 57.411C67.9237 61.5964 72.3278 66.1017 77.4429 67.8759C80.5666 68.9635 84.0306 69.4143 87.377 69.8537C89.6789 70.1502 92.0616 70.4644 94.353 70.9769C96.449 71.4489 99.8662 72.2163 103.456 72.8053L104.024 72.8968C104.213 72.9267 104.403 72.9561 104.593 72.9849L105.164 73.0691C110.491 73.8368 115.799 74.0543 117.409 72.2052Z"
          fill="#575445" fill-opacity="0.4"/>
</svg>
