<svg width="153" height="65" viewBox="0 0 153 65" fill="none" xmlns="http://www.w3.org/2000/svg">
<path fill-rule="evenodd" clip-rule="evenodd" d="M50.5738 -28.3969C80.4597 -38.2095 136.091 -56.4734 156.417 -15.1872C161.493 -4.86564 162.51 8.01264 159.28 21.0921C156.725 31.4611 151.661 41.9838 143.367 54.2111C135.31 66.0951 125.383 78.0501 112.132 91.8398C101.792 102.599 92.6579 110.98 81.6902 116.863C72.8877 121.585 63.8249 124 55.259 124C51.0944 124 47.0599 123.432 43.2265 122.284C31.6318 118.816 21.0191 109.465 14.0978 96.6218C7.75618 84.8444 4.84567 71.54 2.65687 58.9221C-0.774217 39.1785 -2.72639 16.6297 8.73818 -0.959545C18.925 -16.5958 37.5002 -24.112 50.5738 -28.3969ZM155.352 -14.6664C135.475 -55.0175 80.4834 -36.9785 50.9406 -27.2724C38.0326 -23.0349 19.7177 -15.637 9.73201 -0.308525C-1.51959 16.9375 0.432579 39.2022 3.82817 58.7209C6.00514 71.244 8.88015 84.4301 15.1389 96.0537C21.9183 108.624 32.2707 117.774 43.5696 121.147C54.8449 124.521 68.5338 122.58 81.1223 115.821C91.9598 110.009 101.023 101.7 111.28 91.0112C124.484 77.2807 134.363 65.3731 142.397 53.5482C150.608 41.4394 155.612 31.0349 158.132 20.8081C161.303 8.0008 160.309 -4.5934 155.352 -14.6664ZM55.8861 -10.6182C80.2231 -19.5431 114.806 -28.6336 134.032 -4.5934C138.35 0.792282 140.516 6.74612 140.516 13.1616C140.516 16.2746 140.007 19.506 138.989 22.8321C136.008 32.5974 129.986 41.7826 124.484 49.4764C117.894 58.6735 110.393 67.6812 101.543 77.0085C95.0478 83.8619 87.8662 90.8455 79.3713 95.5447C72.6984 99.2496 65.5523 101.179 58.8676 101.179C56.1227 101.179 53.4488 100.859 50.9287 100.196C42.0907 97.8884 34.0099 91.2717 28.7686 82.0391C23.8113 73.2444 21.7172 63.0886 20.3211 54.294C20.1554 53.3115 20.0134 52.3172 19.8715 51.323C18.2742 39.9006 17.1148 23.2109 25.5268 10.2734C31.265 1.45514 40.9076 -5.18523 55.8861 -10.6182ZM98.7628 -18.8092C84.2813 -18.8092 68.9005 -14.1337 56.3002 -9.50561C41.5701 -4.16727 32.1051 2.31921 26.5207 10.9126C18.3216 23.5305 19.4692 39.9243 21.0428 51.1572C21.1847 52.1515 21.3267 53.134 21.4805 54.1164C22.8648 62.7927 24.9353 72.8302 29.798 81.4472C34.8854 90.4194 42.6941 96.8349 51.2245 99.0483C59.6011 101.238 69.6577 99.5928 78.7915 94.5149C87.1444 89.8868 94.2551 82.9742 100.691 76.1918C109.506 66.9118 116.971 57.9396 123.526 48.7781C128.968 41.1671 134.931 32.0884 137.865 22.4889C140.859 12.6881 139.261 3.82246 133.109 -3.85952C128.661 -9.42275 123.348 -13.1631 117.504 -15.5068C111.671 -17.8504 105.306 -18.8092 98.7628 -18.8092ZM61.1865 7.17224C76.6382 0.295143 104.063 -4.22646 113.256 5.52694C119.479 11.6465 122.023 16.2746 118.699 24.5958C115.859 31.6978 110.251 38.8116 105.755 44.5287L105.59 44.7418C101.141 50.3879 96.2901 56.4127 90.9541 62.189C86.9078 66.5567 82.4237 71.0547 77.0523 74.2269C72.4381 76.9848 67.327 78.4526 62.5353 78.4526C61.2102 78.4526 59.9087 78.3342 58.6428 78.1093C52.5141 76.9848 46.9771 73.1142 43.4513 67.4563C39.8901 61.751 38.6478 54.9568 37.9734 49.6658C37.8906 49.0385 37.8196 48.3993 37.7486 47.7483C36.5891 36.6337 38.0917 28.0403 42.3273 21.4946C47.1545 14.0138 55.401 9.7408 61.1865 7.17224ZM94.6928 1.13555C83.7962 1.13555 70.7699 4.20124 61.6716 8.24937C52.6916 12.2383 46.8706 16.6534 43.3212 22.1338C39.2394 28.4545 37.7959 36.7875 38.9318 47.6299C38.9909 48.2573 39.0737 48.8964 39.1447 49.5238C39.8073 54.6846 41.0141 61.3249 44.457 66.829C47.8053 72.2028 53.0584 75.884 58.8557 76.9493C64.381 77.9554 70.7935 76.5942 76.4489 73.2089C81.6902 70.1077 86.1033 65.6926 90.0905 61.3841C95.3909 55.6433 100.23 49.6422 104.655 44.0079L104.82 43.7948C109.281 38.1369 114.818 31.0941 117.598 24.1578C120.391 17.1742 119.184 13.0195 112.416 6.36735L112.404 6.35551C108.914 2.6388 102.324 1.13555 94.6928 1.13555ZM88.9073 16.5824C95.0714 16.0734 98.6208 17.0322 99.7448 19.4942C101.651 23.6343 95.8719 30.6997 89.1727 37.5277L88.7198 37.9876C88.6441 38.0642 88.5683 38.1408 88.4924 38.2173L88.0361 38.6757C87.579 39.1336 87.1194 39.5895 86.6594 40.0426C85.0148 41.6642 83.5122 43.5108 82.0688 45.2981C79.88 47.985 77.6202 50.7548 74.7807 52.8854C72.1778 54.8384 68.7704 56.0458 65.5404 56.0458C62.7127 56.0458 60.027 55.1225 58.1695 52.9327C56.4185 50.885 55.5666 47.9258 55.6258 44.1263C55.7204 39.3916 57.2703 35.4263 59.4473 32.1949C61.6124 28.9635 64.3928 26.466 66.9247 24.6313C72.9942 20.2281 81.2169 17.2216 88.9073 16.5824ZM98.6682 19.9913C97.8045 18.0856 94.468 17.3162 89.002 17.766C67.1022 19.5771 56.9982 34.29 56.8089 44.1499C56.7497 47.6418 57.507 50.3405 59.0687 52.1634C62.6181 56.318 69.6222 55.2764 74.0708 51.9385C76.792 49.9025 79.0045 47.1801 81.146 44.5524C82.6131 42.7414 84.1393 40.8712 85.8312 39.2022C87.3823 37.6774 89.9089 35.1903 92.3314 32.4444L92.7128 32.0088C92.8396 31.8629 92.9659 31.7164 93.0917 31.5694L93.4668 31.1271C96.9487 26.9858 99.8343 22.5234 98.6682 19.9913Z" fill="#575445" fill-opacity="0.4"/>
</svg>
