<svg width="63" height="64" viewBox="0 0 63 64" fill="none" xmlns="http://www.w3.org/2000/svg">
    <path fill-rule="evenodd" clip-rule="evenodd"
          d="M61.9114 22.1061L32.1531 0.231666C31.733 -0.077222 31.1693 -0.077222 30.7492 0.231666L17.478 9.98692V6.26054C17.478 5.57125 16.9365 5.01251 16.2683 5.01251H7.76595C7.09784 5.01251 6.55626 5.57125 6.55626 6.26054V18.0151L0.990859 22.1061C0.672349 22.3402 0.483154 22.7188 0.483154 23.1225V33.8293C0.483154 34.2936 0.732954 34.7194 1.13155 34.9348C1.53026 35.1504 2.01171 35.1196 2.38163 34.8552L5.34161 32.7399V62.6513C5.34161 63.3406 5.88319 63.8993 6.5513 63.8993H56.3509C57.0189 63.8993 57.5606 63.3406 57.5606 62.6513V32.7401L60.5206 34.8554C60.7268 35.0027 60.9676 35.0774 61.2095 35.0774C61.876 35.0774 62.4191 34.5191 62.4191 33.8293V23.1225C62.4191 22.7188 62.23 22.3402 61.9114 22.1061ZM8.97563 7.50857H15.0587V11.7652L8.97563 16.2367V7.50857ZM7.76099 61.4033V31.011L31.4511 14.0813L55.1412 31.0112V61.4033H7.76099ZM59.9997 31.4467L32.1399 11.5372C31.7253 11.2411 31.1766 11.2412 30.7622 11.5372L2.90253 31.4467V23.7657L31.4511 2.78052L59.9997 23.7657V31.4467ZM29.3811 46.1579C29.8536 46.6453 30.6195 46.6453 31.092 46.1579L37.1651 39.8923C37.6375 39.4049 37.6375 38.6147 37.1651 38.1272C36.6926 37.6399 35.9269 37.6399 35.4542 38.1272L30.2365 43.5103L27.4481 40.6334C26.9757 40.146 26.2097 40.146 25.7372 40.6334C25.2648 41.1207 25.2648 41.911 25.7372 42.3984L29.3811 46.1579ZM19.8194 29.8111C21.5901 29.1297 22.9098 27.7616 23.6355 25.8546C23.8173 25.3768 24.2639 25.0626 24.7614 25.0627H38.1411C38.6386 25.0627 39.0852 25.3768 39.267 25.8546C39.993 27.7616 41.3125 29.1297 43.0832 29.8111C43.5263 29.9817 43.8325 30.4029 43.867 30.8894L44.8948 45.3819C45.2438 50.3026 42.3832 54.7741 38.0036 56.4554L31.8732 58.8088C31.5976 58.9145 31.2983 58.912 31.0294 58.8088L24.8991 56.4554C20.4157 54.7342 17.667 50.1886 18.0079 45.3819L19.0356 30.8894C19.0702 30.4028 19.3763 29.9816 19.8194 29.8111ZM41.5077 31.8302C39.7064 30.9422 38.2661 29.4608 37.3545 27.5586V27.5588H25.5479C24.6364 29.4609 23.1961 30.9423 21.3946 31.8303L20.4206 45.564C20.151 49.3654 22.3619 52.8178 25.7427 54.1158L31.4513 56.3072L37.1599 54.1157C40.6201 52.7875 42.7452 49.278 42.4818 45.5639L41.5077 31.8302Z"
          fill="black"/>
</svg>
