<svg width="63" height="64" viewBox="0 0 63 64" fill="none" xmlns="http://www.w3.org/2000/svg">
    <path fill-rule="evenodd" clip-rule="evenodd"
          d="M1.5211 0H61.3807C62.0526 0 62.5973 0.558744 62.5973 1.24803V7.7378C62.5973 10.4905 60.4142 12.7299 57.7307 12.7299H56.3924V18.9701C56.3924 19.6594 55.8477 20.2181 55.1757 20.2181H53.9591V40.8107C53.9591 53.5417 43.8619 63.8993 31.4509 63.8993C19.0399 63.8993 8.94271 53.5417 8.94271 40.8107V20.2181H7.72606C7.0541 20.2181 6.5094 19.6594 6.5094 18.9701V12.7299H5.17107C2.48761 12.7299 0.304443 10.4905 0.304443 7.7378V1.24803C0.304443 0.558744 0.849141 0 1.5211 0ZM31.4509 61.4032C42.5202 61.4032 51.5257 52.1654 51.5257 40.8107V20.2181H41.7925V32.1217C44.4226 34.8316 46.0508 38.5657 46.0508 42.6827C46.0508 50.9407 39.5013 57.6591 31.4509 57.6591C23.4005 57.6591 16.851 50.9407 16.851 42.6827C16.851 38.5658 18.4791 34.8317 21.1093 32.1217V20.2181H11.376V40.8107C11.376 52.1654 20.3816 61.4032 31.4509 61.4032ZM43.6175 42.6827C43.6175 35.8011 38.1595 30.2024 31.4509 30.2024C24.7422 30.2024 19.2843 35.8011 19.2843 42.6827C19.2843 49.5644 24.7422 55.1631 31.4509 55.1631C38.1595 55.1631 43.6175 49.5644 43.6175 42.6827ZM23.5426 30.0993C28.3514 26.9082 34.5468 26.9058 39.3592 30.0993V20.2181H23.5426V30.0993ZM8.94271 17.7221H53.9591V12.7299H8.94271V17.7221ZM57.7307 10.2339C59.0724 10.2339 60.164 9.11414 60.164 7.7378V2.49607H2.73776V7.7378C2.73776 9.11414 3.82934 10.2339 5.17107 10.2339H57.7307ZM41.1841 42.6827C41.1841 48.1898 36.8108 52.667 31.4508 52.667C26.0832 52.667 21.7176 48.1818 21.7176 42.6827C21.7176 37.1774 26.0839 32.6985 31.4508 32.6985C36.8177 32.6985 41.1841 37.1774 41.1841 42.6827ZM31.4508 45.1788C30.1091 45.1788 29.0175 46.2985 29.0175 47.6749C29.0175 49.0512 30.1091 50.1709 31.4508 50.1709C32.7926 50.1709 33.8841 49.0512 33.8841 47.6749C33.8841 46.2985 32.7926 45.1788 31.4508 45.1788ZM38.7508 42.6827C38.7508 38.5538 35.476 35.1945 31.4508 35.1945C27.4256 35.1945 24.1509 38.5538 24.1509 42.6827C24.1509 44.9141 25.1084 46.9193 26.6228 48.2924C26.2598 45.2903 28.5518 42.6827 31.4508 42.6827C34.3524 42.6827 36.6416 45.2929 36.2789 48.2924C37.7933 46.9193 38.7508 44.9141 38.7508 42.6827Z"
          fill="black"/>
</svg>
