<svg width="52" height="64" viewBox="0 0 52 64" fill="none" xmlns="http://www.w3.org/2000/svg">
    <path fill-rule="evenodd" clip-rule="evenodd"
          d="M51.1398 32.8464L50.0837 18.4129C50.0481 17.9262 49.7322 17.505 49.2751 17.3346C47.4571 16.6564 46.1021 15.2949 45.3569 13.397C45.1692 12.9193 44.7084 12.6051 44.1951 12.6051H41.1851V4.99213C41.1851 2.23947 38.9456 0 36.193 0H4.99213C2.23947 0 0 2.23947 0 4.99213V58.9072C0 61.6598 2.23947 63.8993 4.99213 63.8993H36.193C38.9456 63.8993 41.1851 61.6598 41.1851 58.9072V44.9479L44.0556 43.8798C48.5675 42.2011 51.4978 37.7395 51.1398 32.8464ZM4.99226 2.49607H36.1931C37.5694 2.49607 38.6892 3.6158 38.6892 4.99213V12.6051H36.1931V6.24017C36.1931 5.55088 35.6342 4.99213 34.9451 4.99213H6.24029C5.551 4.99213 4.99226 5.55088 4.99226 6.24017V51.419H2.49619V4.99213C2.49619 3.6158 3.61593 2.49607 4.99226 2.49607ZM29.2858 13.397C28.5607 15.2438 27.2336 16.6385 25.3678 17.3346C24.9106 17.505 24.5949 17.9262 24.5592 18.4129L23.5031 32.8465C23.1528 37.6358 25.9784 42.165 30.5872 43.8798L33.697 45.037V51.419H7.48832V7.4882H33.697V12.6051H30.4476C29.9343 12.6051 29.4736 12.9193 29.2858 13.397ZM36.1931 61.4032H4.99226C3.61593 61.4032 2.49619 60.2835 2.49619 58.9072V53.915H38.6892V58.9072C38.6892 60.2835 37.5694 61.4032 36.1931 61.4032ZM38.6892 51.419H36.1931V45.9658L36.8862 46.2238C37.1628 46.3266 37.4714 46.3299 37.7567 46.2238L38.6893 45.8768L38.6892 51.419ZM43.1852 41.5405L37.3214 43.7223L31.4577 41.5405C27.9855 40.2486 25.7158 36.812 25.9925 33.0286L26.9932 19.3536C28.8427 18.4691 30.3223 16.9941 31.2591 15.1012H43.384C44.3208 16.9941 45.8003 18.4691 47.6499 19.3536L48.6505 33.0286C48.9207 36.7231 46.741 40.2175 43.1852 41.5405ZM41.4311 25.6182L36.0735 30.9759L33.2118 28.1143C32.7244 27.6269 31.9344 27.6269 31.4467 28.1143C30.9594 28.6017 30.9594 29.3919 31.4467 29.8794L35.1908 33.6235C35.6783 34.1108 36.4683 34.1108 36.9559 33.6235L43.1961 27.3833C43.6835 26.896 43.6835 26.1057 43.1961 25.6182C42.7086 25.1308 41.9186 25.1308 41.4311 25.6182ZM18.7206 56.4112H22.4647C23.154 56.4112 23.7128 56.9699 23.7128 57.6592C23.7128 58.3485 23.154 58.9072 22.4647 58.9072H18.7206C18.0313 58.9072 17.4726 58.3485 17.4726 57.6592C17.4726 56.9699 18.0313 56.4112 18.7206 56.4112Z"
          fill="black"/>
</svg>
