<svg width="555" height="433" viewBox="0 0 555 433" fill="none" xmlns="http://www.w3.org/2000/svg">
    <path fill-rule="evenodd" clip-rule="evenodd"
          d="M338.918 36.3957C364.742 42.5284 393.562 58.2445 396.998 83.973C398.726 96.9714 393.562 109.505 389.011 120.572L361.459 187.513C352.032 210.417 341.357 236.36 345.869 262.142C350.784 290.159 374.976 314.117 404.678 320.411C413.53 322.288 423.072 322.771 432.307 323.254C448.896 324.094 466.042 324.97 480.192 333.821C502.406 347.713 506.726 374.675 507.322 389.515C508.032 407.699 504.307 421.43 495.898 431.514C495.61 431.854 495.322 432.211 494.995 432.551H487.392C488.813 431.085 490.138 429.655 491.347 428.224C498.893 419.177 502.234 406.572 501.562 389.712C501.005 375.891 497.088 350.842 476.986 338.273C464.73 330.602 449.915 329.542 434.182 328.715L431.981 328.6C422.515 328.117 412.723 327.616 403.411 325.65C371.462 318.873 345.466 293.127 340.186 263C335.424 235.805 346.867 207.967 356.083 185.582L383.635 118.659C387.936 108.182 392.832 96.3099 391.277 84.6346C388.205 61.5879 361.478 47.2844 337.498 41.5987C278.112 27.4918 215.482 41.5451 156.422 57.1538C126.835 64.9672 100.397 72.5302 76.5504 86.1364C70.6368 89.4978 64.8 93.3061 59.1552 96.9893C47.9424 104.32 36.3456 111.883 23.2512 116.639C16.224 119.196 8.1408 120.787 0 120.948V115.602C7.3728 115.441 14.7648 113.975 21.1584 111.65C33.6 107.127 44.9088 99.7427 55.8528 92.6088C61.5744 88.872 67.4688 85.01 73.536 81.5593C97.9968 67.6312 125.952 59.6212 154.848 51.9866C214.656 36.1812 278.15 21.967 338.918 36.3957ZM361.306 11.2572C387.994 18.1051 406.368 27.313 419.117 40.2577C429.427 50.7172 451.814 81.2017 436.838 137.915C432.499 154.293 426.01 170.313 419.712 185.832C413.242 201.745 406.56 218.212 402.278 235.001C400.109 243.458 398.458 253.202 402.47 261.409C405.12 266.791 410.15 271.493 417.869 275.802C431.827 283.597 448.224 287.155 464.064 290.588L466.923 291.21C483.15 294.751 499.734 298.663 513.715 307.359C535.027 320.608 549.485 344.977 553.363 374.21C555.955 393.717 554.035 413.313 551.002 432.551H549.062C552.096 413.349 554.035 393.806 551.462 374.425C547.642 345.71 533.491 321.806 512.64 308.843C499.352 300.583 483.499 296.694 467.89 293.267L465.056 292.648C464.584 292.545 464.112 292.443 463.642 292.34C447.648 288.872 431.098 285.278 416.89 277.339C408.826 272.834 403.526 267.863 400.723 262.16C396.461 253.452 398.17 243.333 400.416 234.59C404.736 217.694 411.437 201.173 417.907 185.189C424.186 169.741 430.675 153.757 434.957 137.486C449.722 81.6129 427.795 51.7185 417.696 41.4557C405.216 28.7791 387.13 19.7321 360.787 12.9915C284.544 -6.5686 197.203 1.62019 85.9392 38.738L79.2 41.0087C53.6448 49.5908 27.2256 58.459 0 58.4233V56.6353C23.5704 56.6823 46.5822 49.9258 68.9839 42.5225L72.18 41.4611C74.308 40.7515 76.4304 40.0387 78.5472 39.328L85.3056 37.0573C196.954 -0.185644 284.659 -8.39231 361.306 11.2572ZM298.176 72.548C324.691 76.5173 340.109 92.9664 343.642 107.52C347.03 121.468 341.721 135.354 336.055 148.835L335.314 150.592C335.191 150.884 335.067 151.176 334.944 151.468L334.003 153.703C314.554 199.939 308.736 239.185 316.224 273.656C327.187 324.094 365.798 353.041 399.206 359.37C402.355 359.978 405.638 360.425 408.826 360.854C416.41 361.909 424.243 363 431.309 366.147C447.533 373.424 457.709 391.822 456.038 410.899C455.405 418.069 453.254 425.328 449.683 432.551H447.571C450.95 425.918 453.427 418.587 454.118 410.756C455.731 392.394 446.016 374.711 430.464 367.756C423.686 364.716 415.987 363.661 408.538 362.625C405.331 362.195 402.029 361.73 398.822 361.123C378.067 357.189 358.944 346.318 343.488 329.673C329.146 314.207 318.797 294.45 314.342 274.014C306.778 239.185 312.614 199.617 332.218 153.041L333.158 150.806C339.11 136.753 345.235 122.235 341.779 107.914C338.381 93.9498 323.501 78.1443 297.869 74.3002C283.699 72.1905 269.184 74.6042 255.149 76.9643C250.387 77.751 245.491 78.5734 240.672 79.1992C220.224 81.8811 199.776 86.0649 179.885 91.6791C139.757 102.997 102.125 119.857 68.0064 141.795C66.2784 142.886 64.5696 144.012 62.8416 145.139C50.9952 152.88 38.7264 160.873 24.576 164.359C16.5504 166.344 8.3712 166.773 0 166.934V165.146C8.2176 164.985 16.2624 164.556 24.096 162.643C37.92 159.228 50.0352 151.325 61.7472 143.673C63.4752 142.546 65.184 141.42 66.912 140.311C101.203 118.284 139.008 101.352 179.328 89.9805C199.315 84.3306 219.859 80.1111 240.403 77.4291C245.184 76.8034 250.08 75.9988 254.803 75.1942C268.992 72.8162 283.68 70.3667 298.176 72.548ZM275.405 279.378C279.475 286.315 279.706 294.325 279.936 302.085C280.07 307.145 280.224 312.365 281.434 317.229C284.813 330.799 296.006 342.492 316.704 354.06C329.894 361.444 343.891 367.702 358.33 372.708L362.131 373.996C378.106 379.449 396.23 385.635 403.488 400.296C407.77 408.986 407.405 420.035 402.509 429.851C402.048 430.763 401.568 431.657 401.03 432.551H398.822C399.552 431.407 400.186 430.263 400.762 429.1C405.427 419.749 405.792 409.254 401.741 401.047C395.532 388.472 381.22 382.532 366.473 377.398L364.802 376.82C363.688 376.436 362.572 376.056 361.459 375.676L357.658 374.371C343.123 369.347 329.011 363.036 315.706 355.598C294.547 343.762 283.066 331.693 279.571 317.64C278.304 312.598 278.15 307.27 278.016 302.138C277.786 294.236 277.574 286.78 273.715 280.218C265.92 266.898 246.144 264.037 231.494 268.114C218.842 271.618 207.84 279.127 197.203 286.386C194.746 288.049 192.288 289.73 189.811 291.339C161.856 309.719 128.371 324.112 84.4224 336.61C58.752 343.923 29.4144 350.627 0 348.518V346.712C29.1456 348.839 58.3104 342.152 83.8464 334.893C127.603 322.449 160.915 308.146 188.717 289.891C191.174 288.264 193.613 286.601 196.07 284.938C206.842 277.59 217.978 269.991 230.938 266.397C246.317 262.124 267.11 265.217 275.405 279.378ZM245.414 330.28C248.563 334.732 249.946 339.953 251.29 345.013C251.693 346.551 252.096 348.071 252.538 349.572C258.566 369.705 274.138 385.689 293.184 391.321C297.85 392.698 302.784 393.502 307.546 394.271C311.213 394.861 315.014 395.469 318.701 396.345C329.165 398.83 336.787 403.408 340.723 409.594C345.427 416.996 344.525 425.292 341.779 432.551H339.763C342.528 425.56 343.565 417.55 339.072 410.506C334.426 403.211 325.171 399.724 318.221 398.079C314.611 397.221 310.848 396.613 307.219 396.023C302.381 395.255 297.389 394.45 292.608 393.037C272.947 387.227 256.877 370.76 250.694 350.055C250.234 348.535 249.83 346.998 249.427 345.442C248.122 340.543 246.778 335.448 243.821 331.264C236.736 321.287 222.067 318.73 210.682 320.643C199.507 322.521 189.254 327.885 179.366 333.088L176.122 334.768C134.304 356.51 71.5008 380.522 0 379.074V377.304C71.0976 378.752 133.574 354.847 175.2 333.213L178.406 331.514C188.448 326.258 198.835 320.804 210.336 318.891C222.355 316.871 237.85 319.624 245.414 330.28ZM208.378 373.871C213.006 377.394 215.586 382.421 217.936 387.434L218.573 388.8C220.243 392.394 221.971 396.095 224.371 399.242C229.978 406.554 239.117 410.738 247.93 414.779C249.274 415.387 250.598 415.995 251.904 416.62C256.032 418.551 260.678 420.965 263.309 424.988C264.864 427.348 265.574 430.03 265.978 432.551H264.038C263.654 430.298 263.002 427.938 261.677 425.918C259.296 422.306 254.938 420.035 251.04 418.212C249.734 417.604 248.41 416.996 247.085 416.388L245.332 415.583C236.85 411.674 228.312 407.471 222.816 400.279C220.282 396.971 218.515 393.181 216.806 389.497C214.253 384.008 211.853 378.823 207.168 375.265C201.677 371.099 193.152 369.776 184.378 371.743C177.619 373.245 171.283 376.338 165.158 379.324C164.064 379.86 162.989 380.379 161.914 380.897C111.072 405.213 53.3184 412.061 0 416.317V414.529C53.1072 410.273 110.554 403.443 161.03 379.306C162.106 378.788 163.181 378.269 164.256 377.733C170.496 374.711 176.947 371.564 183.936 370.009C193.421 367.881 202.33 369.293 208.378 373.871ZM182.458 425.775C185.453 427.581 188.237 429.744 190.944 431.818L191.885 432.551H188.87C186.49 430.692 184.013 428.85 181.421 427.277C168.307 419.41 150.47 418.015 128.371 423.146C121.824 424.666 115.258 426.615 108.902 428.492C104.198 429.869 99.3984 431.299 94.56 432.551H86.9952C94.2336 430.96 101.357 428.85 108.326 426.794C114.701 424.899 121.306 422.95 127.91 421.412C150.528 416.156 168.883 417.622 182.458 425.775ZM133.69 151.504C172.109 136.467 252.058 105.196 281.549 120.286C287.674 123.415 291.398 128.404 292.608 135.108C297.595 162.555 267.123 195.503 250.189 211.378L249.03 212.457C246.759 214.56 244.773 216.32 243.206 217.676C216.902 240.436 185.376 257.529 152.659 274.461C113.107 294.951 68.2752 318.158 19.4496 319.696C18.0288 319.75 16.608 319.767 15.2256 319.767C9.7344 319.767 4.6656 319.41 0 318.677V316.871C5.7984 317.801 12.2496 318.14 19.392 317.908C67.7568 316.388 112.378 293.288 151.738 272.905C184.339 256.027 215.75 239.006 241.901 216.37C254.784 205.214 296.352 166.451 290.707 135.412C289.594 129.28 286.195 124.72 280.627 121.86C251.962 107.181 172.57 138.237 134.438 153.149C126.336 156.313 119.962 158.816 116.198 160.05C77.6064 172.655 34.2336 186.816 0 212.169V209.88C34.2912 184.903 77.2608 170.849 115.565 158.352C119.27 157.154 125.626 154.651 133.69 151.504ZM89.3184 198.437C99.8208 194.897 116.064 194.271 126.95 201.28C133.613 205.571 137.203 212.133 137.299 220.25C137.434 230.173 131.194 240.007 118.234 250.288C100.339 264.502 79.008 275.462 54.7968 282.9C41.7216 286.923 30.4512 288.89 20.3136 288.89C15.6864 288.89 11.2704 288.478 7.0464 287.656C4.9152 287.263 2.208 286.583 0 285.171V282.864C2.016 284.688 5.1072 285.457 7.4304 285.922C20.6208 288.443 35.4816 286.941 54.2016 281.201C78.1632 273.835 99.2832 262.982 116.986 248.929C129.485 239.006 135.494 229.637 135.379 220.268C135.283 212.652 132.077 206.751 125.856 202.746C117.005 197.043 102.259 195.97 89.9904 200.118L84.96 201.817C63.1296 209.165 40.5504 216.746 22.6944 230.96C11.5392 239.846 3.6864 250.628 0 261.802V256.51C4.2624 246.73 11.5968 237.432 21.4464 229.601C30.5088 222.396 40.7232 216.871 51.4176 212.24C62.1312 207.592 73.3056 203.837 84.3072 200.136L89.3184 198.437ZM224.947 152.559C235.853 151.986 243.974 154.954 247.238 160.658C250.406 166.165 248.698 173.495 242.419 181.291C230.419 196.22 210.413 205.446 190.598 205.446C189.312 205.446 188.006 205.41 186.72 205.321C184.474 205.178 182.112 204.928 179.962 203.944C174.182 201.298 172.493 194.647 172.781 189.766C173.357 180.254 179.923 170.653 190.31 164.091C195.59 160.765 201.466 158.03 207.418 156.045C213.35 154.061 219.379 152.845 224.947 152.559ZM227.52 154.275C226.714 154.275 225.888 154.311 225.043 154.347C214.253 154.901 201.677 159.085 191.405 165.575C186.451 168.686 182.419 172.53 179.539 176.696C176.678 180.88 174.989 185.385 174.701 189.873C174.432 194.2 175.872 200.082 180.806 202.335C182.65 203.175 184.8 203.408 186.854 203.533C207.264 204.802 228.48 195.648 240.883 180.218C246.682 173.013 248.352 166.362 245.549 161.498C242.88 156.85 236.39 154.275 227.52 154.275Z"
          fill="#575445" fill-opacity="0.09"/>
</svg>
