<svg width="46" height="64" viewBox="0 0 46 64" fill="none" xmlns="http://www.w3.org/2000/svg">
    <path d="M43.8778 19.9685C41.1944 19.9685 39.0112 17.7291 39.0112 14.9764V4.11851C39.0112 1.84759 37.21 0 34.9962 0H32.0762C29.8624 0 28.0613 1.84759 28.0613 4.11851V4.99213H17.1113V4.11851C17.1113 1.84759 15.3102 0 13.0964 0H10.1764C7.96256 0 6.16142 1.84759 6.16142 4.11851V14.9764C6.16142 17.7291 3.97824 19.9685 1.29478 19.9685C0.622823 19.9685 0.078125 20.5273 0.078125 21.2166V58.9072C0.078125 61.6598 2.2613 63.8993 4.94476 63.8993H40.2278C42.9113 63.8993 45.0945 61.6598 45.0945 58.9072C45.0945 54.0734 45.0945 25.07 45.0945 21.2166C45.0945 20.5273 44.5498 19.9685 43.8778 19.9685ZM42.6612 53.915H35.3612V48.9229H42.6612V53.915ZM34.1446 46.4268C33.4726 46.4268 32.9279 46.9856 32.9279 47.6749V50.1709H30.4946V37.6906H32.9279V40.1867C32.9279 40.876 33.4726 41.4347 34.1446 41.4347H42.6612V46.4268H34.1446ZM42.6612 38.9386H35.3612V33.9465H42.6612V38.9386ZM28.0613 7.4882V13.1043C28.0613 16.2011 25.6052 18.7205 22.5863 18.7205C19.5674 18.7205 17.1113 16.2011 17.1113 13.1043V7.4882H28.0613ZM8.59473 14.9764V4.11851C8.59473 3.22392 9.30429 2.49607 10.1764 2.49607H13.0964C13.9685 2.49607 14.678 3.22392 14.678 4.11851V13.1043C14.678 17.5774 18.2257 21.2166 22.5863 21.2166C26.9469 21.2166 30.4946 17.5774 30.4946 13.1043V4.11851C30.4946 3.22392 31.2041 2.49607 32.0762 2.49607H34.9962C35.8683 2.49607 36.5779 3.22392 36.5779 4.11851V14.9764C36.5779 18.6803 39.213 21.7647 42.6612 22.3606V31.4504H34.1446C33.4726 31.4504 32.9279 32.0092 32.9279 32.6985V35.1945H30.4946V32.6985C30.4946 32.0092 29.9499 31.4504 29.2779 31.4504H15.8947C15.2227 31.4504 14.678 32.0092 14.678 32.6985V35.1945H12.2447V32.6985C12.2447 32.0092 11.7 31.4504 11.028 31.4504H2.51144V22.3606C5.95957 21.7647 8.59473 18.6803 8.59473 14.9764ZM2.51144 48.9229H9.81139V53.915H2.51144V48.9229ZM11.028 46.4268H2.51144V41.4347H11.028C11.7 41.4347 12.2447 40.876 12.2447 40.1867V37.6906H14.678V50.1709H12.2447V47.6749C12.2447 46.9856 11.7 46.4268 11.028 46.4268ZM2.51144 33.9465H9.81139V38.9386H2.51144V33.9465ZM2.51144 58.9072V56.4111H11.028C11.7 56.4111 12.2447 55.8523 12.2447 55.1631V52.667H14.678V61.4032H4.94476C3.60303 61.4032 2.51144 60.2835 2.51144 58.9072ZM17.1113 61.4032V33.9465H28.0613V61.4032H17.1113ZM40.2278 61.4032H30.4946V52.667H32.9279V55.1631C32.9279 55.8523 33.4726 56.4111 34.1446 56.4111H42.6612V58.9072C42.6612 60.2835 41.5696 61.4032 40.2278 61.4032Z"
          fill="black"/>
</svg>
