<svg width="471" height="421" viewBox="0 0 471 421" fill="none" xmlns="http://www.w3.org/2000/svg">
    <path fill-rule="evenodd" clip-rule="evenodd"
          d="M424.478 112.837C441.547 116.252 457.944 118.791 471 113.91V119.578C455.218 124.459 436.574 120.74 423.269 118.076C294.456 92.3296 187.934 95.1545 97.5792 126.748C50.6544 143.143 21.8927 166.011 12.0623 194.725C7.64635 207.634 7.24317 221.562 6.85917 235.026C6.01437 264.956 5.112 295.905 14.5776 324.959C20.0112 341.694 29.2079 358.734 42.6863 377.042C50.2319 387.287 59.6783 398.605 72.4655 404.845C83.6399 410.316 96.5616 411.675 109.925 412.694C126.917 413.981 144.139 414.804 161.17 415.143C170.616 415.322 179.045 415.233 186.61 412.211C196.056 408.403 203.026 400.25 209.17 393.062L284.241 305.202C297.374 289.826 312.274 272.394 331.858 261.326C349.214 251.493 375.672 245.145 397.848 256.767C402.187 259.056 406.104 261.898 409.886 264.652C413.4 267.226 416.722 269.658 420.37 271.661C435.346 279.903 453.048 279.706 471 275.701V281.101C443.525 287.037 428.53 282.37 417.451 276.273C413.458 274.092 409.829 271.446 406.334 268.889C402.552 266.136 398.981 263.525 395.026 261.451C378.533 252.798 354.917 254.55 334.834 265.903C316.152 276.47 302.213 292.776 288.734 308.546L213.681 396.406C207.422 403.718 199.666 412.801 188.894 417.128C181.752 419.989 174.014 420.561 166.027 420.561C164.376 420.561 162.706 420.543 161.035 420.507C143.909 420.167 126.552 419.327 109.464 418.04C95.4864 416.967 81.9311 415.537 69.7967 409.601C55.8767 402.806 45.8928 390.863 37.944 380.082C24.12 361.308 14.6735 343.786 9.04793 326.515C0.640551 300.645 0.184612 273.663 0.774146 247.192L0.858345 243.666C0.873208 243.079 0.888416 242.492 0.903931 241.905L0.999908 238.39C1.03265 237.219 1.06593 236.05 1.09917 234.883C1.50237 221.044 1.90552 206.74 6.57112 193.098C16.9583 162.739 46.9104 138.727 95.5632 121.723C186.974 89.7549 294.571 86.8584 424.478 112.837ZM116.894 146.451C165.394 131.629 255.672 104.041 288.658 166.404C296.894 181.995 298.546 201.448 293.304 221.205C289.157 236.867 280.939 252.762 267.48 271.231C254.405 289.182 238.296 307.241 216.792 328.07C200.011 344.323 185.189 356.981 167.39 365.867C153.106 373.001 138.398 376.649 124.498 376.649C117.739 376.649 111.192 375.791 104.971 374.056C86.1551 368.818 68.9327 354.693 57.7007 335.294C47.4095 317.504 42.6864 297.407 39.1344 278.347C33.5664 248.525 30.3984 214.464 49.0032 187.895C65.5344 164.277 95.6784 152.923 116.894 146.451ZM286.93 167.191C254.674 106.24 165.432 133.488 117.49 148.149C96.5424 154.55 66.8207 165.725 50.6159 188.879C32.3567 214.929 35.5247 248.56 41.0351 278.044C44.5679 296.96 49.2335 316.878 59.3903 334.435C70.3919 353.423 87.192 367.244 105.528 372.34C123.826 377.435 146.04 374.503 166.469 364.294C184.056 355.515 198.763 342.964 215.41 326.819C236.837 306.079 252.869 288.092 265.906 270.23C279.23 251.94 287.352 236.223 291.441 220.776C296.587 201.43 294.974 182.406 286.93 167.191ZM125.515 173.306C165.01 159.825 221.131 146.093 252.331 182.406C259.339 190.541 262.853 199.535 262.853 209.225C262.853 213.928 262.027 218.809 260.376 223.833C255.538 238.584 245.765 252.458 236.837 264.08C226.142 277.972 213.97 291.578 199.608 305.667C189.067 316.02 177.413 326.568 163.627 333.667C152.798 339.263 141.202 342.177 130.354 342.177C125.899 342.177 121.56 341.694 117.47 340.693C103.128 337.207 90.0144 327.212 81.5088 313.266C73.464 299.982 70.0655 284.641 67.7999 271.357C67.5311 269.873 67.3007 268.371 67.0703 266.869C64.4783 249.615 62.5968 224.405 76.248 204.863C85.56 191.543 101.208 181.512 125.515 173.306ZM195.096 160.933C171.595 160.933 146.635 167.995 126.187 174.986C102.283 183.05 86.9231 192.848 77.8607 205.828C64.5551 224.888 66.4175 249.651 68.9711 266.619C69.2015 268.12 69.4319 269.604 69.6815 271.088C71.9279 284.194 75.288 299.356 83.1792 312.372C91.4352 325.925 104.107 335.615 117.95 338.959C131.544 342.267 147.864 339.781 162.686 332.111C176.242 325.12 187.781 314.679 198.226 304.434C212.53 290.416 224.645 276.864 235.281 263.025C244.113 251.528 253.79 237.815 258.552 223.315C263.409 208.51 260.818 195.119 250.834 183.515C243.614 175.111 234.994 169.462 225.509 165.921C216.043 162.381 205.714 160.933 195.096 160.933ZM134.117 200.178C159.192 189.791 203.698 182.961 218.616 197.693C228.715 206.937 232.843 213.928 227.448 226.497C222.84 237.225 213.739 247.97 206.443 256.606L206.174 256.928C198.955 265.456 191.083 274.557 182.424 283.282C175.858 289.88 168.581 296.674 159.864 301.466C152.376 305.632 144.082 307.849 136.306 307.849C134.155 307.849 132.043 307.67 129.989 307.33C120.043 305.632 111.058 299.785 105.336 291.239C99.5567 282.621 97.5407 272.358 96.4463 264.366C96.3119 263.418 96.1967 262.453 96.0815 261.469C94.1999 244.68 96.6383 231.7 103.512 221.813C111.345 210.513 124.728 204.058 134.117 200.178ZM188.491 191.06C170.808 191.06 149.669 195.691 134.904 201.806C120.331 207.831 110.885 214.5 105.125 222.778C98.5008 232.326 96.1583 244.913 98.0015 261.29C98.0975 262.238 98.2319 263.204 98.3471 264.151C99.4223 271.947 101.381 281.977 106.968 290.291C112.402 298.408 120.926 303.969 130.334 305.578C139.301 307.098 149.707 305.042 158.885 299.928C167.39 295.244 174.552 288.575 181.022 282.066C189.624 273.395 197.477 264.33 204.658 255.819L204.926 255.498C212.165 246.951 221.15 236.313 225.662 225.836C230.193 215.287 228.235 209.011 217.253 198.963L217.234 198.945C211.57 193.331 200.875 191.06 188.491 191.06ZM179.102 214.393C189.105 213.624 194.866 215.072 196.69 218.791C199.905 225.293 189.639 236.572 178.23 247.259L177.123 248.291C176.938 248.463 176.753 248.634 176.568 248.805L175.454 249.83C172.786 252.279 170.347 255.068 168.005 257.768C164.453 261.827 160.786 266.011 156.178 269.229C151.954 272.179 146.424 274.003 141.182 274.003C136.593 274.003 132.235 272.608 129.221 269.3C126.379 266.207 124.997 261.737 125.093 255.998C125.246 248.846 127.762 242.857 131.294 237.976C134.808 233.095 139.32 229.322 143.429 226.551C153.278 219.9 166.622 215.358 179.102 214.393ZM194.942 219.542C193.541 216.663 188.126 215.501 179.256 216.181C143.717 218.916 127.32 241.14 127.013 256.034C126.917 261.308 128.146 265.385 130.68 268.138C136.44 274.414 147.806 272.841 155.026 267.799C159.442 264.723 163.032 260.611 166.507 256.642C168.888 253.906 171.365 251.081 174.11 248.56C174.713 248.009 175.405 247.375 176.165 246.672L176.945 245.947C184.69 238.726 197.912 225.544 194.942 219.542ZM351.691 133.22C365.669 133.488 379.723 135.312 393.317 137.1C401.477 138.155 409.925 139.263 418.238 139.996C439.339 141.891 456.485 140.944 471 136.975V138.834C456.35 142.75 439.166 143.679 418.066 141.784C409.694 141.033 401.227 139.925 393.048 138.87C379.512 137.1 365.515 135.276 351.653 135.008C345.355 134.901 338.29 135.348 334.066 139.621C328.766 144.931 330.744 153.334 331.838 156.696C332.568 158.966 333.528 161.219 334.469 163.418C336.024 167.048 337.618 170.803 338.27 174.772C339.019 179.331 338.482 183.962 337.963 188.432C337.714 190.559 337.464 192.776 337.349 194.94C337.118 199.553 337.637 207.974 343.742 212.444C349.195 216.413 356.299 215.734 363.845 215.001C367.954 214.607 372.216 214.178 376.267 214.571C386.117 215.519 394.238 221.169 402.091 226.622C404.664 228.392 407.314 230.252 409.963 231.879C427.742 242.803 450.36 246.129 471 241.641V243.483C465.048 244.734 458.962 245.36 452.856 245.36C437.362 245.36 421.886 241.337 408.907 233.363C406.219 231.7 403.531 229.858 400.958 228.053L399.472 227.024C392.271 222.053 384.786 217.196 376.075 216.359C372.216 215.984 368.069 216.395 364.037 216.771C356.453 217.522 348.619 218.273 342.552 213.838C335.774 208.886 335.179 199.821 335.429 194.85C335.544 192.633 335.813 190.398 336.062 188.235C336.561 183.872 337.099 179.367 336.37 175.04C335.755 171.267 334.2 167.62 332.683 164.08C331.742 161.845 330.763 159.556 329.995 157.214C328.805 153.549 326.693 144.412 332.645 138.405C337.406 133.631 344.933 133.113 351.691 133.22ZM471 160.254V162.113C448.862 167.87 425.035 166.064 403.704 164.437C394.987 163.776 382.853 163.776 378.226 171.428C374.75 177.203 377.765 184.749 382.373 188.914C387.422 193.492 394.546 195.744 401.496 197.514C425.765 203.665 449.4 205.149 471 202.002V203.808C463.666 204.881 456.139 205.399 448.421 205.399C433.157 205.399 417.201 203.343 400.997 199.231C393.797 197.407 386.405 195.065 381.029 190.202C375.787 185.446 372.562 177.168 376.555 170.552C381.72 162.006 394.603 161.952 403.858 162.667C425.208 164.294 449.054 166.1 471 160.254ZM114.706 0C113.803 18.9701 110.251 37.6899 104.107 55.927C101.63 63.2397 99.4416 71.4642 104.549 76.5062C108.619 80.5112 115.512 80.4397 121.042 79.9391C133.138 78.8306 145.214 76.1486 156.869 73.574C161.803 72.4834 166.91 71.3391 171.96 70.3378C235.403 57.7872 299.922 63.166 365.783 71.9272L370.605 72.5741C373.821 73.0091 377.04 73.4513 380.262 73.899L385.098 74.5745C385.905 74.6877 386.712 74.8012 387.518 74.915C413.112 78.5266 443.141 82.764 471 78.3121V80.1358C462.475 81.4946 453.739 82.031 445.003 82.031C425.054 82.031 405.086 79.206 387.23 76.685C382.401 76.0036 377.579 75.3318 372.764 74.6752L367.952 74.0239C301.415 65.0904 236.282 59.4353 172.363 72.09C167.333 73.0913 162.245 74.2177 157.31 75.3083C145.579 77.9008 133.464 80.5827 121.234 81.7092C115.723 82.2098 107.851 82.3528 103.147 77.722C97.3295 71.9827 99.6528 63.186 102.283 55.3906C108.35 37.3502 111.864 18.7734 112.766 0H114.706ZM151.858 0C152.28 10.3701 149.957 20.8296 145.08 30.1448L144.792 30.699C143.87 32.4333 142.929 34.2213 142.872 36.045C142.718 40.0679 146.904 43.2683 151.051 44.0371C155.41 44.8596 160.018 43.7689 164.453 42.714L164.664 42.6604C210.667 31.7361 258.014 27.4629 305.419 29.9839C319.589 30.7348 333.95 32.1115 347.832 33.4525C366.283 35.2225 385.368 37.0641 404.203 37.4217C429.682 37.9402 451.781 35.5623 471 30.2163V32.0758C451.723 37.3681 429.605 39.7282 404.165 39.2097C385.253 38.8342 366.13 37.0105 347.64 35.2225C333.778 33.8995 319.435 32.5049 305.304 31.7539C258.11 29.2687 210.955 33.5061 165.144 44.3947L164.933 44.4484C161.458 45.2708 157.886 46.1111 154.296 46.1111C153.086 46.1111 151.877 46.0217 150.667 45.7893C145.752 44.8775 140.76 40.9619 140.952 35.9735C141.029 33.7743 142.066 31.8076 143.064 29.9123L143.371 29.3581C148.114 20.2753 150.379 10.084 149.957 0H151.858Z"
          fill="#575445" fill-opacity="0.09"/>
</svg>
