<svg width="64" height="64" viewBox="0 0 64 64" fill="none" xmlns="http://www.w3.org/2000/svg">
    <path fill-rule="evenodd" clip-rule="evenodd"
          d="M33.1642 3.7441C33.1642 4.43339 32.6209 4.99213 31.951 4.99213C31.281 4.99213 30.7378 4.43339 30.7378 3.7441V1.24803C30.7378 0.558744 31.281 0 31.951 0C32.6209 0 33.1642 0.558744 33.1642 1.24803V3.7441ZM56.821 51.1694H58.1555C60.8313 51.1694 63.0082 53.4089 63.0082 56.1615V62.6513C63.0082 63.3406 62.4649 63.8993 61.795 63.8993H2.10697C1.43694 63.8993 0.893799 63.3406 0.893799 62.6513V56.1615C0.893799 53.4089 3.07071 51.1694 5.74649 51.1694H7.08098V44.9292C7.08098 44.24 7.62423 43.6812 8.29415 43.6812H11.9337V28.0808C11.9337 16.7261 20.9134 7.48825 31.951 7.48825C42.9886 7.48825 51.9683 16.7261 51.9683 28.0808V43.6812H55.6078C56.2778 43.6812 56.821 44.24 56.821 44.9292V51.1694ZM31.951 9.98432C22.2513 9.98432 14.36 18.1024 14.36 28.0808V43.6812H16.7863V28.0808C16.7863 19.4787 23.5892 12.4804 31.951 12.4804C40.3128 12.4804 47.1156 19.4787 47.1156 28.0808V43.6812H49.542V28.0808C49.542 18.1024 41.6507 9.98432 31.951 9.98432ZM28.3115 28.7048C28.3115 30.7693 29.9442 32.4489 31.951 32.4489C33.9578 32.4489 35.5905 30.7693 35.5905 28.7048C35.5905 26.6403 33.9578 24.9607 31.951 24.9607C29.9442 24.9607 28.3115 26.6403 28.3115 28.7048ZM38.0169 28.7048C38.0169 31.7184 35.9296 34.2396 33.1642 34.8194V43.6812H44.6893V28.0808C44.6893 20.8549 38.975 14.9765 31.951 14.9765C24.927 14.9765 19.2127 20.8549 19.2127 28.0808V43.6812H30.7378V34.8194C27.9724 34.2396 25.8851 31.7183 25.8851 28.7048C25.8851 25.264 28.6063 22.4646 31.951 22.4646C35.2957 22.4646 38.0169 25.264 38.0169 28.7048ZM54.3947 51.1694V46.1773H9.50732V51.1694H54.3947ZM3.32014 56.1615V61.4033H60.5819V56.1615C60.5819 54.7852 59.4934 53.6655 58.1555 53.6655H5.74649C4.4086 53.6655 3.32014 54.7852 3.32014 56.1615ZM19.6784 7.46134C20.0151 8.06115 20.7582 8.26121 21.3356 7.91812C21.9159 7.57354 22.1147 6.81024 21.7797 6.21331L20.5665 4.05172C20.2315 3.45478 19.4894 3.25023 18.9093 3.59494C18.329 3.93952 18.1302 4.70282 18.4653 5.29975L19.6784 7.46134ZM11.9077 16.3693L9.80648 15.1212C9.22622 14.7766 9.02739 14.0134 9.36246 13.4164C9.69754 12.8196 10.4392 12.6149 11.0197 12.9596L13.1209 14.2077C13.7011 14.5523 13.9 15.3155 13.5649 15.9125C13.2286 16.5114 12.486 16.7126 11.9077 16.3693ZM51.9944 16.3692L54.0956 15.1212C54.6759 14.7766 54.8747 14.0132 54.5396 13.4164C54.2047 12.8195 53.4627 12.615 52.8824 12.9596L50.7812 14.2076C50.201 14.5522 50.0021 15.3156 50.3372 15.9125C50.6737 16.5123 51.4169 16.7123 51.9944 16.3692ZM44.2235 7.46134C43.8873 8.06027 43.1446 8.26146 42.5663 7.91812C41.9861 7.57354 41.7872 6.81024 42.1223 6.21331L43.3355 4.05172C43.6706 3.45478 44.4123 3.25023 44.9927 3.59494C45.5729 3.93952 45.7718 4.70282 45.4367 5.29975L44.2235 7.46134Z"
          fill="black"/>
</svg>
