<svg width="63" height="60" viewBox="0 0 63 60" fill="none" xmlns="http://www.w3.org/2000/svg">
    <path d="M61.4449 11.2357C61.3487 11.2304 23.4122 11.2323 22.4479 11.2323V7.4882C22.4479 6.79891 21.9032 6.24017 21.2312 6.24017H20.0145V4.36812C20.0145 1.95954 18.1043 0 15.7562 0C13.4082 0 11.4979 1.95954 11.4979 4.36812V6.24017H10.2813C9.60932 6.24017 9.06462 6.79891 9.06462 7.4882V11.2323H1.52135C0.849385 11.2323 0.304688 11.791 0.304688 12.4803V22.4646C0.304688 23.1539 0.849385 23.7126 1.52135 23.7126H9.06462V27.4567C9.06462 28.146 9.60932 28.7048 10.2813 28.7048H11.4979V49.9213H9.06462C8.39266 49.9213 7.84797 50.4801 7.84797 51.1694V57.4095H5.41465C4.74269 57.4095 4.19799 57.9683 4.19799 58.6576C4.19799 59.3468 4.74269 59.9056 5.41465 59.9056H26.0978C26.7698 59.9056 27.3145 59.3468 27.3145 58.6576C27.3145 57.9683 26.7698 57.4095 26.0978 57.4095H23.6645V51.1694C23.6645 50.4801 23.1198 49.9213 22.4479 49.9213H20.0145V28.7048H21.2312C21.9032 28.7048 22.4479 28.146 22.4479 27.4567V23.7126H61.3809C62.0528 23.7126 62.5976 23.1539 62.5976 22.4646V12.4803C62.5976 11.8517 62.1368 11.2851 61.4449 11.2357ZM34.7087 21.2166L42.1128 13.7284H47.9034L40.4994 21.2166H34.7087ZM28.1581 13.7284L22.4479 19.5036V13.7284H28.1581ZM13.9313 4.36812C13.9313 3.33587 14.7499 2.49607 15.7562 2.49607C16.7625 2.49607 17.5812 3.33587 17.5812 4.36812V6.24017H13.9313V4.36812ZM2.738 21.2166V13.7284H9.06462V21.2166H2.738ZM21.2312 57.4095H10.2813V52.4174H21.2312V57.4095ZM17.5812 49.9213H13.9313V28.7048H17.5812V49.9213ZM20.0145 26.2087C17.3689 26.2087 14.1382 26.2087 11.4979 26.2087C11.4979 24.4218 11.4979 10.6155 11.4979 8.73623H20.0145V26.2087ZM24.22 21.2166L31.624 13.7284H38.6471L31.2431 21.2166H24.22ZM43.9651 21.2166L51.369 13.7284H58.3921L50.9881 21.2166H43.9651ZM54.4539 21.2166L60.1643 15.4413V21.2166H54.4539Z"
          fill="black"/>
</svg>
